{"glyphs":{"0":{"ha":724,"x_min":58,"x_max":665,"o":"m 363 -18 q 122 150 206 -18 q 58 457 58 283 q 122 764 58 629 q 360 936 206 936 q 600 764 515 936 q 665 454 665 629 q 601 149 665 281 q 363 -18 518 -18 m 364 25 q 456 215 426 25 q 474 453 474 331 q 456 694 474 578 q 358 888 425 888 q 269 694 297 888 q 253 457 253 578 q 269 217 253 332 q 364 25 299 25 z "},"1":{"ha":724,"x_min":99,"x_max":626,"o":"m 626 0 l 99 0 l 99 31 q 188 40 160 31 q 250 99 233 54 q 260 135 260 122 l 260 708 q 197 785 260 785 q 107 757 158 785 l 107 789 l 442 935 l 465 935 l 465 135 q 515 46 465 68 q 626 31 549 31 l 626 0 z "},"2":{"ha":724,"x_min":56,"x_max":669,"o":"m 669 296 l 613 0 l 56 0 l 56 40 q 210 204 132 122 q 363 400 311 314 q 432 607 432 514 q 390 731 432 681 q 275 782 347 782 q 175 749 219 782 q 113 661 131 715 l 81 661 q 181 855 96 778 q 385 932 267 932 q 553 867 489 932 q 618 696 618 801 q 554 503 618 596 q 418 349 518 450 l 253 183 l 435 183 q 560 199 528 183 q 642 296 601 219 l 669 296 z "},"3":{"ha":724,"x_min":60,"x_max":664,"o":"m 617 758 q 511 581 617 656 q 664 335 664 488 q 538 82 664 188 q 268 -18 418 -18 q 136 7 193 -18 q 60 107 60 42 q 88 169 60 146 q 154 192 115 192 q 270 122 206 192 q 386 53 335 53 q 479 107 443 53 q 513 215 513 154 q 428 393 513 317 q 247 488 357 456 l 247 513 q 365 572 335 549 q 418 689 418 615 q 382 785 418 747 q 288 824 346 824 q 117 715 185 824 l 92 729 q 217 879 135 822 q 400 936 300 936 q 547 892 486 936 q 617 758 617 842 z "},"4":{"ha":724,"x_min":57,"x_max":668,"o":"m 668 206 l 586 206 l 586 0 l 392 0 l 392 206 l 57 206 l 57 354 l 479 935 l 586 935 l 586 353 l 668 353 l 668 206 m 392 353 l 392 739 l 117 353 l 392 353 z "},"5":{"ha":724,"x_min":64,"x_max":660,"o":"m 660 915 l 603 742 l 239 742 l 210 628 q 499 557 381 628 q 639 313 639 472 q 522 71 639 165 q 261 -18 413 -18 q 135 4 188 -18 q 64 100 64 36 q 86 159 64 133 q 142 185 108 185 q 271 124 192 185 q 401 64 350 64 q 497 107 458 64 q 535 207 535 150 q 371 397 535 335 q 103 443 257 440 l 235 915 l 660 915 z "},"6":{"ha":724,"x_min":65,"x_max":658,"o":"m 658 894 q 425 776 521 875 q 303 544 336 683 q 422 567 365 567 q 599 485 532 567 q 658 296 658 408 q 581 75 658 164 q 369 -18 499 -18 q 140 103 224 -18 q 65 360 65 208 q 239 768 65 608 q 658 933 406 919 l 658 894 m 381 19 q 449 110 426 19 q 464 243 464 171 q 442 403 464 329 q 344 510 411 510 q 288 489 318 510 q 274 301 274 413 q 381 19 274 19 z "},"7":{"ha":724,"x_min":58,"x_max":665,"o":"m 665 915 l 346 -18 l 226 -18 l 493 733 l 244 733 q 144 703 178 733 q 90 613 121 681 l 58 613 l 121 915 l 665 915 z "},"8":{"ha":724,"x_min":67,"x_max":658,"o":"m 658 254 q 564 50 658 128 q 346 -21 475 -21 q 156 35 233 -21 q 67 204 67 97 q 264 435 67 353 q 82 685 82 554 q 175 871 82 801 q 382 933 261 933 q 558 886 485 933 q 643 732 643 831 q 465 543 643 603 q 600 422 564 469 q 658 254 658 350 m 483 726 q 457 835 483 790 q 365 889 425 889 q 288 855 318 889 q 258 774 258 821 q 429 567 258 654 q 483 726 483 633 m 471 165 q 301 407 471 300 q 229 208 229 346 q 257 86 229 138 q 356 22 292 22 q 442 68 410 22 q 471 165 471 108 z "},"9":{"ha":724,"x_min":64,"x_max":660,"o":"m 422 368 q 306 344 353 344 q 126 428 193 344 q 64 619 64 504 q 144 842 64 751 q 356 932 225 932 q 585 810 500 932 q 660 551 660 703 q 485 146 660 304 q 67 -18 319 -6 l 67 15 q 299 135 204 42 q 422 368 394 229 m 439 425 q 451 622 451 528 q 346 892 451 892 q 275 806 297 892 q 258 676 258 747 q 282 514 258 590 q 379 403 314 403 q 439 425 407 403 z "}," ":{"ha":367,"x_min":0,"x_max":0,"o":""},"!":{"ha":349,"x_min":0,"x_max":225,"o":"m 224 810 q 183 560 224 719 q 135 308 139 388 l 94 308 q 46 603 94 428 q 4 803 4 757 q 31 897 4 858 q 114 942 61 942 q 194 902 165 942 q 224 810 224 863 m 113 -21 q 31 11 63 -21 q 0 93 0 43 q 31 176 0 143 q 113 208 63 208 q 194 176 163 208 q 225 93 225 143 q 194 11 225 43 q 113 -21 163 -21 z "},"\"":{"ha":486,"x_min":0,"x_max":361,"o":"m 308 563 l 281 563 l 228 868 q 225 896 225 883 q 286 971 225 971 q 340 946 318 971 q 361 888 361 921 q 360 868 361 878 l 308 563 m 82 563 l 56 563 l 3 868 q 0 892 0 881 q 18 947 0 924 q 68 969 36 969 q 117 947 99 969 q 135 892 135 924 q 133 868 135 881 l 82 563 z "},"#":{"ha":1028,"x_min":0,"x_max":981,"o":"m 981 694 l 933 563 l 749 563 l 690 399 l 885 399 l 836 268 l 644 268 l 546 -6 l 404 -6 l 503 268 l 333 268 l 236 -6 l 93 -6 l 190 268 l 0 268 l 47 399 l 238 399 l 294 563 l 96 563 l 144 694 l 343 694 l 440 969 l 581 969 l 485 694 l 653 694 l 750 969 l 893 969 l 796 694 l 981 694 m 610 563 l 433 563 l 376 397 l 550 397 l 610 563 z "},"$":{"ha":701,"x_min":0,"x_max":590,"o":"m 590 271 q 510 79 590 158 q 317 0 429 0 l 317 -133 l 247 -133 l 247 0 q 22 57 107 0 l 22 272 l 51 272 q 247 43 117 60 l 247 383 q 82 492 136 442 q 0 664 0 568 q 75 836 0 764 q 247 914 146 904 l 247 1003 l 317 1003 l 317 915 q 535 847 438 904 l 535 653 l 503 653 q 317 869 447 832 l 317 582 q 501 464 447 514 q 590 271 590 381 m 247 615 l 247 872 q 132 749 132 850 q 169 667 132 703 q 247 615 192 647 m 444 185 q 317 342 444 279 l 317 43 q 444 185 444 69 z "},"%":{"ha":1119,"x_min":0,"x_max":1010,"o":"m 850 514 q 1010 338 1010 514 q 932 106 1010 214 q 726 -14 846 -14 q 599 37 644 -14 q 554 171 554 88 q 639 401 554 297 q 850 514 728 514 m 890 444 q 764 321 824 444 q 711 138 711 214 q 771 54 711 54 q 913 161 853 54 q 965 342 965 253 q 890 444 965 444 m 807 935 l 278 -18 l 207 -18 l 675 831 q 521 794 594 794 q 457 803 486 794 q 460 765 460 785 q 385 524 460 633 q 174 400 300 400 q 46 449 92 400 q 0 582 0 499 q 88 814 0 710 q 304 924 179 924 q 412 883 360 924 q 521 843 464 843 q 754 935 619 843 l 807 935 m 400 824 q 336 857 375 825 q 208 732 268 851 q 156 549 156 626 q 218 464 156 464 q 360 575 300 464 q 411 761 411 671 q 400 824 411 797 z "},"&":{"ha":1072,"x_min":0,"x_max":968,"o":"m 968 540 q 907 526 929 540 q 865 481 890 515 q 707 244 813 401 q 868 118 808 118 q 940 169 910 118 l 967 151 q 758 -18 897 -18 q 557 100 646 -18 q 256 -18 425 -18 q 74 49 147 -18 q 0 224 0 117 q 83 411 0 324 q 258 529 153 485 q 190 718 190 643 q 275 883 190 821 q 460 938 351 938 q 604 901 544 938 q 676 778 676 857 q 478 576 676 639 l 676 289 q 797 483 797 465 q 756 529 797 513 q 689 540 724 540 l 689 572 l 968 572 l 968 540 m 544 728 q 515 836 544 789 q 422 892 481 892 q 367 869 388 892 q 347 810 347 846 q 383 708 347 765 q 449 618 417 663 q 544 728 544 654 m 528 143 l 289 489 q 182 346 182 428 q 242 176 182 256 q 394 90 307 90 q 528 143 467 90 z "},"'":{"ha":347,"x_min":0,"x_max":240,"o":"m 240 779 q 172 603 240 683 q 21 479 122 544 l 0 513 q 147 699 147 610 q 129 719 147 715 q 96 719 126 719 q 26 749 51 719 q 0 824 0 779 q 29 907 0 872 q 104 942 58 942 q 207 890 168 942 q 240 779 240 844 z "},"(":{"ha":460,"x_min":0,"x_max":347,"o":"m 347 897 q 181 671 235 838 q 139 383 139 542 q 182 72 139 221 q 339 -190 236 -111 l 339 -229 q 88 3 176 -150 q 0 336 0 151 q 90 688 0 525 q 347 943 185 856 l 347 897 z "},")":{"ha":460,"x_min":0,"x_max":349,"o":"m 7 906 l 7 943 q 261 711 169 865 q 349 378 349 563 q 257 26 349 188 q 0 -229 164 -140 l 0 -183 q 165 49 111 -125 q 207 340 207 181 q 164 647 207 503 q 7 906 111 832 z "},"*":{"ha":524,"x_min":0,"x_max":524,"o":"m 524 764 q 476 696 524 718 q 374 673 446 682 q 283 656 303 664 q 382 631 311 642 q 478 611 453 621 q 522 550 522 592 q 502 496 522 521 q 453 471 482 471 q 357 539 410 471 q 274 636 290 625 q 306 533 276 600 q 335 435 335 465 q 264 368 335 368 q 212 385 233 368 q 190 431 190 401 q 218 531 190 464 q 253 635 249 603 q 163 539 228 619 q 76 472 107 472 q 23 494 46 472 q 0 547 0 517 q 49 614 0 593 q 151 637 79 628 q 242 654 222 646 q 179 678 221 663 q 69 690 124 685 q 0 760 0 704 q 24 813 0 789 q 76 838 47 838 q 165 768 107 838 q 250 672 239 681 q 219 779 249 713 q 189 874 189 846 q 209 923 189 904 q 260 942 229 942 q 312 924 290 942 q 333 875 333 906 q 307 776 333 843 q 271 674 276 697 q 308 701 288 683 q 374 782 313 706 q 450 838 418 838 q 500 814 476 838 q 524 764 524 790 z "},"+":{"ha":797,"x_min":0,"x_max":682,"o":"m 682 339 l 408 339 l 408 0 l 274 0 l 274 339 l 0 339 l 0 471 l 274 471 l 274 808 l 408 808 l 408 471 l 682 471 l 682 339 z "},",":{"ha":378,"x_min":0,"x_max":242,"o":"m 242 42 q 22 -258 242 -115 l 1 -224 q 149 -39 149 -128 q 111 -17 149 -24 q 39 6 58 -7 q 0 86 0 29 q 31 168 0 132 q 107 204 61 204 q 207 151 168 204 q 242 42 242 104 z "},".":{"ha":361,"x_min":0,"x_max":225,"o":"m 111 -17 q 31 15 63 -17 q 0 96 0 46 q 31 178 0 146 q 111 211 63 211 q 193 178 161 211 q 225 94 225 144 q 193 14 225 44 q 111 -17 161 -17 z "},"/":{"ha":407,"x_min":0,"x_max":381,"o":"m 381 942 l 74 -125 l 0 -125 l 307 942 l 381 942 z "},":":{"ha":349,"x_min":0,"x_max":226,"o":"m 122 414 q 35 444 69 414 q 0 526 0 474 q 32 609 0 575 q 114 643 64 643 q 195 610 164 643 q 226 528 226 578 q 198 447 226 481 q 122 414 169 414 m 115 -18 q 32 13 64 -18 q 0 94 0 44 q 31 177 0 144 q 111 210 63 210 q 194 178 161 210 q 226 96 226 146 q 195 14 226 46 q 115 -18 164 -18 z "},";":{"ha":360,"x_min":0,"x_max":242,"o":"m 122 414 q 35 444 69 414 q 0 526 0 474 q 32 609 0 575 q 114 643 64 643 q 195 610 164 643 q 226 528 226 578 q 198 447 226 481 q 122 414 169 414 m 242 44 q 24 -256 242 -115 l 3 -222 q 150 -36 150 -126 q 129 -15 150 -18 q 97 -15 129 -15 q 27 14 53 -15 q 1 88 1 43 q 31 172 1 136 q 110 207 61 207 q 208 154 171 207 q 242 44 242 108 z "},"<":{"ha":775,"x_min":0,"x_max":667,"o":"m 667 17 l 0 339 l 0 469 l 667 790 l 667 646 l 188 404 l 667 163 l 667 17 z "},"=":{"ha":775,"x_min":0,"x_max":668,"o":"m 668 482 l 0 482 l 0 611 l 668 611 l 668 482 m 668 196 l 0 196 l 0 326 l 668 326 l 668 196 z "},">":{"ha":775,"x_min":0,"x_max":668,"o":"m 668 339 l 0 17 l 0 163 l 481 404 l 0 646 l 0 790 l 668 469 l 668 339 z "},"?":{"ha":608,"x_min":0,"x_max":526,"o":"m 526 717 q 367 489 526 578 q 294 446 301 453 q 274 364 274 424 l 274 315 l 231 315 l 231 379 q 278 541 231 428 q 325 728 325 654 q 301 839 325 794 q 211 897 272 897 q 161 883 186 897 q 132 846 132 869 q 158 788 132 824 q 183 726 183 751 q 158 663 183 688 q 96 638 133 638 q 26 667 51 638 q 0 742 0 697 q 83 893 0 838 q 256 942 154 942 q 442 885 365 942 q 526 717 526 822 m 249 -21 q 168 9 199 -21 q 138 89 138 39 q 169 174 138 139 q 249 208 200 208 q 331 176 299 208 q 364 93 364 143 q 331 11 364 43 q 249 -21 299 -21 z "},"@":{"ha":1256,"x_min":0,"x_max":1156,"o":"m 1057 -40 q 607 -186 844 -186 q 181 -51 347 -186 q 0 346 0 93 q 190 790 0 614 q 646 964 376 964 q 1008 844 869 964 q 1156 499 1156 718 q 1074 218 1156 342 q 832 78 982 78 q 685 211 700 78 q 494 81 619 81 q 343 143 397 81 q 290 301 290 201 q 385 556 290 443 q 621 669 481 669 q 769 550 738 669 l 800 660 l 926 660 l 813 249 q 803 192 803 213 q 851 121 803 121 q 1046 260 971 121 q 1107 506 1107 375 q 983 813 1107 701 q 664 919 864 919 q 265 749 425 919 q 106 339 106 579 q 251 -15 106 115 q 619 -142 392 -142 q 1031 -4 814 -142 l 1057 -40 m 649 628 q 488 479 557 628 q 429 249 429 353 q 507 126 429 126 q 672 271 603 126 q 729 499 729 392 q 649 628 729 628 z "},"A":{"ha":999,"x_min":0,"x_max":910,"o":"m 910 0 l 476 0 l 476 38 q 593 81 593 38 q 525 268 593 90 l 225 268 q 190 175 214 243 q 164 83 164 96 q 272 38 164 38 l 272 0 l 0 0 l 0 38 q 113 147 68 38 l 432 942 l 467 942 l 789 175 q 832 88 817 108 q 910 38 863 44 l 910 0 m 504 324 l 369 644 l 244 324 l 504 324 z "},"B":{"ha":893,"x_min":0,"x_max":813,"o":"m 813 263 q 693 57 813 128 q 449 0 594 0 l 1 0 l 1 35 q 119 165 119 44 l 119 746 q 97 850 119 818 q 0 886 69 888 l 0 919 l 413 919 q 769 704 769 919 q 547 497 769 549 q 726 426 656 481 q 813 263 813 363 m 543 706 q 511 822 543 776 q 407 875 474 875 q 344 854 358 875 q 335 788 335 839 l 335 508 q 495 551 447 508 q 543 706 543 594 m 575 254 q 526 415 575 364 q 367 465 476 465 q 350 465 361 465 q 335 464 339 464 l 335 157 q 417 49 335 49 q 575 254 575 49 z "},"C":{"ha":922,"x_min":0,"x_max":846,"o":"m 846 179 q 683 32 788 85 q 463 -21 578 -21 q 128 115 256 -21 q 0 458 0 251 q 129 805 0 668 q 467 942 258 942 q 597 911 513 942 q 722 881 682 881 q 790 942 779 881 l 826 942 l 826 622 l 792 622 q 676 810 754 735 q 479 894 588 894 q 281 744 349 894 q 228 481 228 629 q 286 201 228 322 q 500 46 360 46 q 674 94 586 46 q 808 214 756 140 l 846 179 z "},"D":{"ha":1032,"x_min":0,"x_max":914,"o":"m 914 458 q 782 114 914 233 q 429 0 657 0 l 10 0 l 10 35 q 119 151 119 43 l 119 756 q 93 856 119 824 q 0 886 67 888 l 0 919 l 417 919 q 774 803 640 919 q 914 458 914 679 m 678 454 q 631 725 678 617 q 424 874 565 874 q 336 786 336 874 l 336 146 q 351 74 336 94 q 422 49 371 49 q 678 454 678 49 z "},"E":{"ha":926,"x_min":0,"x_max":842,"o":"m 842 289 l 786 0 l 0 0 l 0 35 q 97 61 68 35 q 126 156 126 88 l 126 746 q 103 849 126 818 q 7 886 76 886 l 7 919 l 778 919 l 778 646 l 747 646 q 653 825 731 772 q 451 869 586 869 q 368 860 385 869 q 342 783 342 844 l 342 494 q 556 696 556 494 l 588 696 l 588 238 l 553 238 q 342 449 553 449 l 342 149 q 411 56 342 56 q 650 104 560 56 q 804 289 751 160 l 842 289 z "},"F":{"ha":854,"x_min":0,"x_max":765,"o":"m 765 644 l 733 644 q 622 832 710 782 q 403 871 553 871 q 353 857 367 871 q 339 804 339 843 l 339 497 q 543 700 543 497 l 581 700 l 581 239 l 546 239 q 339 451 546 451 l 339 163 q 378 60 339 86 q 488 35 406 40 l 488 0 l 3 0 l 3 35 q 99 72 75 46 q 122 169 122 99 l 122 757 q 96 852 122 826 q 0 886 69 878 l 0 919 l 765 919 l 765 644 z "},"G":{"ha":1004,"x_min":0,"x_max":953,"o":"m 953 368 q 867 345 889 369 q 844 258 844 321 l 844 56 q 492 -21 674 -21 q 138 110 275 -21 q 0 456 0 240 q 129 801 0 661 q 464 942 258 942 q 605 913 519 942 q 719 883 690 883 q 789 942 767 883 l 828 942 l 828 621 l 792 621 q 678 807 756 731 q 485 894 589 894 q 283 742 351 894 q 232 475 232 625 q 289 189 232 315 q 501 24 363 24 q 636 143 636 24 l 636 258 q 599 347 636 325 q 500 368 575 363 l 500 400 l 953 400 l 953 368 z "},"H":{"ha":1110,"x_min":0,"x_max":993,"o":"m 993 0 l 536 0 l 536 35 q 634 60 611 35 q 657 161 657 86 l 657 446 l 335 446 l 335 161 q 361 63 335 90 q 457 35 388 35 l 457 0 l 0 0 l 0 35 q 93 65 67 35 q 119 161 119 94 l 119 765 q 95 861 119 836 q 1 886 71 886 l 1 919 l 457 919 l 457 886 q 360 861 386 886 q 335 765 335 836 l 335 506 l 657 506 l 657 765 q 632 860 657 835 q 536 886 607 886 l 536 919 l 993 919 l 993 886 q 901 858 928 886 q 874 765 874 831 l 874 161 q 901 65 874 94 q 993 35 928 35 l 993 0 z "},"I":{"ha":586,"x_min":0,"x_max":471,"o":"m 471 0 l 0 0 l 0 35 q 98 60 68 35 q 128 153 128 86 l 128 781 q 96 867 128 844 q 0 886 69 886 l 0 919 l 468 919 l 468 886 q 375 871 399 886 q 344 781 344 850 l 344 156 q 374 62 344 89 q 471 35 403 35 l 471 0 z "},"J":{"ha":749,"x_min":0,"x_max":640,"o":"m 640 886 q 538 850 560 886 q 521 739 521 825 l 521 179 q 447 -43 521 43 q 235 -133 368 -133 q 79 -89 147 -133 q 0 44 0 -39 q 26 121 0 90 q 97 151 53 151 q 165 123 139 151 q 190 53 190 94 q 175 5 190 35 q 160 -42 160 -25 q 182 -69 160 -58 q 219 -79 200 -79 q 303 42 303 -79 l 303 739 q 274 853 303 821 q 165 886 246 886 l 165 919 l 640 919 l 640 886 z "},"K":{"ha":1100,"x_min":0,"x_max":1017,"o":"m 1017 0 l 535 0 l 535 35 q 640 68 640 35 q 607 132 640 90 l 371 432 l 336 399 l 336 161 q 362 63 336 92 q 457 35 388 35 l 457 0 l 0 0 l 0 35 q 94 64 68 35 q 121 161 121 93 l 121 765 q 95 859 121 832 q 3 886 69 886 l 3 919 l 457 919 l 457 886 q 360 862 385 886 q 336 765 336 838 l 336 471 l 615 754 q 674 843 674 813 q 554 886 674 886 l 554 919 l 947 919 l 947 886 q 665 728 821 886 l 515 575 l 904 93 q 1017 35 951 35 l 1017 0 z "},"L":{"ha":878,"x_min":0,"x_max":831,"o":"m 831 313 l 779 0 l 0 0 l 0 35 q 93 67 67 40 q 119 161 119 94 l 119 765 q 95 860 119 835 q 1 886 71 886 l 1 919 l 472 919 l 472 886 q 365 865 392 886 q 335 765 335 842 l 335 167 q 342 93 335 111 q 400 56 354 61 q 447 54 418 54 q 667 121 582 54 q 794 313 742 181 l 831 313 z "},"M":{"ha":1333,"x_min":0,"x_max":1218,"o":"m 1218 886 q 1128 857 1153 886 q 1103 763 1103 828 l 1103 172 q 1117 67 1103 90 q 1215 35 1138 35 l 1215 0 l 768 0 l 768 35 q 865 63 843 35 q 888 167 888 90 l 888 806 l 551 0 l 515 0 l 182 785 l 182 160 q 211 62 182 89 q 313 35 240 35 l 313 0 l 0 0 l 0 35 q 122 160 122 35 l 122 771 q 94 860 122 835 q 1 886 65 886 l 1 919 l 344 919 l 610 288 l 876 919 l 1218 919 l 1218 886 z "},"N":{"ha":1043,"x_min":0,"x_max":933,"o":"m 933 885 q 838 859 863 885 q 814 761 814 833 l 814 -21 l 778 -21 l 178 707 l 178 157 q 203 60 178 85 q 300 35 228 35 l 300 0 l 0 0 l 0 35 q 92 63 67 35 q 118 158 118 92 l 118 782 q 69 849 75 843 q 0 886 36 886 l 0 919 l 279 919 l 753 340 l 753 761 q 728 858 753 832 q 632 885 703 885 l 632 919 l 933 919 l 933 885 z "},"O":{"ha":1067,"x_min":0,"x_max":940,"o":"m 471 942 q 810 806 679 942 q 940 461 940 669 q 808 115 940 250 q 465 -21 675 -21 q 129 114 258 -21 q 0 457 0 249 q 131 804 0 667 q 471 942 261 942 m 478 22 q 667 179 603 22 q 714 443 714 296 q 663 725 714 599 q 461 894 593 894 q 274 736 336 894 q 226 472 226 619 q 278 192 226 318 q 478 22 346 22 z "},"P":{"ha":908,"x_min":0,"x_max":794,"o":"m 794 672 q 686 474 794 543 q 457 415 594 415 l 335 415 l 335 161 q 361 63 335 92 q 457 35 388 33 l 457 0 l 0 0 l 0 35 q 93 65 67 35 q 119 161 119 94 l 119 765 q 95 861 119 835 q 1 886 71 888 l 1 919 l 400 919 q 663 881 575 919 q 794 672 794 824 m 557 625 q 538 788 557 736 q 411 871 504 871 q 354 860 369 871 q 335 804 335 846 l 335 464 l 367 464 q 508 492 469 464 q 557 625 557 526 z "},"Q":{"ha":1067,"x_min":0,"x_max":946,"o":"m 942 -183 q 696 -231 811 -231 q 319 0 438 -231 q 85 163 169 43 q 0 442 0 282 q 134 797 0 651 q 475 942 268 942 q 813 802 681 942 q 946 456 946 663 q 856 169 946 292 q 608 0 765 46 q 844 -160 690 -160 q 933 -149 886 -160 l 942 -183 m 481 22 q 669 179 607 22 q 715 442 715 294 q 665 724 715 597 q 464 894 596 894 q 276 738 339 894 q 229 474 229 621 q 281 192 229 318 q 481 22 349 22 z "},"R":{"ha":1039,"x_min":0,"x_max":939,"o":"m 939 0 l 650 0 l 375 428 l 335 428 l 335 161 q 361 63 335 90 q 457 35 388 35 l 457 0 l 0 0 l 0 35 q 119 161 119 33 l 119 765 q 94 854 119 832 q 1 886 69 876 l 1 919 l 406 919 q 669 875 567 919 q 810 672 810 813 q 744 529 810 588 q 604 450 699 489 l 839 101 q 939 35 879 40 l 939 0 m 581 739 q 532 840 581 804 q 419 871 488 871 q 349 853 364 871 q 335 778 335 835 l 335 472 q 540 525 494 472 q 581 739 581 574 z "},"S":{"ha":733,"x_min":0,"x_max":636,"o":"m 636 275 q 531 60 636 139 q 294 -11 435 -11 q 194 9 260 -11 q 96 29 129 29 q 36 -14 51 29 l 0 -14 l 0 326 l 39 326 q 124 131 61 208 q 306 36 197 36 q 424 78 374 36 q 475 186 475 119 q 356 338 475 274 q 132 453 244 396 q 13 679 13 539 q 94 873 13 796 q 294 950 176 950 q 401 926 332 950 q 506 903 469 903 q 558 949 550 903 l 597 949 l 597 651 l 563 651 q 472 826 543 756 q 294 901 397 901 q 194 868 235 901 q 153 775 153 835 q 278 625 153 690 q 511 504 394 564 q 636 275 636 415 z "},"T":{"ha":893,"x_min":0,"x_max":808,"o":"m 808 640 l 774 640 q 510 875 754 875 l 510 161 q 539 63 510 90 q 640 35 568 35 l 640 0 l 163 0 l 163 35 q 263 63 233 35 q 293 161 293 90 l 293 875 q 111 815 179 875 q 36 642 39 754 l 0 642 l 0 919 l 808 919 l 808 640 z "},"U":{"ha":1033,"x_min":0,"x_max":925,"o":"m 925 886 q 840 854 865 888 q 821 763 821 825 l 821 365 q 746 79 821 171 q 472 -24 663 -24 q 118 313 118 -24 l 118 765 q 93 861 118 835 q 0 886 68 888 l 0 919 l 456 919 l 456 886 q 360 861 386 888 q 333 765 333 835 l 333 331 q 365 135 333 200 q 528 43 411 43 q 761 322 761 43 l 761 763 q 734 863 761 838 q 631 886 707 888 l 631 919 l 925 919 l 925 886 z "},"V":{"ha":1003,"x_min":0,"x_max":918,"o":"m 918 885 q 840 850 869 885 q 799 772 821 828 l 489 -24 l 454 -24 l 115 768 q 0 885 65 885 l 0 919 l 451 919 l 451 885 q 335 831 335 885 q 351 764 335 806 l 547 289 l 729 763 q 743 822 743 799 q 631 885 743 885 l 631 919 l 918 919 l 918 885 z "},"W":{"ha":1383,"x_min":0,"x_max":1290,"o":"m 1290 885 q 1192 765 1229 878 l 929 -21 l 893 -21 l 668 622 l 413 -21 l 375 -21 l 96 793 q 0 885 64 885 l 0 919 l 394 919 l 394 885 q 313 824 313 885 q 328 751 313 797 l 479 308 l 638 713 q 596 831 603 818 q 492 885 565 885 l 492 919 l 917 919 l 917 885 q 824 831 824 885 q 835 778 824 810 l 988 335 l 1122 746 q 1138 821 1138 794 q 1046 885 1138 885 l 1046 919 l 1290 919 l 1290 885 z "},"X":{"ha":1008,"x_min":0,"x_max":915,"o":"m 915 0 l 461 0 l 461 35 q 565 79 565 35 q 532 160 565 107 l 403 368 l 257 163 q 229 94 229 124 q 331 35 229 35 l 331 0 l 0 0 l 0 35 q 161 133 90 35 l 369 421 l 135 779 q 82 850 101 831 q 6 885 47 885 l 6 919 l 471 919 l 471 885 q 361 842 361 885 q 429 710 361 814 q 514 585 471 647 l 629 754 q 664 835 664 804 q 571 885 664 885 l 571 919 l 903 919 l 903 885 q 699 754 789 885 l 546 533 l 813 115 q 915 35 864 35 l 915 0 z "},"Y":{"ha":999,"x_min":0,"x_max":914,"o":"m 914 885 q 799 789 857 885 l 568 408 l 568 161 q 594 63 568 92 q 688 35 619 35 l 688 0 l 231 0 l 231 35 q 324 64 297 35 q 350 161 350 93 l 350 361 l 119 779 q 0 885 67 876 l 0 919 l 444 919 l 444 885 q 339 840 339 885 q 356 789 339 821 l 528 454 l 699 738 q 728 819 728 786 q 622 885 728 885 l 622 919 l 914 919 l 914 885 z "},"Z":{"ha":907,"x_min":0,"x_max":815,"o":"m 815 331 l 781 0 l 0 0 l 0 21 l 515 867 l 390 867 q 192 814 263 867 q 82 639 121 761 l 47 639 l 74 919 l 778 919 l 778 894 l 267 58 l 442 58 q 663 128 581 58 q 781 331 738 193 l 815 331 z "},"[":{"ha":417,"x_min":0,"x_max":319,"o":"m 319 -201 l 0 -201 l 0 919 l 319 919 l 319 875 l 226 875 q 164 861 182 875 q 146 803 146 847 l 146 -76 q 244 -158 146 -158 q 283 -157 257 -158 q 319 -156 308 -156 l 319 -201 z "},"\\":{"ha":453,"x_min":0,"x_max":410,"o":"m 410 -125 l 307 -125 l 0 942 l 100 942 l 410 -125 z "},"]":{"ha":417,"x_min":0,"x_max":319,"o":"m 319 -201 l 0 -201 l 0 -154 q 34 -156 10 -154 q 71 -157 58 -157 q 172 -85 172 -157 l 172 797 q 75 878 172 878 q 38 876 63 878 q 0 875 13 875 l 0 919 l 319 919 l 319 -201 z "},"^":{"ha":406,"x_min":0,"x_max":406,"o":"m 0 681 l 153 876 l 253 876 l 406 681 l 349 681 l 203 789 l 57 681 l 0 681 z "},"_":{"ha":678,"x_min":0,"x_max":678,"o":"m 678 -265 l 0 -265 l 0 -128 l 678 -128 l 678 -265 z "},"`":{"ha":404,"x_min":76,"x_max":338,"o":"m 338 682 l 276 682 l 143 749 q 76 824 76 782 q 136 883 76 883 q 176 872 161 883 q 243 801 199 857 l 338 682 z "},"a":{"ha":729,"x_min":0,"x_max":624,"o":"m 624 54 q 471 -19 571 -19 q 363 71 374 -19 q 156 -17 281 -17 q 43 20 86 -17 q 0 126 0 57 q 131 307 0 238 q 360 383 204 344 l 360 486 q 254 596 360 596 q 204 586 231 596 q 169 554 169 574 q 188 511 169 540 q 206 465 206 482 q 178 408 206 429 q 115 386 151 386 q 49 413 74 386 q 24 481 24 439 q 122 608 24 561 q 292 647 201 647 q 474 593 403 647 q 551 425 551 533 l 551 126 q 572 69 551 69 q 606 85 586 69 l 624 54 m 381 126 l 381 340 q 265 283 310 326 q 215 167 215 235 q 232 101 215 129 q 288 68 251 68 q 381 126 332 68 z "},"b":{"ha":689,"x_min":-69,"x_max":604,"o":"m 350 643 q 542 547 472 643 q 604 335 604 461 q 529 92 604 192 q 308 -18 446 -18 q 126 56 215 -18 l 22 -21 l 1 -21 l 0 794 q -11 861 0 840 q -69 888 -26 888 l -69 919 l 194 919 l 194 565 q 350 643 267 643 m 289 565 q 226 542 257 565 q 194 489 194 519 l 194 136 q 283 26 194 26 q 390 138 354 26 q 415 306 415 215 q 392 464 415 392 q 289 565 358 565 z "},"c":{"ha":613,"x_min":0,"x_max":532,"o":"m 532 121 q 276 -18 429 -18 q 71 78 149 -18 q 0 300 0 168 q 82 540 0 443 q 308 643 168 643 q 446 608 388 643 q 517 494 517 567 q 495 433 517 457 q 436 410 474 410 q 363 457 378 410 q 354 553 354 479 q 297 597 354 597 q 204 514 235 597 q 181 378 181 454 q 221 186 181 271 q 367 76 272 76 q 506 144 439 76 l 532 121 z "},"d":{"ha":768,"x_min":0,"x_max":674,"o":"m 674 21 q 410 -18 532 11 l 410 76 q 244 -18 360 -18 q 57 86 125 -18 q 0 301 0 175 q 60 529 0 432 q 254 643 131 643 q 410 565 347 643 l 410 808 q 314 888 410 889 l 314 919 l 604 919 l 604 151 q 674 56 604 54 l 674 21 m 410 153 l 410 489 q 376 543 410 519 q 311 567 343 567 q 213 464 246 567 q 190 307 190 392 q 211 156 190 225 q 304 56 242 56 q 372 90 335 56 q 410 153 410 124 z "},"e":{"ha":638,"x_min":0,"x_max":535,"o":"m 535 147 q 275 -19 432 -19 q 69 88 147 -19 q 0 317 0 183 q 74 542 0 447 q 282 643 154 643 q 472 546 404 643 q 532 333 532 461 l 196 333 q 231 174 196 244 q 354 83 274 83 q 506 172 429 83 l 535 147 m 368 388 l 368 458 q 353 549 368 510 q 288 600 332 600 q 217 550 243 600 q 196 460 196 510 l 196 388 l 368 388 z "},"f":{"ha":506,"x_min":0,"x_max":501,"o":"m 501 803 q 476 742 501 767 q 415 718 451 718 q 343 794 343 718 q 356 839 343 814 q 368 874 368 864 q 355 888 368 882 q 333 894 342 894 q 265 788 265 894 l 265 625 l 379 625 l 379 558 l 265 558 l 265 147 q 281 60 265 79 q 371 33 301 33 l 371 0 l 0 0 l 0 33 q 63 61 47 33 q 74 132 74 81 l 74 558 l 1 558 l 1 625 l 74 625 l 74 713 q 141 877 74 815 q 313 939 208 939 q 438 907 383 939 q 501 803 501 869 z "},"g":{"ha":719,"x_min":0,"x_max":611,"o":"m 611 542 l 511 542 q 560 414 560 482 q 483 264 560 324 q 319 208 413 208 q 297 208 313 208 q 275 210 282 210 q 175 143 175 210 q 242 103 175 103 q 287 106 258 103 q 322 108 315 108 q 608 -56 608 108 q 489 -229 608 -169 q 268 -276 394 -276 q 106 -250 183 -276 q 0 -144 0 -214 q 110 -40 0 -71 q 19 72 19 7 q 175 222 19 168 q 13 422 13 283 q 103 588 13 526 q 290 643 182 643 q 397 629 340 643 q 442 615 418 622 q 611 615 442 615 l 611 542 m 288 251 q 361 313 336 251 q 378 417 378 357 q 360 528 378 475 q 288 601 335 601 q 214 538 239 601 q 196 432 196 490 q 214 321 196 372 q 288 251 239 251 m 503 -122 q 385 -58 503 -58 l 167 -58 q 118 -136 118 -92 q 190 -210 118 -185 q 303 -228 243 -228 q 426 -207 369 -228 q 503 -122 503 -178 z "},"h":{"ha":811,"x_min":0,"x_max":697,"o":"m 697 0 l 372 0 l 372 33 q 438 113 438 33 l 438 439 q 368 550 438 550 q 261 476 308 550 l 261 113 q 328 33 261 33 l 328 0 l 0 0 l 0 33 q 68 113 68 33 l 68 804 q 3 888 68 888 l 3 919 l 261 919 l 261 540 q 449 646 331 646 q 586 579 536 646 q 631 429 631 521 l 631 113 q 697 33 631 33 l 697 0 z "},"i":{"ha":439,"x_min":0,"x_max":326,"o":"m 168 731 q 94 759 122 731 q 65 832 65 788 q 94 907 65 878 q 168 936 124 936 q 241 906 213 936 q 269 832 269 876 q 241 759 269 788 q 168 731 213 731 m 326 0 l 0 0 l 0 33 q 68 113 68 33 l 68 508 q 4 593 68 593 l 4 625 l 260 625 l 260 113 q 326 33 260 33 l 326 0 z "},"j":{"ha":565,"x_min":-67,"x_max":367,"o":"m 258 733 q 185 762 214 733 q 157 835 157 790 q 185 910 157 881 q 258 939 214 939 q 331 910 303 939 q 360 835 360 881 q 331 762 360 790 q 258 733 303 733 m 367 -39 q 303 -212 367 -147 q 132 -278 239 -278 q 3 -244 60 -278 q -67 -139 -67 -206 q -43 -78 -67 -101 q 18 -54 -19 -54 q 72 -74 49 -54 q 96 -124 96 -93 q 81 -163 96 -135 q 67 -210 67 -192 q 107 -232 67 -232 q 172 -121 172 -232 l 172 503 q 88 594 172 594 l 88 625 l 367 625 l 367 -39 z "},"k":{"ha":819,"x_min":0,"x_max":722,"o":"m 722 0 l 389 0 l 389 33 q 446 61 446 33 q 376 179 446 81 q 292 296 335 238 l 260 271 l 260 113 q 326 33 260 33 l 326 0 l 0 0 l 0 33 q 68 113 68 33 l 68 803 q 4 888 68 888 l 6 919 l 260 919 l 260 339 l 422 499 q 456 556 456 532 q 379 593 456 593 l 379 625 l 660 625 l 660 593 q 521 532 593 593 q 413 421 467 476 l 661 69 q 722 33 686 33 l 722 0 z "},"l":{"ha":440,"x_min":0,"x_max":326,"o":"m 326 0 l 0 0 l 0 33 q 68 113 68 33 l 68 803 q 4 888 68 888 l 4 919 l 260 919 l 260 113 q 326 33 260 33 l 326 0 z "},"m":{"ha":1161,"x_min":0,"x_max":1047,"o":"m 1047 0 l 726 0 l 726 33 q 790 113 790 33 l 790 438 q 721 550 790 550 q 618 479 664 550 l 618 113 q 682 33 618 33 l 682 0 l 367 0 l 367 33 q 429 113 429 33 l 429 438 q 365 550 429 550 q 260 475 307 550 l 260 113 q 321 33 260 33 l 321 0 l 0 0 l 0 33 q 68 113 68 33 l 68 511 q 3 594 68 594 l 3 625 l 260 625 l 260 533 q 339 613 286 583 q 450 643 392 643 q 611 528 572 643 q 807 644 689 644 q 940 576 893 644 q 981 428 981 518 l 981 113 q 992 54 981 71 q 1047 33 1006 33 l 1047 0 z "},"n":{"ha":811,"x_min":0,"x_max":697,"o":"m 697 0 l 372 0 l 372 33 q 438 113 438 33 l 438 438 q 368 549 438 549 q 261 475 308 549 l 261 113 q 328 33 261 33 l 328 0 l 0 0 l 0 33 q 68 113 68 33 l 68 511 q 3 594 68 581 l 3 625 l 261 625 l 261 540 q 449 644 335 644 q 586 578 536 644 q 631 428 631 518 l 631 113 q 697 33 631 33 l 697 0 z "},"o":{"ha":707,"x_min":0,"x_max":594,"o":"m 297 -15 q 78 82 161 -15 q 0 313 0 175 q 78 544 0 451 q 297 643 161 643 q 517 544 433 643 q 594 313 594 451 q 517 82 594 175 q 297 -15 433 -15 m 299 25 q 389 140 360 25 q 410 313 410 219 q 390 482 410 403 q 297 603 360 603 q 207 488 236 603 q 188 315 188 408 q 207 142 188 222 q 299 25 238 25 z "},"p":{"ha":783,"x_min":0,"x_max":669,"o":"m 429 643 q 614 535 547 643 q 669 318 669 443 q 611 94 669 188 q 421 -17 543 -17 q 261 67 319 -17 l 261 -112 q 276 -208 261 -182 q 363 -243 299 -243 l 363 -276 l 0 -276 l 0 -246 q 69 -146 69 -246 l 69 490 q 63 563 69 547 q 3 593 50 593 l 3 624 l 251 624 l 251 529 q 429 643 313 643 m 364 560 q 261 474 304 560 l 261 140 q 360 58 304 58 q 456 163 424 58 q 479 318 479 235 q 458 464 479 399 q 364 560 428 560 z "},"q":{"ha":758,"x_min":0,"x_max":672,"o":"m 672 -276 l 308 -276 l 308 -243 q 408 -164 408 -244 l 408 58 q 253 -17 336 -17 q 63 74 131 -17 q 0 282 0 156 q 75 526 0 422 q 293 643 157 643 q 475 565 394 643 l 581 646 l 601 646 l 601 -164 q 672 -243 601 -244 l 672 -276 m 408 135 l 408 485 q 321 594 408 594 q 213 483 249 594 q 186 315 186 406 q 210 158 186 229 q 313 58 243 58 q 376 82 343 58 q 408 135 408 106 z "},"r":{"ha":635,"x_min":0,"x_max":546,"o":"m 460 447 q 392 485 422 447 q 346 522 361 522 q 281 474 304 522 q 261 388 261 435 l 261 113 q 360 33 261 33 l 360 0 l 0 0 l 0 33 q 68 113 68 33 l 68 508 q 4 593 68 593 l 4 625 l 257 625 l 257 507 q 442 642 328 642 q 517 612 488 642 q 546 536 546 582 q 522 472 546 497 q 460 447 499 447 z "},"s":{"ha":572,"x_min":0,"x_max":449,"o":"m 449 188 q 387 40 449 97 q 233 -17 325 -17 q 158 1 207 -17 q 83 18 110 18 q 31 -15 46 18 l 0 -15 l 0 211 l 36 211 q 96 88 51 138 q 217 32 146 32 q 286 53 256 32 q 317 113 317 75 q 235 222 317 176 q 85 303 160 263 q 3 447 3 360 q 65 588 3 532 q 213 643 128 643 q 283 628 238 643 q 350 614 329 614 q 393 643 378 614 l 421 643 l 421 446 l 389 446 q 331 549 371 507 q 225 596 285 596 q 165 575 190 596 q 140 519 140 554 q 221 422 140 467 q 368 338 368 338 q 449 188 449 276 z "},"t":{"ha":514,"x_min":0,"x_max":407,"o":"m 407 132 q 326 26 381 68 q 201 -18 268 -18 q 94 28 132 -18 q 57 144 57 74 l 57 563 l 0 563 l 0 606 q 218 857 160 754 l 249 857 l 249 625 l 378 625 l 378 563 l 249 563 l 249 165 q 294 79 249 79 q 375 151 340 79 l 407 132 z "},"u":{"ha":818,"x_min":0,"x_max":703,"o":"m 703 24 q 439 -18 599 24 l 439 79 q 249 -21 365 -21 q 113 46 160 -21 q 71 196 71 104 l 71 499 q 0 593 71 593 l 0 625 l 263 625 l 263 185 q 335 69 263 69 q 438 132 386 69 l 438 499 q 426 569 438 551 q 360 593 410 593 l 360 625 l 632 625 l 632 142 q 643 81 632 97 q 703 58 658 58 l 703 24 z "},"v":{"ha":714,"x_min":0,"x_max":618,"o":"m 618 594 q 560 558 583 594 q 529 492 550 543 l 326 -17 l 292 -17 l 79 499 q 53 560 57 553 q 0 593 32 593 l 0 625 l 335 625 l 335 593 q 263 561 263 593 q 314 404 263 538 q 378 244 346 324 q 440 397 410 321 q 489 546 489 519 q 413 594 489 594 l 413 625 l 618 625 l 618 594 z "},"w":{"ha":1015,"x_min":0,"x_max":917,"o":"m 917 594 q 850 519 881 594 l 633 -17 l 603 -17 l 468 397 l 301 -17 l 265 -17 l 54 533 q 0 593 31 593 l 0 625 l 299 625 l 299 593 q 247 557 247 593 q 260 508 247 542 l 356 256 l 446 475 q 421 553 433 514 q 358 594 400 594 l 358 625 l 671 625 l 671 593 q 611 563 611 593 q 621 519 611 547 l 697 285 q 756 422 726 353 q 801 560 801 535 q 738 594 801 594 l 738 625 l 917 625 l 917 594 z "},"x":{"ha":750,"x_min":0,"x_max":636,"o":"m 636 0 l 306 0 l 306 33 q 365 61 365 33 q 326 149 365 92 q 268 231 297 189 q 206 151 238 192 q 161 71 161 92 q 228 31 161 31 l 228 0 l 1 0 l 1 31 q 117 113 56 31 l 238 275 l 78 532 q 0 593 40 593 l 0 625 l 332 625 l 332 594 q 274 564 274 594 q 308 488 274 536 q 361 415 335 451 q 419 486 390 451 q 467 565 467 546 q 397 594 467 594 l 397 625 l 619 625 l 619 597 q 553 568 585 597 q 503 511 539 556 l 390 371 l 579 72 q 636 32 604 32 l 636 0 z "},"y":{"ha":718,"x_min":0,"x_max":619,"o":"m 619 593 q 536 490 574 593 l 339 -49 q 264 -201 300 -154 q 119 -276 207 -276 q 35 -246 71 -276 q 0 -167 0 -215 q 83 -75 0 -75 q 140 -94 115 -75 q 165 -143 165 -112 q 165 -154 165 -147 q 164 -165 164 -162 q 188 -194 164 -194 q 263 -119 228 -194 q 296 -8 292 -60 l 85 506 q 58 563 65 551 q 6 592 39 592 l 6 625 l 340 625 l 340 593 q 274 554 274 593 q 324 400 274 531 q 388 239 356 319 l 478 488 q 492 547 492 525 q 422 593 492 593 l 422 625 l 619 625 l 619 593 z "},"z":{"ha":664,"x_min":0,"x_max":532,"o":"m 532 217 l 515 0 l 0 0 l 0 29 l 314 581 l 235 581 q 64 436 85 581 l 26 436 l 38 625 l 529 625 l 529 588 l 229 49 q 400 76 346 49 q 497 217 471 114 l 532 217 z "},"{":{"ha":544,"x_min":0,"x_max":446,"o":"m 446 -160 q 250 -118 311 -160 q 178 57 178 -68 q 180 120 178 78 q 182 185 182 163 q 140 333 182 283 q 0 396 99 382 l 0 444 q 140 507 97 458 q 182 651 182 556 q 179 721 182 675 q 176 789 176 767 q 251 961 176 913 q 446 1001 311 1001 l 446 963 q 335 917 367 957 q 303 796 303 876 q 306 722 303 771 q 310 647 310 672 q 274 500 310 553 q 144 421 235 443 q 274 335 235 392 q 313 182 313 278 q 310 112 313 158 q 307 43 307 65 q 338 -74 307 -35 q 446 -121 369 -112 l 446 -160 z "},"|":{"ha":228,"x_min":0,"x_max":139,"o":"m 139 -231 l 0 -231 l 0 947 l 139 947 l 139 -231 z "},"}":{"ha":544,"x_min":0,"x_max":446,"o":"m 446 396 q 306 333 349 382 q 264 189 264 285 q 267 119 264 165 q 269 50 269 72 q 194 -121 269 -72 q 0 -160 133 -160 l 0 -121 q 114 -71 81 -115 q 143 51 143 -32 q 141 117 143 74 q 139 182 139 160 q 174 335 139 281 q 304 421 213 396 q 167 510 204 442 q 140 660 140 561 q 140 717 140 678 q 142 774 142 754 q 115 903 142 861 q 0 963 82 956 l 0 1001 q 193 963 133 1001 q 268 793 268 915 q 265 724 268 769 q 263 656 263 678 q 306 509 263 558 q 446 444 349 460 l 446 396 z "},"~":{"ha":500,"x_min":0,"x_max":421,"o":"m 421 917 q 276 750 399 750 q 190 781 251 750 q 106 813 129 813 q 44 753 64 813 l 0 753 q 143 919 22 919 q 229 889 168 919 q 314 858 290 858 q 376 917 357 858 l 421 917 z "},"Ä":{"ha":999,"x_min":0,"x_max":910,"o":"m 910 0 l 476 0 l 476 38 q 593 81 593 38 q 525 268 593 90 l 225 268 q 190 175 214 243 q 164 83 164 96 q 272 38 164 38 l 272 0 l 0 0 l 0 38 q 113 147 68 38 l 432 942 l 467 942 l 789 175 q 832 88 817 108 q 910 38 863 44 l 910 0 m 504 324 l 369 644 l 244 324 l 504 324 m 292 981 q 226 1008 251 981 q 200 1081 200 1036 q 226 1155 200 1125 q 292 1185 251 1185 q 359 1154 333 1185 q 385 1079 385 1124 q 359 1008 385 1035 q 292 981 333 981 m 604 981 q 538 1008 564 981 q 513 1081 513 1036 q 538 1155 513 1125 q 604 1185 564 1185 q 672 1154 646 1185 q 699 1079 699 1124 q 672 1008 699 1035 q 604 981 646 981 z "},"Å":{"ha":999,"x_min":0,"x_max":910,"o":"m 910 0 l 476 0 l 476 38 q 593 81 593 38 q 525 268 593 90 l 225 268 q 190 175 214 243 q 164 83 164 96 q 272 38 164 38 l 272 0 l 0 0 l 0 38 q 113 147 68 38 l 432 942 l 467 942 l 789 175 q 832 88 817 108 q 910 38 863 44 l 910 0 m 504 324 l 369 644 l 244 324 l 504 324 m 347 1083 q 376 1156 347 1126 q 447 1186 406 1186 q 519 1156 489 1186 q 549 1083 549 1126 q 519 1013 549 1042 q 447 983 489 983 q 376 1013 406 983 q 347 1083 347 1042 m 401 1085 q 447 1039 401 1039 q 481 1052 467 1039 q 494 1085 494 1065 q 481 1117 494 1104 q 447 1131 467 1131 q 415 1117 429 1131 q 401 1085 401 1104 z "},"Ç":{"ha":893,"x_min":0,"x_max":846,"o":"m 846 179 q 683 32 788 85 q 463 -21 578 -21 q 128 115 256 -21 q 0 458 0 251 q 129 805 0 668 q 467 942 258 942 q 597 911 513 942 q 724 881 682 881 q 790 942 779 881 l 826 942 l 826 622 l 792 622 q 676 810 754 735 q 479 894 589 894 q 281 744 349 894 q 228 481 228 629 q 286 201 228 324 q 500 46 360 46 q 674 94 588 46 q 808 214 756 140 l 846 179 m 332 -231 l 360 -171 q 401 -197 381 -185 q 471 -211 431 -211 q 529 -156 529 -211 q 511 -122 529 -129 q 458 -117 500 -117 q 419 -121 440 -117 l 419 0 l 467 0 l 467 -62 q 517 -58 500 -58 q 638 -154 638 -58 q 482 -276 638 -276 q 332 -231 415 -276 z "},"É":{"ha":926,"x_min":0,"x_max":842,"o":"m 842 289 l 786 0 l 0 0 l 0 35 q 97 61 68 35 q 126 156 126 88 l 126 746 q 103 850 126 818 q 7 886 76 888 l 7 919 l 778 919 l 778 646 l 747 646 q 653 825 731 774 q 451 869 586 869 q 368 860 385 869 q 342 783 342 844 l 342 494 q 556 696 556 494 l 588 696 l 588 238 l 553 238 q 342 449 553 449 l 342 149 q 411 56 342 56 q 650 104 560 56 q 804 289 753 160 l 842 289 m 318 985 l 379 985 l 513 1051 q 579 1126 579 1085 q 519 1186 579 1186 q 479 1176 494 1186 q 413 1104 457 1161 l 318 985 z "},"Ñ":{"ha":1043,"x_min":0,"x_max":933,"o":"m 933 885 q 838 859 863 885 q 814 761 814 833 l 814 -21 l 778 -21 l 178 707 l 178 157 q 203 60 178 85 q 300 35 228 35 l 300 0 l 0 0 l 0 35 q 92 63 67 35 q 118 158 118 92 l 118 782 q 69 850 75 844 q 0 886 36 886 l 0 919 l 279 919 l 753 340 l 753 761 q 728 858 753 832 q 632 885 703 885 l 632 919 l 933 919 l 933 885 m 668 1150 q 524 983 644 983 q 438 1015 499 983 q 353 1046 376 1046 q 292 986 311 1046 l 247 986 q 390 1153 269 1153 q 476 1122 414 1153 q 561 1092 538 1092 q 624 1150 603 1092 l 668 1150 z "},"Ö":{"ha":1067,"x_min":0,"x_max":942,"o":"m 471 942 q 810 806 679 942 q 942 461 942 669 q 809 115 942 250 q 465 -21 676 -21 q 129 114 258 -21 q 0 457 0 249 q 131 804 0 667 q 471 942 263 942 m 478 22 q 667 179 604 22 q 714 444 714 296 q 663 725 714 599 q 461 894 593 894 q 274 738 336 894 q 226 474 226 621 q 278 192 226 318 q 478 22 346 22 m 310 986 q 244 1015 269 986 q 218 1088 218 1043 q 244 1161 218 1132 q 310 1190 269 1190 q 377 1160 351 1190 q 403 1086 403 1131 q 377 1014 403 1042 q 310 986 351 986 m 622 986 q 556 1015 582 986 q 531 1088 531 1043 q 556 1161 531 1132 q 622 1190 582 1190 q 690 1160 664 1190 q 715 1086 715 1131 q 690 1014 715 1042 q 622 986 664 986 z "},"Ü":{"ha":1033,"x_min":0,"x_max":925,"o":"m 925 886 q 842 854 865 888 q 821 763 821 826 l 821 365 q 746 79 821 171 q 472 -24 663 -24 q 118 313 118 -24 l 118 765 q 93 861 118 835 q 0 886 68 888 l 0 919 l 456 919 l 456 886 q 360 861 386 888 q 333 765 333 835 l 333 331 q 365 135 333 200 q 528 43 411 43 q 761 322 761 43 l 761 763 q 734 863 761 838 q 631 886 707 888 l 631 919 l 925 919 l 925 886 m 338 983 q 270 1012 296 983 q 244 1085 244 1040 q 270 1158 244 1129 q 338 1188 296 1188 q 404 1158 378 1188 q 431 1083 431 1128 q 404 1011 431 1039 q 338 983 378 983 m 650 983 q 584 1012 610 983 q 558 1085 558 1040 q 584 1158 558 1129 q 650 1188 610 1188 q 717 1158 690 1188 q 743 1083 743 1128 q 717 1011 743 1039 q 650 983 692 983 z "},"á":{"ha":729,"x_min":0,"x_max":624,"o":"m 624 54 q 471 -19 572 -19 q 363 71 374 -19 q 156 -17 282 -17 q 43 20 86 -17 q 0 126 0 57 q 131 307 0 238 q 360 383 204 346 l 360 486 q 256 596 360 596 q 204 588 231 596 q 169 554 169 575 q 188 511 169 540 q 206 465 206 482 q 178 408 206 431 q 115 386 151 386 q 49 413 74 386 q 24 481 24 439 q 122 610 24 561 q 292 647 201 647 q 474 593 403 647 q 551 425 551 533 l 551 126 q 574 69 551 69 q 606 85 586 69 l 624 54 m 381 126 l 381 340 q 265 283 310 326 q 215 167 215 235 q 232 101 215 129 q 288 68 253 68 q 381 126 332 68 m 265 711 l 326 711 l 460 778 q 526 853 526 811 q 467 913 526 913 q 426 903 442 913 q 360 831 404 888 l 265 711 z "},"à":{"ha":729,"x_min":0,"x_max":624,"o":"m 624 54 q 471 -19 572 -19 q 363 71 374 -19 q 156 -17 282 -17 q 43 20 86 -17 q 0 126 0 57 q 131 307 0 238 q 360 383 204 346 l 360 486 q 256 596 360 596 q 204 588 231 596 q 169 554 169 575 q 188 511 169 540 q 206 465 206 482 q 178 408 206 431 q 115 386 151 386 q 49 413 74 386 q 24 481 24 439 q 122 610 24 561 q 292 647 201 647 q 474 593 403 647 q 551 425 551 533 l 551 126 q 574 69 551 69 q 606 85 586 69 l 624 54 m 381 126 l 381 340 q 265 283 310 326 q 215 167 215 235 q 232 101 215 129 q 288 68 253 68 q 381 126 332 68 m 315 713 l 254 713 l 121 779 q 54 854 54 813 q 114 914 54 914 q 154 903 139 914 q 221 832 176 888 l 315 713 z "},"â":{"ha":729,"x_min":0,"x_max":624,"o":"m 624 54 q 471 -19 572 -19 q 363 71 374 -19 q 156 -17 282 -17 q 43 20 86 -17 q 0 126 0 57 q 131 307 0 238 q 360 383 204 346 l 360 486 q 256 596 360 596 q 204 588 231 596 q 169 554 169 575 q 188 511 169 540 q 206 465 206 482 q 178 408 206 431 q 115 386 151 386 q 49 413 74 386 q 24 481 24 439 q 122 610 24 561 q 292 647 201 647 q 474 593 403 647 q 551 425 551 533 l 551 126 q 574 69 551 69 q 606 85 586 69 l 624 54 m 381 126 l 381 340 q 265 283 310 326 q 215 167 215 235 q 232 101 215 129 q 288 68 253 68 q 381 126 332 68 m 103 713 l 256 908 l 356 908 l 508 713 l 451 713 l 306 821 l 160 713 l 103 713 z "},"ä":{"ha":729,"x_min":0,"x_max":624,"o":"m 624 54 q 471 -19 572 -19 q 363 71 374 -19 q 156 -17 282 -17 q 43 20 86 -17 q 0 126 0 57 q 131 307 0 238 q 360 383 204 346 l 360 486 q 256 596 360 596 q 204 588 231 596 q 169 554 169 575 q 188 511 169 540 q 206 465 206 482 q 178 408 206 431 q 115 386 151 386 q 49 413 74 386 q 24 481 24 439 q 122 610 24 561 q 292 647 201 647 q 474 593 403 647 q 551 425 551 533 l 551 126 q 574 69 551 69 q 606 85 586 69 l 624 54 m 381 126 l 381 340 q 265 283 310 326 q 215 167 215 235 q 232 101 215 129 q 288 68 253 68 q 381 126 332 68 m 143 713 q 76 741 101 713 q 50 814 50 769 q 76 888 50 858 q 143 917 101 917 q 210 887 183 917 q 236 813 236 857 q 210 740 236 768 q 143 713 183 713 m 456 713 q 388 741 414 713 q 363 814 363 769 q 389 888 363 858 q 456 917 415 917 q 522 887 496 917 q 549 813 549 857 q 523 740 549 768 q 456 713 497 713 z "},"ã":{"ha":729,"x_min":0,"x_max":624,"o":"m 624 54 q 471 -19 572 -19 q 363 71 374 -19 q 156 -17 282 -17 q 43 20 86 -17 q 0 126 0 57 q 131 307 0 238 q 360 383 204 346 l 360 486 q 256 596 360 596 q 204 588 231 596 q 169 554 169 575 q 188 511 169 540 q 206 465 206 482 q 178 408 206 431 q 115 386 151 386 q 49 413 74 386 q 24 481 24 439 q 122 610 24 561 q 292 647 201 647 q 474 593 403 647 q 551 425 551 533 l 551 126 q 574 69 551 69 q 606 85 586 69 l 624 54 m 381 126 l 381 340 q 265 283 310 326 q 215 167 215 235 q 232 101 215 129 q 288 68 253 68 q 381 126 332 68 m 513 876 q 368 710 490 710 q 283 741 344 710 q 197 772 222 772 q 136 713 157 772 l 92 713 q 235 879 115 879 q 321 849 260 879 q 406 818 382 818 q 468 876 449 818 l 513 876 z "},"å":{"ha":729,"x_min":0,"x_max":624,"o":"m 624 54 q 471 -19 572 -19 q 363 71 374 -19 q 156 -17 282 -17 q 43 20 86 -17 q 0 126 0 57 q 131 307 0 238 q 360 383 204 346 l 360 486 q 256 596 360 596 q 204 588 231 596 q 169 554 169 575 q 188 511 169 540 q 206 465 206 482 q 178 408 206 431 q 115 386 151 386 q 49 413 74 386 q 24 481 24 439 q 122 610 24 561 q 292 647 201 647 q 474 593 403 647 q 551 425 551 533 l 551 126 q 574 69 551 69 q 606 85 586 69 l 624 54 m 381 126 l 381 340 q 265 283 310 326 q 215 167 215 235 q 232 101 215 129 q 288 68 253 68 q 381 126 332 68 m 203 815 q 232 887 203 857 q 303 917 261 917 q 376 887 346 917 q 406 815 406 857 q 376 743 406 772 q 303 714 346 714 q 233 743 263 714 q 203 815 203 772 m 258 815 q 304 769 258 769 q 336 783 322 769 q 350 815 350 796 q 336 848 350 835 q 304 861 322 861 q 272 848 285 861 q 258 815 258 835 z "},"ç":{"ha":613,"x_min":0,"x_max":533,"o":"m 533 121 q 278 -18 429 -18 q 71 78 149 -18 q 0 300 0 168 q 82 540 0 443 q 310 643 168 643 q 447 608 388 643 q 518 494 518 568 q 496 434 518 458 q 438 410 474 410 q 363 457 378 410 q 356 553 356 479 q 299 597 356 597 q 204 514 235 597 q 181 378 181 454 q 221 186 181 271 q 368 76 272 76 q 507 144 439 76 l 533 121 m 164 -231 l 192 -171 q 233 -197 213 -185 q 303 -211 263 -211 q 361 -156 361 -211 q 347 -123 361 -129 q 290 -117 332 -117 q 251 -121 272 -117 l 251 0 l 299 0 l 299 -62 q 349 -58 332 -58 q 469 -154 469 -58 q 314 -276 469 -276 q 164 -231 247 -276 z "},"é":{"ha":638,"x_min":0,"x_max":535,"o":"m 535 147 q 275 -19 433 -19 q 69 88 147 -19 q 0 317 0 183 q 75 542 0 449 q 282 643 154 643 q 472 546 404 643 q 532 333 532 461 l 196 333 q 231 174 196 244 q 354 83 274 83 q 506 172 429 83 l 535 147 m 368 388 l 368 458 q 353 549 368 510 q 288 601 332 601 q 217 550 243 601 q 196 460 196 510 l 196 388 l 368 388 m 253 711 l 314 711 l 447 778 q 514 853 514 811 q 454 913 514 913 q 414 901 429 913 q 347 831 392 886 l 253 711 z "},"è":{"ha":638,"x_min":0,"x_max":535,"o":"m 535 147 q 275 -19 433 -19 q 69 88 147 -19 q 0 317 0 183 q 75 542 0 449 q 282 643 154 643 q 472 546 404 643 q 532 333 532 461 l 196 333 q 231 174 196 244 q 354 83 274 83 q 506 172 429 83 l 535 147 m 368 388 l 368 458 q 353 549 368 510 q 288 601 332 601 q 217 550 243 601 q 196 460 196 510 l 196 388 l 368 388 m 324 711 l 263 711 l 129 778 q 63 853 63 811 q 122 913 63 913 q 163 903 147 913 q 229 831 185 888 l 324 711 z "},"ê":{"ha":638,"x_min":0,"x_max":535,"o":"m 535 147 q 275 -19 433 -19 q 69 88 147 -19 q 0 317 0 183 q 75 542 0 449 q 282 643 154 643 q 472 546 404 643 q 532 333 532 461 l 196 333 q 231 174 196 244 q 354 83 274 83 q 506 172 429 83 l 535 147 m 368 388 l 368 458 q 353 549 368 510 q 288 601 332 601 q 217 550 243 601 q 196 460 196 510 l 196 388 l 368 388 m 82 713 l 235 908 l 335 908 l 488 713 l 431 713 l 285 821 l 139 713 l 82 713 z "},"ë":{"ha":638,"x_min":0,"x_max":535,"o":"m 535 147 q 275 -19 433 -19 q 69 88 147 -19 q 0 317 0 183 q 75 542 0 449 q 282 643 154 643 q 472 546 404 643 q 532 333 532 461 l 196 333 q 231 174 196 244 q 354 83 274 83 q 506 172 429 83 l 535 147 m 368 388 l 368 458 q 353 549 368 510 q 288 601 332 601 q 217 550 243 601 q 196 460 196 510 l 196 388 l 368 388 m 128 711 q 62 740 88 711 q 36 813 36 768 q 62 886 36 857 q 128 915 88 915 q 195 885 169 915 q 221 811 221 856 q 195 739 221 767 q 128 711 169 711 m 440 711 q 374 740 400 711 q 349 813 349 768 q 374 886 349 857 q 440 915 400 915 q 508 885 482 915 q 535 811 535 856 q 508 739 535 767 q 440 711 482 711 z "},"í":{"ha":439,"x_min":3,"x_max":379,"o":"m 329 0 l 3 0 l 3 33 q 71 113 71 33 l 71 508 q 7 593 71 593 l 7 625 l 263 625 l 263 113 q 329 33 263 33 l 329 0 m 118 711 l 179 711 l 313 779 q 379 854 379 813 q 319 914 379 914 q 279 903 294 914 q 213 832 257 888 l 118 711 z "},"ì":{"ha":439,"x_min":-74,"x_max":326,"o":"m 326 0 l -1 0 l -1 33 q 67 113 67 33 l 67 508 q 3 593 67 593 l 3 625 l 258 625 l 258 113 q 326 33 258 33 l 326 0 m 188 713 l 126 713 l -7 779 q -74 854 -74 813 q -14 914 -74 914 q 28 903 11 914 q 93 832 50 888 l 188 713 z "},"î":{"ha":439,"x_min":-50,"x_max":356,"o":"m 329 0 l 3 0 l 3 33 q 71 113 71 33 l 71 508 q 7 593 71 593 l 7 625 l 263 625 l 263 113 q 329 33 263 33 l 329 0 m -50 713 l 103 908 l 203 908 l 356 713 l 299 713 l 153 821 l 7 713 l -50 713 z "},"ï":{"ha":439,"x_min":-100,"x_max":399,"o":"m 326 0 l 0 0 l 0 33 q 68 113 68 33 l 68 508 q 4 593 68 593 l 4 625 l 260 625 l 260 113 q 326 33 260 33 l 326 0 m -7 713 q -74 741 -49 713 q -100 813 -100 769 q -74 887 -100 857 q -7 917 -49 917 q 60 887 33 917 q 86 813 86 857 q 60 740 86 768 q -7 713 33 713 m 306 713 q 239 741 264 713 q 214 813 214 769 q 240 887 214 857 q 306 917 265 917 q 372 887 346 917 q 399 813 399 857 q 373 740 399 768 q 306 713 347 713 z "},"ñ":{"ha":811,"x_min":0,"x_max":697,"o":"m 697 0 l 372 0 l 372 33 q 438 113 438 33 l 438 438 q 368 550 438 550 q 261 475 310 550 l 261 113 q 328 33 261 33 l 328 0 l 0 0 l 0 33 q 68 113 68 33 l 68 511 q 3 594 68 581 l 3 625 l 261 625 l 261 540 q 450 644 335 644 q 586 578 538 644 q 631 428 631 519 l 631 113 q 697 33 631 33 l 697 0 m 496 878 q 351 711 474 711 q 266 742 328 711 q 181 774 204 774 q 119 714 139 774 l 75 714 q 218 881 97 881 q 304 850 243 881 q 389 819 365 819 q 451 878 432 819 l 496 878 z "},"ó":{"ha":707,"x_min":0,"x_max":596,"o":"m 297 -15 q 78 82 161 -15 q 0 314 0 175 q 78 544 0 451 q 297 643 161 643 q 517 544 433 643 q 596 314 596 451 q 517 82 596 175 q 297 -15 433 -15 m 299 25 q 390 140 360 25 q 410 313 410 219 q 390 483 410 403 q 297 603 361 603 q 207 488 236 603 q 188 317 188 408 q 207 142 188 222 q 299 25 238 25 m 272 711 l 333 711 l 467 778 q 533 853 533 811 q 474 913 533 913 q 433 901 449 913 q 367 831 411 886 l 272 711 z "},"ò":{"ha":707,"x_min":0,"x_max":596,"o":"m 297 -15 q 78 82 161 -15 q 0 314 0 175 q 78 544 0 451 q 297 643 161 643 q 517 544 433 643 q 596 314 596 451 q 517 82 596 175 q 297 -15 433 -15 m 299 25 q 390 140 360 25 q 410 313 410 219 q 390 483 410 403 q 297 603 361 603 q 207 488 236 603 q 188 317 188 408 q 207 142 188 222 q 299 25 238 25 m 343 713 l 282 713 l 149 779 q 82 854 82 813 q 142 914 82 914 q 182 903 167 914 q 249 832 204 888 l 343 713 z "},"ô":{"ha":707,"x_min":0,"x_max":596,"o":"m 297 -15 q 78 82 161 -15 q 0 314 0 175 q 78 544 0 451 q 297 643 161 643 q 517 544 433 643 q 596 314 596 451 q 517 82 596 175 q 297 -15 433 -15 m 299 25 q 390 140 360 25 q 410 313 410 219 q 390 483 410 403 q 297 603 361 603 q 207 488 236 603 q 188 317 188 408 q 207 142 188 222 q 299 25 238 25 m 97 711 l 250 907 l 350 907 l 503 711 l 446 711 l 300 819 l 154 711 l 97 711 z "},"ö":{"ha":707,"x_min":0,"x_max":596,"o":"m 297 -15 q 78 82 161 -15 q 0 314 0 175 q 78 544 0 451 q 297 643 161 643 q 517 544 433 643 q 596 314 596 451 q 517 82 596 175 q 297 -15 433 -15 m 299 25 q 390 140 360 25 q 410 313 410 219 q 390 483 410 403 q 297 603 361 603 q 207 488 236 603 q 188 317 188 408 q 207 142 188 222 q 299 25 238 25 m 151 708 q 85 737 111 708 q 60 810 60 765 q 85 883 60 853 q 151 913 111 913 q 219 883 193 913 q 244 808 244 853 q 219 736 244 764 q 151 708 193 708 m 464 708 q 398 737 424 708 q 372 810 372 765 q 398 883 372 853 q 464 913 424 913 q 532 883 506 913 q 558 808 558 853 q 532 736 558 764 q 464 708 506 708 z "},"õ":{"ha":707,"x_min":0,"x_max":596,"o":"m 297 -15 q 78 82 161 -15 q 0 314 0 175 q 78 544 0 451 q 297 643 161 643 q 517 544 433 643 q 596 314 596 451 q 517 82 596 175 q 297 -15 433 -15 m 299 25 q 390 140 360 25 q 410 313 410 219 q 390 483 410 403 q 297 603 361 603 q 207 488 236 603 q 188 317 188 408 q 207 142 188 222 q 299 25 238 25 m 501 875 q 357 708 478 708 q 271 740 332 708 q 186 771 210 771 q 125 711 144 771 l 81 711 q 224 878 103 878 q 310 847 249 878 q 394 817 371 817 q 457 875 436 817 l 501 875 z "},"ú":{"ha":818,"x_min":0,"x_max":703,"o":"m 703 24 q 439 -18 599 24 l 439 79 q 249 -21 365 -21 q 113 46 160 -21 q 71 196 71 104 l 71 499 q 0 593 71 594 l 0 625 l 263 625 l 263 185 q 335 69 263 69 q 438 132 386 69 l 438 499 q 426 569 438 551 q 360 593 410 593 l 360 625 l 632 625 l 632 142 q 644 81 632 97 q 703 58 658 58 l 703 24 m 304 713 l 365 713 l 499 779 q 565 854 565 813 q 506 914 565 914 q 465 903 481 914 q 399 832 443 888 l 304 713 z "},"ù":{"ha":818,"x_min":0,"x_max":703,"o":"m 703 24 q 439 -18 599 24 l 439 79 q 249 -21 365 -21 q 113 46 160 -21 q 71 196 71 104 l 71 499 q 0 593 71 594 l 0 625 l 263 625 l 263 185 q 335 69 263 69 q 438 132 386 69 l 438 499 q 426 569 438 551 q 360 593 410 593 l 360 625 l 632 625 l 632 142 q 644 81 632 97 q 703 58 658 58 l 703 24 m 369 710 l 308 710 l 175 776 q 108 851 108 810 q 168 911 108 911 q 208 901 193 911 q 275 829 231 886 l 369 710 z "},"û":{"ha":818,"x_min":0,"x_max":703,"o":"m 703 24 q 439 -18 599 24 l 439 79 q 249 -21 365 -21 q 113 46 160 -21 q 71 196 71 104 l 71 499 q 0 593 71 594 l 0 625 l 263 625 l 263 185 q 335 69 263 69 q 438 132 386 69 l 438 499 q 426 569 438 551 q 360 593 410 593 l 360 625 l 632 625 l 632 142 q 644 81 632 97 q 703 58 658 58 l 703 24 m 128 710 l 281 906 l 381 906 l 533 710 l 476 710 l 331 818 l 185 710 l 128 710 z "},"ü":{"ha":818,"x_min":0,"x_max":703,"o":"m 703 24 q 439 -18 599 24 l 439 79 q 249 -21 365 -21 q 113 46 160 -21 q 71 196 71 104 l 71 499 q 0 593 71 594 l 0 625 l 263 625 l 263 185 q 335 69 263 69 q 438 132 386 69 l 438 499 q 426 569 438 551 q 360 593 410 593 l 360 625 l 632 625 l 632 142 q 644 81 632 97 q 703 58 658 58 l 703 24 m 172 710 q 105 738 131 710 q 79 810 79 765 q 105 884 79 854 q 172 914 131 914 q 239 884 213 914 q 265 810 265 854 q 240 738 265 765 q 172 710 214 710 m 485 710 q 419 738 444 710 q 393 810 393 765 q 419 884 393 854 q 485 914 444 914 q 552 884 526 914 q 578 810 578 854 q 552 738 578 765 q 485 710 526 710 z "},"†":{"ha":694,"x_min":56,"x_max":639,"o":"m 329 -212 q 260 368 318 133 q 329 615 329 479 q 225 585 288 614 q 133 556 163 556 q 56 629 56 556 q 79 684 56 663 q 138 706 103 706 q 228 678 167 706 q 329 650 290 651 l 329 665 q 299 797 329 722 q 269 889 269 871 q 292 943 269 922 q 347 964 314 964 q 404 944 382 964 q 426 890 426 924 q 397 801 426 879 q 367 663 367 722 l 367 650 l 369 650 q 472 677 413 650 q 560 704 532 704 q 639 631 639 704 q 560 554 639 554 q 466 583 529 554 q 365 614 403 611 q 438 368 374 457 q 371 -212 371 138 l 329 -212 z "},"°":{"ha":390,"x_min":0,"x_max":307,"o":"m 153 919 q 269 871 226 919 q 307 765 307 828 q 268 657 307 701 q 153 608 226 608 q 39 657 81 608 q 0 764 0 700 q 40 873 0 826 q 153 919 81 919 m 153 686 q 213 709 192 686 q 233 764 233 732 q 212 820 233 796 q 153 844 190 844 q 97 820 118 844 q 76 764 76 796 q 97 709 76 732 q 153 686 117 686 z "},"¢":{"ha":613,"x_min":0,"x_max":532,"o":"m 532 121 q 276 -18 429 -18 q 71 78 149 -18 q 0 300 0 168 q 82 540 0 443 q 308 643 168 643 q 446 608 388 643 q 517 494 517 567 q 495 433 517 457 q 436 410 474 410 q 363 457 378 410 q 354 553 354 479 q 297 597 354 597 q 204 514 235 597 q 181 378 181 454 q 221 186 181 271 q 367 76 272 76 q 506 144 439 76 l 532 121 m 449 797 l 168 -136 l 101 -136 l 381 797 l 449 797 z "},"£":{"ha":729,"x_min":0,"x_max":619,"o":"m 35 518 l 143 518 q 129 646 129 586 q 397 935 129 935 q 533 897 476 935 q 601 778 601 854 q 569 707 601 738 q 501 676 538 676 q 424 801 424 676 q 426 835 424 817 q 410 875 428 860 q 369 890 393 890 q 297 793 297 890 q 317 657 297 747 q 344 518 340 550 l 500 518 l 500 414 l 353 414 q 357 356 357 386 q 328 188 357 269 q 467 158 413 158 q 590 254 569 158 l 619 254 q 572 57 619 132 q 449 -18 525 -18 q 281 65 368 -18 q 126 -17 218 -17 q 31 18 65 -17 q 0 96 0 49 q 39 186 0 149 q 151 229 81 229 q 224 218 185 229 q 203 318 224 260 q 171 414 172 406 l 35 414 l 35 518 m 126 163 q 74 142 92 163 q 56 94 56 122 q 76 44 56 65 q 132 24 96 22 q 194 52 167 25 q 226 115 222 79 q 126 163 194 163 z "},"§":{"ha":694,"x_min":7,"x_max":604,"o":"m 429 171 q 538 -22 538 71 q 467 -157 538 -106 q 279 -208 397 -208 q 118 -163 182 -208 q 54 -49 54 -118 q 83 28 54 -1 q 160 57 113 57 q 225 31 199 57 q 251 -33 251 6 q 230 -90 251 -64 q 208 -114 208 -115 q 224 -139 208 -126 q 281 -157 244 -157 q 358 -126 329 -157 q 385 -61 385 -100 q 308 54 385 -14 q 131 208 293 68 q 7 413 7 317 q 55 535 7 486 q 182 597 103 585 q 74 785 74 696 q 139 925 74 872 q 317 978 204 978 q 472 933 411 978 q 533 818 533 889 q 506 743 533 772 q 433 714 479 714 q 364 738 392 714 q 336 799 336 763 q 358 856 336 828 q 379 882 379 883 q 364 907 379 893 q 315 926 344 926 q 249 899 274 926 q 225 836 225 871 q 258 756 225 797 q 360 661 286 722 l 481 560 q 604 350 604 456 q 557 232 604 281 q 429 171 510 183 m 367 447 q 224 536 267 536 q 121 492 121 536 q 235 332 121 431 q 385 233 349 233 q 490 278 490 233 q 367 447 490 339 z "},"•":{"ha":788,"x_min":4,"x_max":685,"o":"m 685 421 q 587 177 685 279 q 349 75 489 75 q 105 177 206 75 q 4 421 4 279 q 103 663 4 564 q 344 763 203 763 q 585 663 486 763 q 685 421 685 564 z "},"¶":{"ha":681,"x_min":-10,"x_max":632,"o":"m 632 989 l 542 989 l 542 -258 l 492 -258 l 492 989 l 365 989 l 365 -258 l 317 -258 l 317 515 q 88 569 165 521 q -10 772 -10 632 q 83 967 -10 899 q 296 1026 164 1026 l 632 1026 l 632 989 z "},"ß":{"ha":764,"x_min":25,"x_max":714,"o":"m 25 0 l 25 36 q 92 74 78 39 q 99 157 99 93 l 99 690 q 176 888 99 817 q 382 960 254 960 q 564 913 489 960 q 651 754 651 856 q 450 547 651 592 q 714 267 714 504 q 647 67 714 149 q 461 -22 576 -22 q 360 6 394 -22 l 381 51 q 428 33 406 33 q 508 139 492 33 q 514 293 514 175 q 493 447 514 401 q 368 518 460 518 l 368 567 q 461 625 440 567 q 471 747 471 654 q 458 860 471 824 q 374 918 436 918 q 296 861 314 918 q 286 753 286 831 l 286 0 l 25 0 z "},"®":{"ha":1165,"x_min":1,"x_max":1081,"o":"m 838 232 l 660 232 l 490 496 l 465 496 l 465 331 q 481 270 465 288 q 540 253 497 253 l 540 232 l 260 232 l 260 253 q 333 331 333 253 l 333 703 q 318 757 333 743 q 260 776 303 771 l 260 797 l 508 797 q 757 646 757 797 q 631 508 757 560 l 775 294 q 838 253 800 257 l 838 232 m 617 686 q 518 768 617 768 q 474 756 482 768 q 465 710 465 744 l 465 522 q 592 556 564 522 q 617 686 617 585 m 540 -17 q 160 135 318 -17 q 1 501 1 288 q 160 869 1 717 q 540 1021 318 1021 q 922 869 764 1021 q 1081 501 1081 717 q 922 135 1081 288 q 540 -17 764 -17 m 540 929 q 226 804 357 929 q 96 501 96 679 q 226 199 96 325 q 540 74 357 74 q 856 199 725 74 q 986 501 986 325 q 856 804 986 679 q 540 929 725 929 z "},"©":{"ha":1143,"x_min":0,"x_max":1079,"o":"m 803 315 q 694 217 764 253 q 549 182 625 182 q 326 273 411 182 q 240 501 240 364 q 326 732 240 640 q 551 824 413 824 q 638 803 582 824 q 721 782 694 782 q 767 824 760 782 l 790 824 l 790 611 l 767 611 q 690 735 742 686 q 560 792 632 792 q 426 692 472 792 q 392 517 392 615 q 431 331 392 411 q 574 226 479 226 q 689 258 631 226 q 778 339 743 290 l 803 315 m 539 -17 q 158 135 317 -17 q 0 501 0 288 q 158 869 0 717 q 539 1021 317 1021 q 921 869 763 1021 q 1079 501 1079 717 q 921 135 1079 288 q 539 -17 763 -17 m 539 929 q 225 804 356 929 q 94 501 94 679 q 225 199 94 325 q 539 74 356 74 q 854 199 724 74 q 985 501 985 325 q 854 804 985 679 q 539 929 724 929 z "},"™":{"ha":1146,"x_min":0,"x_max":1053,"o":"m 404 801 l 388 801 q 256 919 376 919 l 256 563 q 321 499 256 499 l 321 482 l 82 482 l 82 499 q 147 563 147 499 l 147 919 q 18 803 21 919 l 0 803 l 0 942 l 404 942 l 404 801 m 1053 925 q 994 863 994 925 l 994 568 q 1003 515 994 526 q 1051 499 1013 499 l 1051 482 l 828 482 l 828 499 q 878 515 865 499 q 888 565 888 528 l 888 885 l 719 482 l 701 482 l 535 874 l 535 561 q 600 499 535 499 l 600 482 l 443 482 l 443 499 q 504 561 504 499 l 504 867 q 444 925 504 925 l 444 942 l 615 942 l 749 625 l 882 942 l 1053 942 l 1053 925 z "},"´":{"ha":407,"x_min":3,"x_max":264,"o":"m 3 682 l 64 682 l 197 749 q 264 824 264 782 q 204 883 264 883 q 163 872 179 883 q 97 801 140 857 l 3 682 z "},"¨":{"ha":588,"x_min":0,"x_max":499,"o":"m 92 714 q 26 742 51 714 q 0 814 0 769 q 26 888 0 858 q 92 918 51 918 q 160 888 133 918 q 186 813 186 858 q 160 741 186 768 q 92 714 133 714 m 406 714 q 338 742 364 714 q 313 814 313 769 q 338 888 313 858 q 406 918 364 918 q 472 888 446 918 q 499 813 499 858 q 472 741 499 768 q 406 714 446 714 z "},"≠":{"ha":768,"x_min":0,"x_max":668,"o":"m 668 414 l 0 414 l 0 543 l 668 543 l 668 414 m 668 128 l 0 128 l 0 258 l 668 258 l 668 128 m 447 753 l 200 -83 l 140 -83 l 388 753 l 447 753 z "},"Æ":{"ha":1404,"x_min":0,"x_max":1322,"o":"m 476 0 l 476 38 q 551 46 513 38 q 606 82 606 58 l 607 268 l 332 268 q 267 177 328 260 q 206 83 206 94 q 272 38 206 38 l 272 0 l 0 0 l 0 38 q 75 69 40 38 q 126 133 89 83 l 710 919 l 1258 919 l 1258 646 l 1228 646 q 1133 825 1211 774 q 932 869 1067 869 q 849 860 867 869 q 822 783 822 844 l 822 494 q 1036 696 1036 494 l 1068 696 l 1068 238 l 1033 238 q 822 449 1033 449 l 822 149 q 892 56 822 56 q 1131 104 1040 56 q 1285 289 1233 160 l 1322 289 l 1267 0 l 476 0 m 607 638 l 375 324 l 607 324 l 607 638 z "},"Ø":{"ha":1067,"x_min":0,"x_max":940,"o":"m 471 942 q 810 806 679 942 q 940 461 940 669 q 808 115 940 250 q 465 -21 675 -21 q 129 114 258 -21 q 0 457 0 249 q 131 804 0 667 q 471 942 261 942 m 478 22 q 667 179 603 22 q 714 443 714 296 q 663 725 714 599 q 461 894 593 894 q 274 736 336 894 q 226 472 226 619 q 278 192 226 318 q 478 22 346 22 m 647 972 l 354 -47 l 283 -47 l 576 972 l 647 972 z "},"∞":{"ha":1135,"x_min":0,"x_max":1008,"o":"m 297 -15 q 78 82 161 -15 q 0 313 0 175 q 78 544 0 451 q 297 643 161 643 q 517 544 433 643 q 594 313 594 451 q 517 82 594 175 q 297 -15 433 -15 m 299 25 q 389 140 360 25 q 410 313 410 219 q 390 482 410 403 q 297 603 360 603 q 207 488 236 603 q 188 315 188 408 q 207 142 188 222 q 299 25 238 25 m 710 -15 q 490 82 574 -15 q 413 313 413 175 q 490 544 413 451 q 710 643 574 643 q 929 544 846 643 q 1008 313 1008 451 q 929 82 1008 175 q 710 -15 846 -15 m 711 25 q 803 140 772 25 q 822 313 822 219 q 803 482 822 403 q 710 603 774 603 q 619 488 649 603 q 600 315 600 408 q 621 142 600 222 q 711 25 650 25 z "},"±":{"ha":789,"x_min":4,"x_max":686,"o":"m 686 371 l 413 371 l 413 32 l 278 32 l 278 371 l 4 371 l 4 503 l 278 503 l 278 840 l 413 840 l 413 503 l 686 503 l 686 371 m 682 -3 l 6 -3 l 6 101 l 682 101 l 682 -3 z "},"≤":{"ha":772,"x_min":-3,"x_max":669,"o":"m 669 -18 l -3 -18 l -3 126 l 669 126 l 669 -18 m 669 138 l 3 460 l 3 590 l 669 911 l 669 767 l 190 525 l 669 283 l 669 138 z "},"≥":{"ha":731,"x_min":10,"x_max":681,"o":"m 10 -18 l 681 -18 l 681 126 l 10 126 l 10 -18 m 10 138 l 676 460 l 676 590 l 10 911 l 10 767 l 489 525 l 10 283 l 10 138 z "},"¥":{"ha":1040,"x_min":0,"x_max":914,"o":"m 914 885 q 799 789 857 885 l 568 408 l 568 161 q 594 63 568 92 q 688 35 619 35 l 688 0 l 231 0 l 231 35 q 324 64 297 35 q 350 161 350 93 l 350 361 l 119 779 q 0 885 67 876 l 0 919 l 444 919 l 444 885 q 339 840 339 885 q 356 789 339 821 l 528 454 l 699 738 q 728 819 728 786 q 622 885 728 885 l 622 919 l 914 919 l 914 885 m 456 281 l 129 281 l 129 442 l 456 442 l 456 281 m 456 92 l 129 92 l 129 253 l 456 253 l 456 92 m 771 281 l 444 281 l 444 442 l 771 442 l 771 281 m 772 92 l 446 92 l 446 253 l 772 253 l 772 92 z "},"∂":{"ha":768,"x_min":43,"x_max":675,"o":"m 675 638 q 582 229 675 418 q 274 -7 468 -7 q 106 54 168 -7 q 43 219 43 115 q 151 500 43 376 q 418 629 264 629 q 629 500 564 629 q 638 626 638 575 q 579 810 638 742 q 403 882 517 882 q 199 774 274 882 l 168 774 q 426 978 267 978 q 621 868 557 978 q 675 638 675 778 m 618 440 q 424 593 565 593 q 222 449 299 593 q 158 192 158 329 q 189 81 158 125 q 290 32 225 32 q 510 181 411 32 q 618 440 585 294 z "},"∑":{"ha":935,"x_min":0,"x_max":835,"o":"m 835 163 l 807 -260 l 14 -260 l 14 -231 l 307 300 l 0 853 l 0 906 l 751 906 l 782 590 l 751 590 q 661 783 719 724 q 496 842 603 842 l 254 842 l 461 458 l 200 -10 l 643 -10 q 750 33 717 -10 q 800 163 775 65 l 835 163 z "},"∏":{"ha":1093,"x_min":0,"x_max":990,"o":"m 990 -267 l 535 -267 l 535 -224 q 633 -192 610 -224 q 656 -64 656 -160 l 656 697 q 642 814 656 790 q 554 849 624 847 q 446 850 469 850 q 346 808 368 850 q 333 697 333 783 l 333 -64 q 360 -188 333 -153 q 456 -224 386 -224 l 456 -267 l 0 -267 l 0 -224 q 93 -186 67 -224 q 119 -64 119 -149 l 119 697 q 94 817 119 783 q 1 850 68 850 l 1 892 l 990 892 l 990 850 q 897 816 924 850 q 871 697 871 782 l 871 -64 q 898 -185 871 -147 q 990 -224 925 -224 l 990 -267 z "},"π":{"ha":853,"x_min":0,"x_max":725,"o":"m 721 218 q 682 56 721 124 q 547 -28 635 -28 q 428 33 474 -28 q 388 164 388 88 l 388 471 l 243 471 l 243 167 q 218 44 243 96 q 124 -22 186 -22 q 31 33 65 -22 q 0 143 0 82 q 3 185 0 164 l 49 185 q 64 122 47 150 q 114 90 82 90 q 172 219 172 90 l 172 471 q 88 465 97 471 q 60 396 65 456 l 14 396 q 225 626 14 626 q 424 625 292 626 q 621 625 556 625 q 675 671 676 625 l 721 671 q 725 596 725 621 q 689 496 725 524 q 582 471 658 471 q 582 314 582 418 q 581 156 581 208 q 618 81 581 81 q 671 133 658 81 q 676 218 675 153 l 721 218 z "},"∫":{"ha":497,"x_min":-244,"x_max":443,"o":"m -85 -171 q -115 -147 -115 -171 q -103 -124 -115 -142 q -92 -87 -92 -106 q -167 -24 -92 -24 q -244 -106 -244 -24 q -201 -189 -244 -157 q -110 -217 -162 -217 q 203 674 203 -217 q 211 831 203 782 q 294 940 231 940 q 318 919 318 940 q 306 893 318 913 q 294 857 294 874 q 317 809 294 828 q 368 790 339 790 q 443 872 443 790 q 399 960 443 929 q 301 986 361 986 q 94 822 176 986 q 18 549 33 699 q 3 169 3 399 q 4 131 3 163 q 4 75 4 99 q -85 -171 4 -171 z "},"ª":{"ha":372,"x_min":0,"x_max":313,"o":"m 313 647 q 236 611 286 611 q 182 656 188 611 q 78 613 140 613 q 0 683 0 613 q 181 813 0 768 l 181 864 q 128 918 181 918 q 85 897 85 918 q 94 876 85 890 q 103 853 103 861 q 57 814 103 814 q 13 861 13 814 q 61 925 13 901 q 146 943 100 943 q 236 917 201 943 q 276 833 276 886 l 276 683 q 286 656 276 656 q 303 663 293 656 l 313 647 m 190 683 l 190 790 q 107 703 107 774 q 143 654 107 654 q 190 683 167 654 m 299 500 l 6 500 l 6 579 l 299 579 l 299 500 z "},"º":{"ha":436,"x_min":-1,"x_max":322,"o":"m 154 919 q 269 871 226 919 q 308 765 308 828 q 269 657 308 701 q 154 608 226 608 q 39 657 82 608 q 0 764 0 701 q 39 871 0 828 q 154 919 82 919 m 154 686 q 214 711 192 686 q 233 764 233 732 q 213 820 233 796 q 154 844 192 844 q 98 821 118 844 q 78 764 78 797 q 96 711 78 732 q 154 686 118 686 m 322 506 l -1 506 l -1 578 l 322 578 l 322 506 z "},"æ":{"ha":1008,"x_min":0,"x_max":915,"o":"m 426 126 q 156 -17 315 -17 q 43 20 86 -17 q 0 126 0 57 q 131 307 0 238 q 360 383 204 344 l 360 486 q 254 596 360 596 q 204 586 231 596 q 169 554 169 574 q 188 511 169 540 q 206 465 206 482 q 178 408 206 429 q 115 386 151 386 q 49 413 74 386 q 24 481 24 439 q 122 608 24 561 q 292 647 201 647 q 490 579 418 647 q 663 643 563 643 q 853 546 785 643 q 913 333 913 461 l 576 333 q 610 174 576 244 q 733 83 654 83 q 886 172 810 83 l 915 147 q 654 -19 813 -19 q 426 126 503 -19 m 749 388 l 749 458 q 733 549 749 510 q 668 600 711 600 q 597 550 624 600 q 576 460 576 510 l 576 388 l 749 388 m 381 126 l 381 340 q 265 283 310 326 q 215 167 215 235 q 232 101 215 129 q 288 68 251 68 q 381 126 332 68 m 381 335 z "},"ø":{"ha":707,"x_min":0,"x_max":596,"o":"m 440 653 l 228 -40 l 176 -40 l 389 653 l 440 653 m 297 -15 q 78 82 161 -15 q 0 314 0 175 q 78 544 0 451 q 297 643 161 643 q 517 544 433 643 q 596 314 596 451 q 517 82 596 175 q 297 -15 433 -15 m 299 25 q 390 140 360 25 q 410 313 410 219 q 390 483 410 403 q 297 603 361 603 q 207 488 236 603 q 188 317 188 408 q 207 142 188 222 q 299 25 238 25 z "},"¿":{"ha":583,"x_min":0,"x_max":526,"o":"m 0 204 q 160 432 0 343 q 232 476 225 468 q 253 557 253 497 l 253 606 l 296 606 l 296 542 q 249 380 296 493 q 201 193 201 267 q 225 82 201 126 q 315 24 254 24 q 367 38 340 24 q 394 75 394 53 q 369 133 394 97 q 343 194 343 169 q 368 258 343 233 q 431 283 393 283 q 501 253 475 283 q 526 179 526 224 q 443 28 526 83 q 271 -19 372 -19 q 85 36 161 -19 q 0 204 0 99 m 278 942 q 358 912 328 942 q 389 832 389 882 q 358 748 389 783 q 278 713 326 713 q 195 745 228 713 q 163 828 163 778 q 195 910 163 879 q 278 942 228 942 z "},"¡":{"ha":349,"x_min":0,"x_max":225,"o":"m 224 126 q 183 378 224 217 q 135 628 139 550 l 94 628 q 46 333 94 510 q 4 133 4 179 q 31 40 4 78 q 114 -4 61 -4 q 194 35 165 -4 q 224 126 224 74 m 113 957 q 31 925 63 957 q 0 843 0 893 q 31 760 0 793 q 113 728 63 728 q 194 760 163 728 q 225 843 225 793 q 194 925 225 893 q 113 957 163 957 z "},"¬":{"ha":583,"x_min":0,"x_max":479,"o":"m 475 292 l 0 292 l 0 443 l 475 443 l 475 292 m 479 442 l 479 192 l 331 192 l 331 442 l 479 442 z "},"√":{"ha":961,"x_min":0,"x_max":833,"o":"m 833 1111 l 465 3 l 224 661 l 24 597 l 0 642 l 271 746 l 450 221 l 783 1111 l 833 1111 z "},"ƒ":{"ha":628,"x_min":-104,"x_max":583,"o":"m 1 549 l 1 610 l 164 610 q 238 857 181 760 q 442 986 313 986 q 540 960 501 986 q 583 872 583 929 q 508 790 583 790 q 457 809 479 790 q 435 857 435 828 q 447 892 435 872 q 458 919 458 913 q 435 940 458 940 q 343 704 343 940 q 344 657 343 686 q 344 610 344 619 l 508 610 l 508 549 l 344 549 q 31 -217 342 -217 q -61 -189 -22 -217 q -104 -106 -104 -157 q -26 -24 -104 -24 q 49 -87 49 -24 q 37 -124 49 -106 q 25 -147 25 -142 q 56 -171 25 -171 q 146 75 146 -171 q 144 131 146 99 q 143 169 143 163 q 158 549 143 350 l 1 549 z "},"≈":{"ha":497,"x_min":-6,"x_max":419,"o":"m 415 482 q 271 315 393 315 q 185 347 246 315 q 100 378 124 378 q 39 318 58 378 l -6 318 q 138 485 17 485 q 224 454 163 485 q 308 424 285 424 q 371 482 351 424 l 415 482 m 419 142 l 1 142 l 1 257 l 419 257 l 419 142 z "},"Δ":{"ha":903,"x_min":0,"x_max":806,"o":"m 806 0 l 0 0 l 379 942 l 414 942 l 806 0 m 554 56 l 318 644 l 88 56 l 554 56 z "},"«":{"ha":740,"x_min":0,"x_max":631,"o":"m 629 74 q 615 56 631 56 q 574 74 594 56 l 438 189 q 288 313 382 236 q 456 454 371 383 q 607 569 592 567 q 623 565 615 571 q 629 550 631 560 q 564 426 624 503 q 469 313 517 369 q 564 199 517 256 q 629 74 625 119 m 343 74 q 329 56 344 56 q 288 74 308 56 l 153 189 q 0 313 103 231 q 168 454 85 383 q 321 569 304 567 q 337 565 329 571 q 343 550 344 560 q 278 428 339 510 q 185 313 267 413 q 279 199 250 238 q 343 74 339 115 z "},"»":{"ha":738,"x_min":0,"x_max":626,"o":"m 0 550 q 18 569 0 569 q 125 499 46 569 q 232 400 179 449 l 340 314 q 175 175 258 244 q 18 56 33 56 q 0 71 0 56 q 63 200 0 118 q 158 314 111 257 q 0 550 0 497 m 286 550 q 306 569 286 569 q 411 497 331 569 q 518 400 464 449 l 626 314 q 460 171 543 242 q 297 56 321 54 q 286 71 286 57 q 349 200 286 118 q 444 314 397 257 q 286 550 286 496 z "},"…":{"ha":889,"x_min":0,"x_max":781,"o":"m 111 -17 q 31 15 63 -17 q 0 96 0 46 q 31 178 0 146 q 111 211 63 211 q 193 178 161 211 q 225 94 225 144 q 193 14 225 44 q 111 -17 161 -17 m 389 -17 q 309 15 340 -17 q 278 96 278 46 q 309 178 278 146 q 389 211 340 211 q 471 178 439 211 q 503 94 503 144 q 471 14 503 44 q 389 -17 439 -17 m 667 -17 q 587 15 618 -17 q 556 96 556 46 q 587 178 556 146 q 667 211 618 211 q 749 178 717 211 q 781 94 781 144 q 749 14 781 44 q 667 -17 717 -17 z "}," ":{"ha":375,"x_min":0,"x_max":0,"o":""},"À":{"ha":999,"x_min":0,"x_max":910,"o":"m 910 0 l 476 0 l 476 38 q 593 81 593 38 q 525 268 593 90 l 225 268 q 190 175 214 243 q 164 83 164 96 q 272 38 164 38 l 272 0 l 0 0 l 0 38 q 113 147 68 38 l 432 942 l 467 942 l 789 175 q 832 88 817 108 q 910 38 863 44 l 910 0 m 504 324 l 369 644 l 244 324 l 504 324 m 475 985 l 414 985 l 281 1051 q 214 1126 214 1085 q 274 1186 214 1186 q 314 1175 299 1186 q 381 1104 336 1160 l 475 985 z "},"Ã":{"ha":999,"x_min":0,"x_max":910,"o":"m 910 0 l 476 0 l 476 38 q 593 81 593 38 q 525 268 593 90 l 225 268 q 190 175 214 243 q 164 83 164 96 q 272 38 164 38 l 272 0 l 0 0 l 0 38 q 113 147 68 38 l 432 942 l 467 942 l 789 175 q 832 88 817 108 q 910 38 863 44 l 910 0 m 504 324 l 369 644 l 244 324 l 504 324 m 633 1150 q 489 983 611 983 q 404 1015 465 983 q 318 1046 343 1046 q 257 986 278 1046 l 213 986 q 356 1153 236 1153 q 442 1122 381 1153 q 526 1092 503 1092 q 589 1150 569 1092 l 633 1150 z "},"Õ":{"ha":1067,"x_min":0,"x_max":942,"o":"m 471 942 q 810 806 679 942 q 942 461 942 669 q 809 115 942 250 q 465 -21 676 -21 q 129 114 258 -21 q 0 457 0 249 q 131 804 0 667 q 471 942 263 942 m 478 22 q 667 179 604 22 q 714 444 714 296 q 663 725 714 599 q 461 894 593 894 q 274 738 336 894 q 226 474 226 621 q 278 192 226 318 q 478 22 346 22 m 671 1153 q 526 986 649 986 q 440 1017 501 986 q 356 1049 379 1049 q 294 989 314 1049 l 250 989 q 393 1156 272 1156 q 479 1125 418 1156 q 564 1094 540 1094 q 626 1153 607 1094 l 671 1153 z "},"Œ":{"ha":1517,"x_min":0,"x_max":1429,"o":"m 614 0 q 465 -21 544 -21 q 129 114 258 -21 q 0 457 0 249 q 131 804 0 667 q 471 942 261 942 q 621 919 551 942 l 1365 919 l 1365 646 l 1335 646 q 1240 825 1318 772 q 1039 869 1174 869 q 956 860 972 869 q 929 783 929 844 l 929 494 q 1143 696 1143 494 l 1175 696 l 1175 238 l 1140 238 q 929 449 1140 449 l 929 149 q 999 56 929 56 q 1238 104 1147 56 q 1392 289 1339 160 l 1429 289 l 1374 0 l 614 0 m 714 443 q 663 725 714 599 q 461 894 593 894 q 274 736 336 894 q 226 472 226 619 q 278 192 226 318 q 478 22 346 22 q 667 179 603 22 q 714 443 714 296 z "},"œ":{"ha":1033,"x_min":0,"x_max":943,"o":"m 297 -15 q 78 82 161 -15 q 0 313 0 175 q 78 544 0 451 q 297 643 161 643 q 517 544 433 643 q 594 313 594 451 q 517 82 594 175 q 297 -15 433 -15 m 299 25 q 389 140 360 25 q 410 313 410 219 q 390 482 410 403 q 297 603 360 603 q 207 488 236 603 q 188 315 188 408 q 207 142 188 222 q 299 25 238 25 m 943 147 q 682 -19 840 -19 q 476 88 554 -19 q 408 317 408 183 q 482 542 408 447 q 690 643 563 643 q 879 546 811 643 q 940 333 940 461 l 604 333 q 638 174 604 244 q 761 83 681 83 q 914 172 838 83 l 943 147 m 776 388 l 776 458 q 760 549 776 510 q 696 600 739 600 q 625 550 650 600 q 603 460 603 510 l 604 388 l 776 388 z "},"–":{"ha":635,"x_min":-3,"x_max":546,"o":"m 546 236 l -3 236 l -3 390 l 546 390 l 546 236 z "},"—":{"ha":1189,"x_min":-1,"x_max":1093,"o":"m 1093 238 l -1 238 l -1 390 l 1093 390 l 1093 238 z "},"“":{"ha":592,"x_min":-1,"x_max":529,"o":"m -1 643 q 218 943 -1 799 l 239 908 q 92 724 92 813 q 131 700 92 707 q 201 679 182 692 q 240 599 240 656 q 210 516 240 551 q 133 481 179 481 q 33 532 72 481 q -1 643 -1 579 m 286 640 q 506 940 286 797 l 526 906 q 379 721 379 810 q 418 699 379 706 q 490 676 471 689 q 529 596 529 653 q 498 514 529 550 q 421 478 467 478 q 322 531 360 478 q 286 640 286 578 z "},"”":{"ha":610,"x_min":1,"x_max":532,"o":"m 532 776 q 313 476 532 621 l 292 511 q 439 696 439 607 q 400 719 439 713 q 328 740 347 728 q 289 821 289 764 q 320 903 289 868 q 397 939 351 939 q 495 890 458 939 q 532 776 532 840 m 243 779 q 24 479 243 622 l 3 514 q 150 699 150 610 q 113 721 150 714 q 40 743 60 731 q 1 824 1 767 q 32 906 1 869 q 108 942 63 942 q 208 889 169 942 q 243 779 243 842 z "},"‘":{"ha":314,"x_min":1,"x_max":244,"o":"m 1 642 q 221 942 1 799 l 242 907 q 94 722 94 811 q 133 700 94 707 q 206 679 186 690 q 244 599 244 654 q 213 515 244 551 q 136 479 182 479 q 36 532 75 479 q 1 642 1 579 z "},"’":{"ha":306,"x_min":4,"x_max":247,"o":"m 247 778 q 28 478 247 621 l 7 513 q 154 697 154 608 q 115 719 154 713 q 43 740 63 729 q 4 821 4 764 q 35 904 4 868 q 113 940 67 940 q 213 888 174 940 q 247 778 247 840 z "},"÷":{"ha":604,"x_min":32,"x_max":536,"o":"m 289 506 q 208 537 239 506 q 178 617 178 568 q 209 700 178 667 q 289 733 240 733 q 370 699 339 733 q 401 617 401 665 q 370 536 401 567 q 289 506 339 506 m 536 272 l 32 272 l 32 429 l 536 429 l 536 272 m 293 -25 q 212 6 243 -25 q 181 88 181 38 q 212 169 181 136 q 293 203 243 203 q 374 169 342 203 q 406 86 406 136 q 374 6 406 36 q 293 -25 343 -25 z "},"ÿ":{"ha":718,"x_min":0,"x_max":619,"o":"m 619 593 q 536 490 574 593 l 339 -49 q 264 -201 300 -154 q 119 -276 207 -276 q 35 -246 71 -276 q 0 -167 0 -215 q 22 -101 0 -126 q 83 -75 44 -75 q 140 -94 115 -75 q 165 -143 165 -112 q 165 -154 165 -147 q 164 -165 164 -162 q 188 -194 164 -194 q 263 -119 228 -194 q 296 -8 292 -60 l 85 506 q 58 564 65 553 q 6 592 39 592 l 6 625 l 340 625 l 340 593 q 274 554 274 593 q 324 400 274 531 q 388 239 356 319 l 478 488 q 492 547 492 526 q 422 593 492 593 l 422 625 l 619 625 l 619 593 m 169 708 q 102 737 128 708 q 76 810 76 765 q 102 883 76 854 q 169 913 128 913 q 236 883 210 913 q 263 808 263 853 q 236 736 263 764 q 169 708 210 708 m 482 708 q 416 737 442 708 q 390 810 390 765 q 416 883 390 854 q 482 913 442 913 q 549 883 524 913 q 575 808 575 853 q 549 736 575 764 q 482 708 524 708 z "},"Ÿ":{"ha":999,"x_min":0,"x_max":914,"o":"m 914 885 q 799 789 857 885 l 568 408 l 568 161 q 594 63 568 92 q 688 35 619 35 l 688 0 l 231 0 l 231 35 q 324 64 297 35 q 350 161 350 93 l 350 361 l 119 779 q 0 885 67 876 l 0 919 l 444 919 l 444 885 q 339 842 339 885 q 356 789 339 821 l 528 454 l 699 738 q 728 819 728 786 q 622 885 728 885 l 622 919 l 914 919 l 914 885 m 332 985 q 265 1013 290 985 q 239 1085 239 1042 q 265 1159 239 1129 q 332 1189 290 1189 q 399 1159 372 1189 q 425 1085 425 1129 q 399 1013 425 1040 q 332 985 372 985 m 644 985 q 577 1013 603 985 q 551 1085 551 1042 q 577 1159 551 1129 q 644 1189 603 1189 q 711 1159 685 1189 q 738 1085 738 1129 q 711 1013 738 1040 q 644 985 685 985 z "},"⁄":{"ha":468,"x_min":0,"x_max":381,"o":"m 381 942 l 74 -125 l 0 -125 l 307 942 l 381 942 z "},"¤":{"ha":842,"x_min":4,"x_max":756,"o":"m 75 939 l 214 801 q 379 854 286 854 q 547 801 474 854 l 685 939 l 756 867 l 618 728 q 669 564 669 656 q 618 400 669 474 l 756 261 l 685 190 l 547 328 q 381 275 475 275 q 214 328 285 275 l 75 190 l 4 261 l 142 400 q 90 564 90 472 q 142 728 90 656 l 4 867 l 75 939 m 381 751 q 249 696 304 751 q 193 564 193 640 q 248 432 193 486 q 381 378 303 378 q 513 433 457 378 q 568 564 568 488 q 513 696 568 640 q 381 751 457 751 z "},"‹":{"ha":433,"x_min":0,"x_max":344,"o":"m 343 74 q 329 56 344 56 q 288 74 308 56 l 153 189 q 0 313 103 231 q 168 454 85 383 q 321 569 304 567 q 337 565 329 571 q 343 550 344 560 q 278 428 339 510 q 185 313 267 413 q 279 199 250 238 q 343 74 339 115 z "},"›":{"ha":424,"x_min":0,"x_max":344,"o":"m 1 74 q 15 56 0 56 q 57 74 36 56 l 192 189 q 344 313 242 231 q 175 454 260 383 q 24 569 39 567 q 8 565 15 571 q 1 550 0 560 q 65 428 6 510 q 160 313 76 413 q 65 199 94 238 q 1 74 4 115 z "},"‡":{"ha":694,"x_min":56,"x_max":638,"o":"m 260 368 q 329 615 329 479 q 224 585 286 614 q 133 556 163 556 q 56 629 56 556 q 78 685 56 664 q 136 706 101 706 q 228 678 165 706 q 329 650 290 651 l 329 665 q 299 797 329 722 q 269 889 269 871 q 292 943 269 922 q 347 964 314 964 q 404 944 382 964 q 426 890 426 924 q 397 801 426 879 q 367 663 367 722 l 367 650 l 369 650 q 472 677 413 650 q 560 704 532 704 q 638 631 638 704 q 560 554 638 554 q 467 582 528 554 q 365 614 401 611 q 436 368 374 456 q 365 122 365 264 q 470 153 408 124 q 561 182 532 182 q 638 108 638 182 q 615 53 638 74 q 557 32 592 32 q 466 59 528 32 q 365 88 404 86 l 365 72 q 395 -59 365 15 q 425 -151 425 -133 q 403 -206 425 -185 q 347 -226 381 -226 q 290 -206 313 -226 q 267 -153 267 -186 q 297 -65 267 -143 q 328 75 328 14 l 328 88 l 325 88 q 222 60 282 88 q 135 32 163 32 q 56 107 56 32 q 135 183 56 183 q 230 155 167 183 q 329 124 293 126 q 260 368 321 275 z "},"·":{"ha":332,"x_min":0,"x_max":225,"o":"m 111 208 q 31 240 63 208 q 0 321 0 271 q 31 403 0 371 q 111 436 63 436 q 193 403 161 436 q 225 319 225 369 q 193 239 225 269 q 111 208 161 208 z "},"‚":{"ha":325,"x_min":0,"x_max":242,"o":"m 242 42 q 22 -258 242 -115 l 1 -224 q 149 -39 149 -128 q 111 -17 149 -24 q 39 6 58 -7 q 0 86 0 29 q 31 168 0 132 q 107 204 61 204 q 207 151 168 204 q 242 42 242 104 z "},"„":{"ha":565,"x_min":0,"x_max":510,"o":"m 242 42 q 22 -258 242 -115 l 1 -224 q 149 -39 149 -128 q 111 -17 149 -24 q 39 6 58 -7 q 0 86 0 29 q 31 168 0 132 q 107 204 61 204 q 207 151 168 204 q 242 42 242 104 m 510 42 q 290 -258 510 -115 l 269 -224 q 417 -39 417 -128 q 378 -17 417 -24 q 307 6 326 -7 q 268 86 268 29 q 299 168 268 132 q 375 204 329 204 q 475 151 436 204 q 510 42 510 104 z "},"‰":{"ha":1690,"x_min":0,"x_max":1567,"o":"m 850 514 q 1010 338 1010 514 q 932 106 1010 214 q 726 -14 846 -14 q 599 37 644 -14 q 554 171 554 88 q 639 401 554 297 q 850 514 728 514 m 890 444 q 764 321 824 444 q 711 138 711 214 q 771 54 711 54 q 913 161 853 54 q 965 342 965 253 q 890 444 965 444 m 807 935 l 278 -18 l 207 -18 l 675 831 q 521 794 594 794 q 457 803 486 794 q 460 765 460 785 q 385 524 460 633 q 174 400 300 400 q 46 449 92 400 q 0 582 0 499 q 88 814 0 710 q 304 924 179 924 q 412 883 360 924 q 521 843 464 843 q 754 935 619 843 l 807 935 m 400 824 q 336 857 375 825 q 208 732 268 851 q 156 549 156 626 q 218 464 156 464 q 360 575 300 464 q 411 761 411 671 q 400 824 411 797 m 1407 514 q 1567 338 1567 514 q 1489 106 1567 214 q 1283 -14 1403 -14 q 1156 37 1200 -14 q 1111 171 1111 88 q 1194 401 1111 297 q 1407 514 1285 514 m 1447 444 q 1319 321 1381 444 q 1267 138 1267 214 q 1328 54 1267 54 q 1469 161 1408 54 q 1522 342 1522 253 q 1447 444 1522 444 z "},"Â":{"ha":999,"x_min":0,"x_max":910,"o":"m 910 0 l 476 0 l 476 38 q 593 81 593 38 q 525 268 593 90 l 225 268 q 190 175 214 243 q 164 83 164 96 q 272 38 164 38 l 272 0 l 0 0 l 0 38 q 113 147 68 38 l 432 942 l 467 942 l 789 175 q 832 88 817 108 q 910 38 863 44 l 910 0 m 504 324 l 369 644 l 244 324 l 504 324 m 240 983 l 393 1179 l 493 1179 l 646 983 l 589 983 l 443 1092 l 297 983 l 240 983 z "},"Ê":{"ha":926,"x_min":0,"x_max":842,"o":"m 842 289 l 786 0 l 0 0 l 0 35 q 97 61 68 35 q 126 156 126 88 l 126 746 q 103 850 126 818 q 7 886 76 888 l 7 919 l 778 919 l 778 646 l 747 646 q 653 825 731 774 q 451 869 586 869 q 368 860 385 869 q 342 783 342 844 l 342 494 q 556 696 556 494 l 588 696 l 588 238 l 553 238 q 342 449 553 449 l 342 149 q 411 56 342 56 q 650 104 560 56 q 804 289 753 160 l 842 289 m 182 982 l 335 1178 l 435 1178 l 588 982 l 531 982 l 385 1090 l 239 982 l 182 982 z "},"Á":{"ha":999,"x_min":0,"x_max":910,"o":"m 910 0 l 476 0 l 476 38 q 593 81 593 38 q 525 268 593 90 l 225 268 q 190 175 214 243 q 164 83 164 96 q 272 38 164 38 l 272 0 l 0 0 l 0 38 q 113 147 68 38 l 432 942 l 467 942 l 789 175 q 832 88 817 108 q 910 38 863 44 l 910 0 m 504 324 l 369 644 l 244 324 l 504 324 m 422 983 l 483 983 l 617 1050 q 683 1125 683 1083 q 624 1185 683 1185 q 583 1175 599 1185 q 517 1103 561 1160 l 422 983 z "},"Ë":{"ha":926,"x_min":0,"x_max":842,"o":"m 842 289 l 786 0 l 0 0 l 0 35 q 97 61 68 35 q 126 156 126 88 l 126 746 q 103 850 126 818 q 7 886 76 888 l 7 919 l 778 919 l 778 646 l 747 646 q 653 825 731 774 q 451 869 586 869 q 368 860 385 869 q 342 783 342 844 l 342 494 q 556 696 556 494 l 588 696 l 588 238 l 553 238 q 342 449 553 449 l 342 149 q 411 56 342 56 q 650 104 560 56 q 804 289 753 160 l 842 289 m 219 983 q 152 1011 178 983 q 126 1083 126 1039 q 152 1158 126 1128 q 219 1188 178 1188 q 286 1157 260 1188 q 313 1082 313 1126 q 286 1010 313 1038 q 219 983 260 983 m 532 983 q 465 1011 490 983 q 439 1083 439 1039 q 465 1158 439 1128 q 532 1188 492 1188 q 599 1157 572 1188 q 625 1082 625 1126 q 599 1010 625 1038 q 532 983 574 983 z "},"È":{"ha":926,"x_min":0,"x_max":842,"o":"m 842 289 l 786 0 l 0 0 l 0 35 q 97 61 68 35 q 126 156 126 88 l 126 746 q 103 850 126 818 q 7 886 76 888 l 7 919 l 778 919 l 778 646 l 747 646 q 653 825 731 774 q 451 869 586 869 q 368 860 385 869 q 342 783 342 844 l 342 494 q 556 696 556 494 l 588 696 l 588 238 l 553 238 q 342 449 553 449 l 342 149 q 411 56 342 56 q 650 104 560 56 q 804 289 753 160 l 842 289 m 440 983 l 379 983 l 246 1050 q 179 1125 179 1083 q 239 1185 179 1185 q 279 1175 264 1185 q 346 1103 301 1160 l 440 983 z "},"Í":{"ha":586,"x_min":0,"x_max":471,"o":"m 471 0 l 0 0 l 0 35 q 98 60 68 35 q 128 153 128 86 l 128 781 q 96 868 128 844 q 0 886 69 886 l 0 919 l 468 919 l 468 886 q 376 871 399 886 q 344 781 344 850 l 344 156 q 374 62 344 89 q 471 35 403 35 l 471 0 m 203 985 l 264 985 l 397 1051 q 464 1126 464 1085 q 404 1186 464 1186 q 364 1175 379 1186 q 297 1104 342 1160 l 203 985 z "},"Î":{"ha":586,"x_min":0,"x_max":471,"o":"m 471 0 l 0 0 l 0 35 q 98 60 68 35 q 128 153 128 86 l 128 781 q 96 868 128 844 q 0 886 69 886 l 0 919 l 468 919 l 468 886 q 376 871 399 886 q 344 781 344 850 l 344 156 q 374 62 344 89 q 471 35 403 35 l 471 0 m 33 979 l 186 1175 l 286 1175 l 439 979 l 382 979 l 236 1088 l 90 979 l 33 979 z "},"Ï":{"ha":586,"x_min":-1,"x_max":497,"o":"m 471 0 l 0 0 l 0 35 q 98 60 68 35 q 128 153 128 86 l 128 781 q 96 868 128 844 q 0 886 69 886 l 0 919 l 468 919 l 468 886 q 376 871 399 886 q 344 781 344 850 l 344 156 q 374 62 344 89 q 471 35 403 35 l 471 0 m 90 985 q 24 1013 50 985 q -1 1086 -1 1042 q 24 1160 -1 1131 q 90 1189 50 1189 q 158 1159 132 1189 q 183 1085 183 1129 q 158 1013 183 1040 q 90 985 132 985 m 404 985 q 337 1013 363 985 q 311 1086 311 1042 q 337 1160 311 1131 q 404 1189 363 1189 q 471 1159 444 1189 q 497 1085 497 1129 q 471 1013 497 1040 q 404 985 444 985 z "},"Ì":{"ha":586,"x_min":-3,"x_max":471,"o":"m 471 0 l 0 0 l 0 35 q 98 60 68 35 q 128 153 128 86 l 128 781 q 96 868 128 844 q 0 886 69 886 l 0 919 l 468 919 l 468 886 q 376 871 399 886 q 344 781 344 850 l 344 156 q 374 62 344 89 q 471 35 403 35 l 471 0 m 258 983 l 197 983 l 64 1050 q -3 1125 -3 1083 q 57 1185 -3 1185 q 97 1174 82 1185 q 164 1103 119 1158 l 258 983 z "},"Ó":{"ha":1067,"x_min":0,"x_max":942,"o":"m 471 942 q 810 806 679 942 q 942 461 942 669 q 809 115 942 250 q 465 -21 676 -21 q 129 114 258 -21 q 0 457 0 249 q 131 804 0 667 q 471 942 263 942 m 478 22 q 667 179 604 22 q 714 444 714 296 q 663 725 714 599 q 461 894 593 894 q 274 738 336 894 q 226 474 226 621 q 278 192 226 318 q 478 22 346 22 m 424 983 l 485 983 l 618 1050 q 685 1125 685 1083 q 625 1185 685 1185 q 585 1174 600 1185 q 518 1103 563 1158 l 424 983 z "},"Ô":{"ha":1067,"x_min":0,"x_max":942,"o":"m 471 942 q 810 806 679 942 q 942 461 942 669 q 809 115 942 250 q 465 -21 676 -21 q 129 114 258 -21 q 0 457 0 249 q 131 804 0 667 q 471 942 263 942 m 478 22 q 667 179 604 22 q 714 444 714 296 q 663 725 714 599 q 461 894 593 894 q 274 738 336 894 q 226 474 226 621 q 278 192 226 318 q 478 22 346 22 m 271 982 l 424 1178 l 524 1178 l 676 982 l 619 982 l 474 1090 l 328 982 l 271 982 z "},"Ò":{"ha":1067,"x_min":0,"x_max":942,"o":"m 471 942 q 810 806 679 942 q 942 461 942 669 q 809 115 942 250 q 465 -21 676 -21 q 129 114 258 -21 q 0 457 0 249 q 131 804 0 667 q 471 942 263 942 m 478 22 q 667 179 604 22 q 714 444 714 296 q 663 725 714 599 q 461 894 593 894 q 274 738 336 894 q 226 474 226 621 q 278 192 226 318 q 478 22 346 22 m 493 985 l 432 985 l 299 1051 q 232 1126 232 1085 q 292 1186 232 1186 q 332 1175 317 1186 q 399 1104 354 1160 l 493 985 z "},"Ú":{"ha":1033,"x_min":0,"x_max":925,"o":"m 925 886 q 842 854 865 888 q 821 763 821 826 l 821 365 q 746 79 821 171 q 472 -24 663 -24 q 118 313 118 -24 l 118 765 q 93 861 118 835 q 0 886 68 888 l 0 919 l 456 919 l 456 886 q 360 861 386 888 q 333 765 333 835 l 333 331 q 365 135 333 200 q 528 43 411 43 q 761 322 761 43 l 761 763 q 734 863 761 838 q 631 886 707 888 l 631 919 l 925 919 l 925 886 m 449 983 l 510 983 l 643 1050 q 710 1125 710 1083 q 650 1185 710 1185 q 610 1175 625 1185 q 543 1103 588 1160 l 449 983 z "},"Û":{"ha":1033,"x_min":0,"x_max":925,"o":"m 925 886 q 842 854 865 888 q 821 763 821 826 l 821 365 q 746 79 821 171 q 472 -24 663 -24 q 118 313 118 -24 l 118 765 q 93 861 118 835 q 0 886 68 888 l 0 919 l 456 919 l 456 886 q 360 861 386 888 q 333 765 333 835 l 333 331 q 365 135 333 200 q 528 43 411 43 q 761 322 761 43 l 761 763 q 734 863 761 838 q 631 886 707 888 l 631 919 l 925 919 l 925 886 m 285 979 l 438 1175 l 538 1175 l 690 979 l 633 979 l 488 1088 l 342 979 l 285 979 z "},"Ù":{"ha":1033,"x_min":0,"x_max":925,"o":"m 925 886 q 842 854 865 888 q 821 763 821 826 l 821 365 q 746 79 821 171 q 472 -24 663 -24 q 118 313 118 -24 l 118 765 q 93 861 118 835 q 0 886 68 888 l 0 919 l 456 919 l 456 886 q 360 861 386 888 q 333 765 333 835 l 333 331 q 365 135 333 200 q 528 43 411 43 q 761 322 761 43 l 761 763 q 734 863 761 838 q 631 886 707 888 l 631 919 l 925 919 l 925 886 m 529 983 l 468 983 l 335 1050 q 268 1125 268 1083 q 328 1185 268 1185 q 368 1174 353 1185 q 435 1103 390 1158 l 529 983 z "},"ı":{"ha":439,"x_min":0,"x_max":326,"o":"m 326 0 l 0 0 l 0 33 q 68 113 68 33 l 68 508 q 4 593 68 593 l 4 625 l 260 625 l 260 113 q 326 33 260 33 l 326 0 z "},"ˆ":{"ha":450,"x_min":1,"x_max":407,"o":"m 1 678 l 154 874 l 254 874 l 407 678 l 350 678 l 204 786 l 58 678 l 1 678 z "},"˜":{"ha":490,"x_min":0,"x_max":421,"o":"m 421 944 q 276 778 399 778 q 190 809 251 778 q 106 840 129 840 q 44 781 64 840 l 0 781 q 143 947 22 947 q 229 917 168 947 q 314 886 290 886 q 376 944 357 886 l 421 944 z "},"¯":{"ha":664,"x_min":0,"x_max":678,"o":"m 678 874 l 0 874 l 0 1011 l 678 1011 l 678 874 z "},"˘":{"ha":499,"x_min":1,"x_max":419,"o":"m 1 910 l 53 910 q 211 826 75 826 q 368 910 347 826 l 419 910 q 211 714 392 714 q 1 910 32 714 z "},"˙":{"ha":311,"x_min":3,"x_max":228,"o":"m 115 718 q 34 749 65 718 q 3 831 3 781 q 34 913 3 881 q 115 946 65 946 q 196 913 164 946 q 228 829 228 879 q 196 749 228 779 q 115 718 164 718 z "},"˚":{"ha":418,"x_min":60,"x_max":263,"o":"m 60 782 q 90 853 60 824 q 161 883 119 883 q 233 853 203 883 q 263 782 263 824 q 233 710 263 739 q 161 681 203 681 q 90 710 119 681 q 60 782 60 739 m 115 782 q 161 736 115 736 q 194 749 181 736 q 207 782 207 763 q 194 815 207 801 q 161 828 181 828 q 128 815 142 828 q 115 782 115 801 z "},"¸":{"ha":481,"x_min":60,"x_max":365,"o":"m 60 -231 l 88 -171 q 129 -197 108 -185 q 199 -211 158 -211 q 257 -156 257 -211 q 242 -123 257 -129 q 186 -117 228 -117 q 147 -121 168 -117 l 147 0 l 194 0 l 194 -62 q 244 -58 228 -58 q 365 -154 365 -58 q 210 -276 365 -276 q 60 -231 143 -276 z "},"˝":{"ha":671,"x_min":6,"x_max":504,"o":"m 6 710 l 67 710 l 200 776 q 267 851 267 811 q 207 911 267 911 q 167 901 182 911 q 100 829 144 886 l 6 710 m 243 710 l 304 710 l 438 776 q 504 851 504 811 q 444 911 504 911 q 404 901 419 911 q 338 829 382 886 l 243 710 z "},"˛":{"ha":439,"x_min":0,"x_max":306,"o":"m 306 -231 l 278 -171 q 236 -197 257 -185 q 167 -211 207 -211 q 108 -156 108 -211 q 126 -122 108 -129 q 179 -117 138 -117 q 218 -121 197 -117 l 218 0 l 171 0 l 171 -62 q 121 -58 138 -58 q 0 -154 0 -58 q 156 -276 0 -276 q 306 -231 222 -276 z "},"ˇ":{"ha":426,"x_min":1,"x_max":407,"o":"m 1 922 l 154 726 l 254 726 l 407 922 l 350 922 l 204 814 l 58 922 l 1 922 z "},"-":{"ha":397,"x_min":0,"x_max":326,"o":"m 326 228 l 0 228 l 0 389 l 326 389 l 326 228 z "},"µ":{"ha":824,"x_min":0,"x_max":721,"o":"m 721 197 q 672 49 717 110 q 539 -21 622 -21 q 388 86 429 -21 q 207 -17 310 -17 q 83 31 143 -17 q 129 -81 106 -25 q 154 -196 154 -144 q 78 -276 154 -276 q 0 -144 0 -276 q 8 -55 0 -112 q 17 35 17 3 l 17 625 l 211 625 l 211 239 q 226 136 211 181 q 293 72 247 72 q 367 136 340 72 q 388 240 388 185 l 388 625 l 581 625 l 581 175 q 613 93 581 93 q 657 135 636 93 q 678 197 672 165 l 721 197 z "},"Ω":{"ha":1032,"x_min":0,"x_max":917,"o":"m 896 -7 l 528 -7 l 528 244 q 653 376 610 276 q 689 560 689 458 q 638 776 689 685 q 458 889 574 889 q 281 776 343 889 q 228 560 228 685 q 264 376 228 460 q 389 244 307 276 l 389 -7 l 19 -7 l 19 256 l 57 256 q 81 181 56 199 q 158 167 101 167 l 342 167 l 342 201 q 103 318 196 229 q 0 558 0 417 q 144 839 0 733 q 456 935 274 935 q 771 839 639 935 q 917 557 917 733 q 814 318 917 415 q 574 201 719 229 l 574 167 l 736 167 q 831 175 814 167 q 860 256 861 189 l 896 256 l 896 -7 z "},"‐":{"ha":426,"x_min":0,"x_max":326,"o":"m 326 228 l 0 228 l 0 389 l 326 389 l 326 228 z "},"μ":{"ha":824,"x_min":0,"x_max":721,"o":"m 721 197 q 672 49 717 110 q 539 -21 622 -21 q 388 86 429 -21 q 207 -17 310 -17 q 83 31 143 -17 q 129 -81 106 -25 q 154 -196 154 -144 q 78 -276 154 -276 q 0 -144 0 -276 q 8 -55 0 -112 q 17 35 17 3 l 17 625 l 211 625 l 211 239 q 226 136 211 181 q 293 72 247 72 q 367 136 340 72 q 388 240 388 185 l 388 625 l 581 625 l 581 175 q 613 93 581 93 q 657 135 636 93 q 678 197 672 165 l 721 197 z "},"Ω":{"ha":1032,"x_min":0,"x_max":917,"o":"m 896 -7 l 528 -7 l 528 244 q 653 376 610 276 q 689 560 689 458 q 638 776 689 685 q 458 889 574 889 q 281 776 343 889 q 228 560 228 685 q 264 376 228 460 q 389 244 307 276 l 389 -7 l 19 -7 l 19 256 l 57 256 q 81 181 56 199 q 158 167 101 167 l 342 167 l 342 201 q 103 318 196 229 q 0 558 0 417 q 144 839 0 733 q 456 935 274 935 q 771 839 639 935 q 917 557 917 733 q 814 318 917 415 q 574 201 719 229 l 574 167 l 736 167 q 831 175 814 167 q 860 256 861 189 l 896 256 l 896 -7 z "},"":{"ha":676,"x_min":0,"x_max":578,"o":"m 501 803 q 476 742 501 767 q 415 718 451 718 q 343 794 343 718 q 356 839 343 814 q 368 874 368 864 q 355 888 368 882 q 333 894 342 894 q 265 788 265 894 l 265 625 l 379 625 l 379 558 l 265 558 l 265 147 q 281 60 265 79 q 371 33 301 33 l 371 0 l 0 0 l 0 33 q 63 61 47 33 q 74 132 74 81 l 74 558 l 1 558 l 1 625 l 74 625 l 74 713 q 141 877 74 815 q 313 939 208 939 q 438 907 383 939 q 501 803 501 869 m 419 731 q 345 759 374 731 q 317 832 317 788 q 345 907 317 878 q 419 936 374 936 q 492 906 464 936 q 521 832 521 876 q 492 759 521 788 q 419 731 464 731 m 578 0 l 251 0 l 251 33 q 319 113 319 33 l 319 508 q 256 593 319 593 l 256 625 l 511 625 l 511 113 q 578 33 511 33 l 578 0 z "},"":{"ha":706,"x_min":-1,"x_max":604,"o":"m 604 0 l 278 0 l 278 33 q 346 113 346 33 l 346 803 q 282 888 346 888 l 282 919 l 538 919 l 538 113 q 604 33 538 33 l 604 0 m 500 803 q 475 742 500 767 q 414 718 450 718 q 342 794 342 718 q 354 839 342 814 q 367 874 367 864 q 353 888 367 882 q 332 894 340 894 q 264 788 264 894 l 264 625 l 378 625 l 378 558 l 264 558 l 264 147 q 279 60 264 79 q 369 33 300 33 l 369 0 l -1 0 l -1 33 q 61 61 46 33 q 72 132 72 81 l 72 558 l 0 558 l 0 625 l 72 625 l 72 713 q 140 877 72 815 q 311 939 207 939 q 436 907 382 939 q 500 803 500 869 z "},"Ł":{"ha":878,"x_min":1,"x_max":832,"o":"m 832 313 l 781 0 l 1 0 l 1 35 q 94 67 68 40 q 121 161 121 94 l 121 765 q 97 860 121 835 q 3 886 72 886 l 3 919 l 474 919 l 474 886 q 367 865 393 886 q 336 765 336 842 l 336 167 q 343 93 336 111 q 401 56 356 61 q 449 54 419 54 q 668 121 583 54 q 796 313 743 181 l 832 313 m 444 686 l 94 272 l 11 272 l 360 686 l 444 686 z "},"ł":{"ha":358,"x_min":-19,"x_max":358,"o":"m 329 0 l 3 0 l 3 33 q 71 113 71 33 l 71 803 q 7 888 71 888 l 7 919 l 263 919 l 263 113 q 329 33 263 33 l 329 0 m 358 679 l 54 246 l -19 246 l 285 679 l 358 679 z "},"Š":{"ha":733,"x_min":0,"x_max":636,"o":"m 636 275 q 531 60 636 139 q 294 -11 436 -11 q 194 9 260 -11 q 96 29 129 29 q 36 -14 51 29 l 0 -14 l 0 326 l 39 326 q 124 131 61 208 q 306 36 197 36 q 425 78 375 36 q 475 186 475 119 q 356 338 475 274 q 132 454 244 396 q 13 679 13 539 q 94 874 13 797 q 294 950 176 950 q 401 927 332 950 q 506 904 469 904 q 558 949 551 904 l 597 949 l 597 651 l 563 651 q 472 826 543 756 q 296 903 397 903 q 194 869 235 903 q 153 775 153 835 q 278 625 153 692 q 511 504 394 565 q 636 275 636 415 m 89 1183 l 242 988 l 342 988 l 494 1183 l 438 1183 l 292 1075 l 146 1183 l 89 1183 z "},"š":{"ha":572,"x_min":0,"x_max":449,"o":"m 449 188 q 387 40 449 97 q 233 -17 325 -17 q 158 1 207 -17 q 83 18 110 18 q 31 -15 46 18 l 0 -15 l 0 211 l 36 211 q 96 88 51 138 q 217 32 146 32 q 286 53 256 32 q 317 113 317 75 q 236 222 317 176 q 85 303 160 263 q 3 447 3 360 q 65 588 3 532 q 213 643 128 643 q 283 628 238 643 q 351 614 329 614 q 393 643 379 614 l 421 643 l 421 446 l 389 446 q 331 549 371 507 q 225 596 285 596 q 165 576 190 596 q 140 519 140 556 q 221 422 140 468 q 369 338 368 339 q 449 188 449 276 m 18 911 l 171 715 l 271 715 l 424 911 l 367 911 l 221 803 l 75 911 l 18 911 z "},"Ž":{"ha":907,"x_min":0,"x_max":815,"o":"m 815 331 l 781 0 l 0 0 l 0 21 l 515 867 l 390 867 q 192 814 264 867 q 82 639 121 761 l 47 639 l 74 919 l 778 919 l 778 894 l 267 58 l 442 58 q 663 129 581 58 q 781 331 738 193 l 815 331 m 214 1182 l 367 986 l 467 986 l 619 1182 l 563 1182 l 417 1074 l 271 1182 l 214 1182 z "},"ž":{"ha":664,"x_min":0,"x_max":532,"o":"m 532 217 l 515 0 l 0 0 l 0 29 l 314 581 l 235 581 q 64 436 85 581 l 26 436 l 38 625 l 529 625 l 529 588 l 229 49 q 401 78 346 49 q 497 217 471 114 l 532 217 m 101 907 l 254 711 l 354 711 l 507 907 l 450 907 l 304 799 l 158 907 l 101 907 z "},"¦":{"ha":228,"x_min":0,"x_max":139,"o":"m 139 513 l 0 513 l 0 1015 l 139 1015 l 139 513 m 139 -164 l 0 -164 l 0 338 l 139 338 l 139 -164 z "},"Ð":{"ha":1003,"x_min":0,"x_max":914,"o":"m 914 458 q 783 114 914 233 q 429 0 657 0 l 10 0 l 10 35 q 119 151 119 43 l 119 756 q 93 856 119 824 q 0 886 67 888 l 0 919 l 417 919 q 774 803 640 919 q 914 458 914 679 m 678 454 q 631 725 678 617 q 424 874 565 874 q 336 786 336 874 l 336 146 q 351 74 336 94 q 422 49 371 49 q 678 454 678 49 m 393 342 l 42 342 l 42 500 l 393 500 l 393 342 z "},"ð":{"ha":707,"x_min":1,"x_max":625,"o":"m 204 322 q 213 140 204 181 q 315 26 235 26 q 404 99 381 26 q 422 321 422 158 q 403 546 422 485 q 315 618 381 618 q 213 504 235 618 q 204 322 204 464 m 360 656 q 292 761 338 706 l 72 653 l 51 703 l 254 804 q 124 950 181 893 l 153 981 q 354 854 246 929 l 563 956 l 588 908 l 406 817 q 625 354 625 638 q 538 83 625 183 q 311 -18 451 -18 q 90 76 178 -18 q 1 321 1 171 q 89 565 1 472 q 310 658 176 658 q 360 656 333 658 z "},"Ý":{"ha":999,"x_min":0,"x_max":914,"o":"m 914 885 q 799 789 857 885 l 568 408 l 568 161 q 594 63 568 92 q 688 35 619 35 l 688 0 l 231 0 l 231 35 q 324 64 297 35 q 350 161 350 93 l 350 361 l 119 779 q 0 885 67 876 l 0 919 l 444 919 l 444 885 q 339 842 339 885 q 356 789 339 821 l 528 454 l 699 738 q 728 819 728 786 q 622 885 728 885 l 622 919 l 914 919 l 914 885 m 433 983 l 494 983 l 628 1050 q 694 1125 694 1083 q 635 1185 694 1185 q 594 1174 610 1185 q 528 1103 572 1158 l 433 983 z "},"ý":{"ha":718,"x_min":0,"x_max":619,"o":"m 619 593 q 536 490 574 593 l 339 -49 q 264 -201 300 -154 q 119 -276 207 -276 q 35 -246 71 -276 q 0 -167 0 -215 q 22 -101 0 -126 q 83 -75 44 -75 q 140 -94 115 -75 q 165 -143 165 -112 q 165 -154 165 -147 q 164 -165 164 -162 q 188 -194 164 -194 q 263 -119 228 -194 q 296 -8 292 -60 l 85 506 q 58 564 65 553 q 6 592 39 592 l 6 625 l 340 625 l 340 593 q 274 554 274 593 q 324 400 274 531 q 388 239 356 319 l 478 488 q 492 547 492 526 q 422 593 492 593 l 422 625 l 619 625 l 619 593 m 292 713 l 353 713 l 486 779 q 553 854 553 813 q 493 914 553 914 q 451 903 468 914 q 386 832 429 888 l 292 713 z "},"Þ":{"ha":783,"x_min":0,"x_max":669,"o":"m 429 794 q 614 686 547 794 q 669 469 669 594 q 611 246 669 339 q 421 135 543 135 q 261 218 319 135 l 261 165 q 276 69 261 96 q 363 35 299 35 l 363 1 l 0 1 l 0 32 q 69 132 69 32 l 69 771 q 63 850 69 832 q 3 888 50 888 l 3 918 l 251 918 l 251 681 q 429 794 313 794 m 364 711 q 261 625 304 711 l 261 292 q 360 210 304 210 q 456 314 424 210 q 479 469 479 386 q 458 615 479 550 q 364 711 428 711 z "},"þ":{"ha":783,"x_min":0,"x_max":669,"o":"m 429 643 q 614 535 547 643 q 669 318 669 443 q 611 94 669 188 q 421 -17 543 -17 q 261 67 319 -17 l 261 -112 q 276 -208 261 -182 q 363 -243 299 -243 l 363 -276 l 0 -276 l 0 -246 q 69 -146 69 -246 l 69 785 q 63 857 69 842 q 3 888 50 888 l 3 918 l 251 918 l 251 529 q 429 643 313 643 m 364 560 q 261 474 304 560 l 261 140 q 360 58 304 58 q 456 163 424 58 q 479 318 479 235 q 458 464 479 399 q 364 560 428 560 z "},"−":{"ha":447,"x_min":0,"x_max":326,"o":"m 326 228 l 0 228 l 0 389 l 326 389 l 326 228 z "},"×":{"ha":726,"x_min":1,"x_max":642,"o":"m 642 0 l 324 0 l 324 24 q 397 56 397 24 q 374 111 397 75 l 283 257 l 181 114 q 161 65 161 86 q 233 24 161 24 l 233 0 l 1 0 l 1 24 q 114 93 64 24 l 260 294 l 96 544 q 6 619 47 619 l 6 643 l 331 643 l 331 619 q 254 589 254 619 q 301 496 254 569 q 361 408 332 453 l 442 528 q 465 583 465 563 q 401 619 465 619 l 401 643 l 633 643 l 633 619 q 490 528 554 619 l 383 372 l 569 81 q 642 24 606 24 l 642 0 z "},"¹":{"ha":308,"x_min":44,"x_max":308,"o":"m 308 467 l 44 467 l 44 482 q 121 517 108 482 q 125 533 125 528 l 125 821 q 94 860 125 860 q 49 844 75 860 l 49 861 l 217 933 l 228 933 l 228 533 q 308 482 228 482 l 308 467 z "},"²":{"ha":394,"x_min":28,"x_max":335,"o":"m 335 618 l 306 469 l 28 469 l 28 490 q 146 619 138 608 q 215 774 215 708 q 194 835 215 810 q 138 861 174 861 q 56 800 78 861 l 40 800 q 91 897 49 858 q 192 936 133 936 q 276 903 244 936 q 308 818 308 871 q 278 721 308 768 q 208 644 260 694 l 126 561 l 217 561 q 282 570 264 561 q 321 618 300 579 l 335 618 z "},"³":{"ha":364,"x_min":31,"x_max":332,"o":"m 308 849 q 256 760 308 797 q 332 638 332 714 q 270 513 332 564 q 133 461 208 461 q 68 474 96 461 q 31 524 31 490 q 76 565 31 565 q 135 531 103 565 q 193 496 168 496 q 240 524 222 496 q 256 576 256 547 q 124 714 256 675 l 124 726 q 182 756 168 744 q 208 814 208 778 q 144 881 208 881 q 58 828 92 881 l 46 835 q 200 938 94 938 q 276 914 243 938 q 308 849 308 890 z "},"½":{"ha":850,"x_min":47,"x_max":797,"o":"m 797 149 l 768 1 l 490 1 l 490 21 q 608 151 600 139 q 678 304 678 239 q 657 367 678 342 q 600 392 636 392 q 518 332 540 392 l 503 332 q 553 428 510 390 q 654 467 596 467 q 739 434 707 467 q 771 349 771 401 q 739 253 771 299 q 671 175 722 226 l 589 93 l 679 93 q 744 102 726 93 q 783 149 763 111 l 797 149 m 311 472 l 47 472 l 47 488 q 124 522 111 488 q 128 540 128 533 l 128 826 q 97 865 128 865 q 51 851 78 865 l 51 867 l 218 940 l 231 940 l 231 540 q 311 488 231 488 l 311 472 m 506 821 l 290 74 l 239 74 l 454 821 l 506 821 z "},"¼":{"ha":774,"x_min":43,"x_max":722,"o":"m 307 476 l 43 476 l 43 492 q 119 526 107 492 q 124 543 124 538 l 124 831 q 93 869 124 869 q 47 854 74 869 l 47 871 l 215 943 l 226 943 l 226 543 q 307 492 226 492 l 307 476 m 486 821 l 271 74 l 219 74 l 435 821 l 486 821 m 722 103 l 682 103 l 682 0 l 585 0 l 585 103 l 417 103 l 417 178 l 628 468 l 682 468 l 682 176 l 722 176 l 722 103 m 585 176 l 585 369 l 447 176 l 585 176 z "},"¾":{"ha":901,"x_min":33,"x_max":811,"o":"m 811 103 l 769 103 l 769 0 l 672 0 l 672 103 l 506 103 l 506 178 l 717 468 l 769 468 l 769 176 l 811 176 l 811 103 m 672 176 l 672 369 l 535 176 l 672 176 m 311 851 q 258 763 311 800 q 335 639 335 715 q 274 514 335 565 q 138 463 213 463 q 71 475 100 463 q 33 525 33 493 q 81 568 33 568 q 139 533 107 568 q 196 499 171 499 q 242 524 225 499 q 260 579 260 549 q 126 715 260 678 l 126 728 q 186 758 171 746 q 213 817 213 779 q 147 883 213 883 q 61 829 96 883 l 49 836 q 204 940 97 940 q 279 917 247 940 q 311 851 311 893 m 538 821 l 322 74 l 271 74 l 486 821 l 538 821 z "},"₣":{"ha":1215,"x_min":0,"x_max":1121,"o":"m 765 644 l 733 644 q 622 832 710 782 q 403 871 553 871 q 353 857 367 871 q 339 804 339 843 l 339 497 q 543 700 543 497 l 581 700 l 581 239 l 546 239 q 339 451 546 451 l 339 163 q 378 60 339 86 q 488 35 406 40 l 488 0 l 3 0 l 3 35 q 99 72 75 46 q 122 169 122 99 l 122 757 q 96 852 122 826 q 0 886 69 878 l 0 919 l 765 919 l 765 644 m 1035 447 q 967 485 997 447 q 921 522 936 522 q 856 474 879 522 q 836 388 836 435 l 836 113 q 935 33 836 33 l 935 0 l 575 0 l 575 33 q 643 113 643 33 l 643 508 q 579 593 643 593 l 579 625 l 832 625 l 832 507 q 1017 642 904 642 q 1092 612 1063 642 q 1121 536 1121 582 q 1097 472 1121 497 q 1035 447 1074 447 z "},"Ğ":{"ha":935,"x_min":0,"x_max":953,"o":"m 953 368 q 867 345 889 369 q 844 258 844 321 l 844 56 q 492 -21 674 -21 q 138 110 275 -21 q 0 456 0 240 q 129 801 0 661 q 464 942 258 942 q 606 913 519 942 q 719 885 692 885 q 789 942 767 885 l 828 942 l 828 621 l 792 621 q 678 807 757 731 q 485 894 590 894 q 283 742 353 894 q 232 475 232 626 q 289 189 232 317 q 501 24 363 24 q 636 143 636 24 l 636 258 q 599 349 636 326 q 500 368 575 363 l 500 400 l 953 400 l 953 368 m 249 1179 l 300 1179 q 458 1096 322 1096 q 615 1179 594 1096 l 667 1179 q 458 983 639 983 q 249 1179 279 983 z "},"ğ":{"ha":719,"x_min":0,"x_max":611,"o":"m 611 542 l 511 542 q 561 414 561 482 q 483 264 561 324 q 319 208 413 208 q 297 208 313 208 q 275 210 282 210 q 175 143 175 210 q 242 103 175 103 q 287 106 258 103 q 322 108 315 108 q 608 -56 608 108 q 489 -229 608 -169 q 268 -278 394 -278 q 106 -250 183 -278 q 0 -144 0 -214 q 110 -40 0 -71 q 19 72 19 7 q 175 222 19 168 q 13 424 13 283 q 103 589 13 526 q 290 643 183 643 q 397 629 342 643 q 442 615 418 622 q 611 615 442 615 l 611 542 m 288 251 q 361 313 338 251 q 378 417 378 358 q 360 528 378 475 q 288 601 335 601 q 214 538 239 601 q 196 432 196 490 q 214 322 196 372 q 288 251 239 251 m 503 -122 q 385 -58 503 -58 l 167 -58 q 118 -136 118 -92 q 190 -210 118 -185 q 303 -228 243 -228 q 426 -207 369 -228 q 503 -122 503 -178 m 75 907 l 126 907 q 285 824 149 824 q 442 907 421 824 l 493 907 q 285 711 467 711 q 75 907 106 711 z "},"İ":{"ha":586,"x_min":0,"x_max":471,"o":"m 471 0 l 0 0 l 0 35 q 98 60 68 35 q 128 153 128 86 l 128 781 q 96 868 128 844 q 0 886 69 886 l 0 919 l 468 919 l 468 886 q 376 871 399 886 q 344 781 344 850 l 344 156 q 374 62 344 89 q 471 35 403 35 l 471 0 m 233 983 q 166 1012 192 983 q 140 1083 140 1040 q 166 1158 140 1128 q 233 1188 192 1188 q 300 1158 274 1188 q 326 1083 326 1128 q 300 1011 326 1039 q 233 983 274 983 z "},"Ş":{"ha":733,"x_min":0,"x_max":636,"o":"m 636 275 q 531 60 636 139 q 294 -11 436 -11 q 194 9 260 -11 q 96 29 129 29 q 36 -14 51 29 l 0 -14 l 0 326 l 39 326 q 124 131 61 208 q 306 36 197 36 q 425 78 375 36 q 475 186 475 119 q 356 338 475 274 q 132 454 244 396 q 13 679 13 539 q 94 874 13 797 q 294 950 176 950 q 401 927 332 950 q 506 904 469 904 q 558 949 551 904 l 597 949 l 597 651 l 563 651 q 472 826 543 756 q 296 903 397 903 q 194 869 235 903 q 153 775 153 835 q 278 625 153 692 q 511 504 394 565 q 636 275 636 415 m 214 -231 l 242 -171 q 283 -197 263 -185 q 354 -211 313 -211 q 413 -156 413 -211 q 394 -122 413 -129 q 342 -117 382 -117 q 303 -121 324 -117 l 303 0 l 350 0 l 350 -62 q 400 -58 383 -58 q 521 -154 521 -58 q 365 -276 521 -276 q 214 -231 297 -276 z "},"ş":{"ha":572,"x_min":0,"x_max":449,"o":"m 449 188 q 387 40 449 97 q 233 -17 325 -17 q 158 1 207 -17 q 83 18 110 18 q 31 -15 46 18 l 0 -15 l 0 211 l 36 211 q 96 88 51 138 q 217 32 146 32 q 286 53 256 32 q 317 113 317 75 q 236 222 317 176 q 85 303 160 263 q 3 447 3 360 q 65 588 3 532 q 213 643 128 643 q 283 628 238 643 q 351 614 329 614 q 393 643 379 614 l 421 643 l 421 446 l 389 446 q 331 549 371 507 q 225 596 285 596 q 165 576 190 596 q 140 519 140 556 q 221 422 140 468 q 369 338 368 339 q 449 188 449 276 m 117 -231 l 144 -171 q 186 -197 165 -185 q 256 -211 215 -211 q 314 -156 314 -211 q 296 -122 314 -129 q 243 -117 285 -117 q 204 -121 225 -117 l 204 0 l 251 0 l 251 -62 q 301 -58 285 -58 q 422 -154 422 -58 q 267 -276 422 -276 q 117 -231 200 -276 z "},"Ć":{"ha":893,"x_min":0,"x_max":846,"o":"m 846 179 q 683 32 788 85 q 463 -21 578 -21 q 128 115 256 -21 q 0 458 0 251 q 129 805 0 668 q 467 942 258 942 q 597 911 513 942 q 724 881 682 881 q 790 942 779 881 l 826 942 l 826 622 l 792 622 q 676 810 754 735 q 479 894 589 894 q 281 744 349 894 q 228 481 228 629 q 286 201 228 324 q 500 46 360 46 q 674 94 588 46 q 808 214 756 140 l 846 179 m 415 983 l 476 983 l 610 1050 q 676 1125 676 1083 q 617 1185 676 1185 q 576 1175 592 1185 q 510 1103 554 1160 l 415 983 z "},"ć":{"ha":613,"x_min":0,"x_max":533,"o":"m 533 121 q 278 -18 429 -18 q 71 78 149 -18 q 0 300 0 168 q 82 540 0 443 q 310 643 168 643 q 447 608 388 643 q 518 494 518 568 q 496 434 518 458 q 438 410 474 410 q 363 457 378 410 q 356 553 356 479 q 299 597 356 597 q 204 514 235 597 q 181 378 181 454 q 221 186 181 271 q 368 76 272 76 q 507 144 439 76 l 533 121 m 258 710 l 319 710 l 453 776 q 519 851 519 811 q 460 911 519 911 q 419 901 435 911 q 353 829 397 886 l 258 710 z "},"Č":{"ha":893,"x_min":0,"x_max":846,"o":"m 846 179 q 683 32 788 85 q 463 -21 578 -21 q 128 115 256 -21 q 0 458 0 251 q 129 805 0 668 q 467 942 258 942 q 597 911 513 942 q 724 881 682 881 q 790 942 779 881 l 826 942 l 826 622 l 792 622 q 676 810 754 735 q 479 894 589 894 q 281 744 349 894 q 228 481 228 629 q 286 201 228 324 q 500 46 360 46 q 674 94 588 46 q 808 214 756 140 l 846 179 m 246 1178 l 399 982 l 499 982 l 651 1178 l 594 1178 l 449 1069 l 303 1178 l 246 1178 z "},"č":{"ha":613,"x_min":0,"x_max":533,"o":"m 533 121 q 278 -18 429 -18 q 71 78 149 -18 q 0 300 0 168 q 82 540 0 443 q 310 643 168 643 q 447 608 388 643 q 518 494 518 568 q 496 434 518 458 q 438 410 474 410 q 363 457 378 410 q 356 553 356 479 q 299 597 356 597 q 204 514 235 597 q 181 378 181 454 q 221 186 181 271 q 368 76 272 76 q 507 144 439 76 l 533 121 m 99 906 l 251 710 l 351 710 l 504 906 l 447 906 l 301 797 l 156 906 l 99 906 z "},"đ":{"ha":788,"x_min":0,"x_max":674,"o":"m 674 21 q 410 -18 532 11 l 410 76 q 244 -18 360 -18 q 57 86 125 -18 q 0 301 0 175 q 60 529 0 432 q 254 643 131 643 q 410 565 347 643 l 410 808 q 314 888 410 889 l 314 919 l 604 919 l 604 151 q 674 56 604 54 l 674 21 m 410 153 l 410 489 q 376 543 410 519 q 311 567 343 567 q 213 464 246 567 q 190 307 190 392 q 211 156 190 225 q 304 56 242 56 q 372 90 335 56 q 410 153 410 124 m 667 711 l 339 711 l 339 835 l 667 835 l 667 711 z "},"­":{"ha":429,"x_min":0,"x_max":326,"o":"m 326 256 l 0 256 l 0 417 l 326 417 l 326 256 z "},"Ā":{"ha":999,"x_min":0,"x_max":910,"o":"m 910 0 l 476 0 l 476 38 q 593 81 593 38 q 525 268 593 90 l 225 268 q 190 175 214 243 q 164 83 164 96 q 272 38 164 38 l 272 0 l 0 0 l 0 38 q 113 147 68 38 l 432 942 l 467 942 l 789 175 q 832 88 817 108 q 910 38 863 44 l 910 0 m 504 324 l 369 644 l 244 324 l 504 324 m 601 983 l 272 983 l 272 1107 l 601 1107 l 601 983 z "},"ā":{"ha":729,"x_min":0,"x_max":624,"o":"m 624 54 q 471 -19 572 -19 q 363 71 374 -19 q 156 -17 282 -17 q 43 20 86 -17 q 0 126 0 57 q 131 307 0 238 q 360 383 204 346 l 360 486 q 256 596 360 596 q 204 588 231 596 q 169 554 169 575 q 188 511 169 540 q 206 465 206 482 q 178 408 206 431 q 115 386 151 386 q 49 413 74 386 q 24 481 24 439 q 122 610 24 561 q 292 647 201 647 q 474 593 403 647 q 551 425 551 533 l 551 126 q 574 69 551 69 q 606 85 586 69 l 624 54 m 381 126 l 381 340 q 265 283 310 326 q 215 167 215 235 q 232 101 215 129 q 288 68 253 68 q 381 126 332 68 m 451 710 l 122 710 l 122 833 l 451 833 l 451 710 z "},"Ă":{"ha":999,"x_min":0,"x_max":910,"o":"m 910 0 l 476 0 l 476 38 q 593 81 593 38 q 525 268 593 90 l 225 268 q 190 175 214 243 q 164 83 164 96 q 272 38 164 38 l 272 0 l 0 0 l 0 38 q 113 147 68 38 l 432 942 l 467 942 l 789 175 q 832 88 817 108 q 910 38 863 44 l 910 0 m 504 324 l 369 644 l 244 324 l 504 324 m 239 1178 l 290 1178 q 449 1094 313 1094 q 606 1178 585 1094 l 657 1178 q 449 982 629 982 q 239 1178 268 982 z "},"ă":{"ha":729,"x_min":0,"x_max":624,"o":"m 624 54 q 471 -19 572 -19 q 363 71 374 -19 q 156 -17 282 -17 q 43 20 86 -17 q 0 126 0 57 q 131 307 0 238 q 360 383 204 346 l 360 486 q 256 596 360 596 q 204 588 231 596 q 169 554 169 575 q 188 511 169 540 q 206 465 206 482 q 178 408 206 431 q 115 386 151 386 q 49 413 74 386 q 24 481 24 439 q 122 610 24 561 q 292 647 201 647 q 474 593 403 647 q 551 425 551 533 l 551 126 q 574 69 551 69 q 606 85 586 69 l 624 54 m 381 126 l 381 340 q 265 283 310 326 q 215 167 215 235 q 232 101 215 129 q 288 68 253 68 q 381 126 332 68 m 101 911 l 153 911 q 311 828 175 828 q 468 911 447 828 l 519 911 q 311 715 492 715 q 101 911 131 715 z "},"Ą":{"ha":999,"x_min":0,"x_max":910,"o":"m 910 0 l 476 0 l 476 38 q 593 81 593 38 q 525 268 593 90 l 225 268 q 190 175 214 243 q 164 83 164 96 q 272 38 164 38 l 272 0 l 0 0 l 0 38 q 113 147 68 38 l 432 942 l 467 942 l 789 175 q 832 88 817 108 q 910 38 863 44 l 910 0 m 504 324 l 369 644 l 244 324 l 504 324 m 847 -231 l 819 -171 q 778 -197 799 -185 q 708 -211 749 -211 q 650 -156 650 -211 q 667 -122 650 -129 q 721 -117 679 -117 q 760 -121 739 -117 l 760 0 l 713 0 l 713 -62 q 663 -58 679 -58 q 542 -154 542 -58 q 697 -276 542 -276 q 847 -231 764 -276 z "},"ą":{"ha":729,"x_min":0,"x_max":624,"o":"m 624 54 q 471 -19 572 -19 q 363 71 374 -19 q 156 -17 282 -17 q 43 20 86 -17 q 0 126 0 57 q 131 307 0 238 q 360 383 204 346 l 360 486 q 256 596 360 596 q 204 588 231 596 q 169 554 169 575 q 188 511 169 540 q 206 465 206 482 q 178 408 206 431 q 115 386 151 386 q 49 413 74 386 q 24 481 24 439 q 122 610 24 561 q 292 647 201 647 q 474 593 403 647 q 551 425 551 533 l 551 126 q 574 69 551 69 q 606 85 586 69 l 624 54 m 381 126 l 381 340 q 265 283 310 326 q 215 167 215 235 q 232 101 215 129 q 288 68 253 68 q 381 126 332 68 m 589 -231 l 561 -171 q 519 -197 540 -185 q 449 -211 490 -211 q 390 -156 390 -211 q 408 -122 390 -129 q 461 -117 419 -117 q 500 -121 479 -117 l 500 0 l 453 0 l 453 -62 q 403 -58 419 -58 q 282 -154 282 -58 q 438 -276 282 -276 q 589 -231 506 -276 z "},"Ĉ":{"ha":893,"x_min":0,"x_max":846,"o":"m 846 179 q 683 32 788 85 q 463 -21 578 -21 q 128 115 256 -21 q 0 458 0 251 q 129 805 0 668 q 467 942 258 942 q 597 911 513 942 q 724 881 682 881 q 790 942 779 881 l 826 942 l 826 622 l 792 622 q 676 810 754 735 q 479 894 589 894 q 281 744 349 894 q 228 481 228 629 q 286 201 228 324 q 500 46 360 46 q 674 94 588 46 q 808 214 756 140 l 846 179 m 240 982 l 393 1178 l 493 1178 l 646 982 l 589 982 l 443 1090 l 297 982 l 240 982 z "},"ĉ":{"ha":613,"x_min":0,"x_max":533,"o":"m 533 121 q 278 -18 429 -18 q 71 78 149 -18 q 0 300 0 168 q 82 540 0 443 q 310 643 168 643 q 447 608 388 643 q 518 494 518 568 q 496 434 518 458 q 438 410 474 410 q 363 457 378 410 q 356 553 356 479 q 299 597 356 597 q 204 514 235 597 q 181 378 181 454 q 221 186 181 271 q 368 76 272 76 q 507 144 439 76 l 533 121 m 90 711 l 243 907 l 343 907 l 496 711 l 439 711 l 293 819 l 147 711 l 90 711 z "},"Ċ":{"ha":893,"x_min":0,"x_max":846,"o":"m 846 179 q 683 32 788 85 q 463 -21 578 -21 q 128 115 256 -21 q 0 458 0 251 q 129 805 0 668 q 467 942 258 942 q 597 911 513 942 q 724 881 682 881 q 790 942 779 881 l 826 942 l 826 622 l 792 622 q 676 810 754 735 q 479 894 589 894 q 281 744 349 894 q 228 481 228 629 q 286 201 228 324 q 500 46 360 46 q 674 94 588 46 q 808 214 756 140 l 846 179 m 454 983 q 387 1011 413 983 q 361 1083 361 1039 q 387 1158 361 1128 q 454 1188 413 1188 q 521 1158 494 1188 q 547 1083 547 1128 q 521 1011 547 1039 q 454 983 494 983 z "},"ċ":{"ha":613,"x_min":0,"x_max":533,"o":"m 533 121 q 278 -18 429 -18 q 71 78 149 -18 q 0 300 0 168 q 82 540 0 443 q 310 643 168 643 q 447 608 388 643 q 518 494 518 568 q 496 434 518 458 q 438 410 474 410 q 363 457 378 410 q 356 553 356 479 q 299 597 356 597 q 204 514 235 597 q 181 378 181 454 q 221 186 181 271 q 368 76 272 76 q 507 144 439 76 l 533 121 m 276 710 q 210 738 236 710 q 185 811 185 767 q 210 885 185 856 q 276 914 236 914 q 344 884 318 914 q 369 810 369 854 q 344 738 369 765 q 276 710 318 710 z "},"Ď":{"ha":1003,"x_min":0,"x_max":914,"o":"m 914 458 q 783 114 914 233 q 429 0 657 0 l 10 0 l 10 35 q 119 151 119 43 l 119 756 q 93 856 119 824 q 0 886 67 888 l 0 919 l 417 919 q 774 803 640 919 q 914 458 914 679 m 678 454 q 631 726 678 618 q 424 874 565 874 q 336 786 336 874 l 336 146 q 351 74 336 94 q 422 49 371 49 q 678 454 678 49 m 29 1176 l 182 981 l 282 981 l 435 1176 l 378 1176 l 232 1068 l 86 1176 l 29 1176 z "},"ď":{"ha":722,"x_min":0,"x_max":693,"o":"m 674 21 q 410 -18 532 11 l 410 76 q 244 -18 360 -18 q 57 86 125 -18 q 0 301 0 175 q 60 529 0 432 q 254 643 131 643 q 410 565 347 643 l 410 808 q 314 888 410 889 l 314 919 l 604 919 l 604 151 q 674 56 604 54 l 674 21 m 410 153 l 410 489 q 376 543 410 519 q 311 567 343 567 q 213 464 246 567 q 190 307 190 392 q 211 156 190 225 q 304 56 242 56 q 372 90 335 56 q 410 153 410 124 m 288 1178 l 440 982 l 540 982 l 693 1178 l 636 1178 l 490 1069 l 344 1178 l 288 1178 z "},"Đ":{"ha":1003,"x_min":0,"x_max":914,"o":"m 914 458 q 782 114 914 233 q 429 0 656 0 l 10 0 l 10 35 q 119 151 119 43 l 119 756 q 93 856 119 824 q 0 886 67 888 l 0 919 l 417 919 q 774 803 640 919 q 914 458 914 679 m 678 454 q 629 725 678 617 q 424 874 564 874 q 335 786 335 874 l 336 146 q 351 74 336 94 q 422 49 369 49 q 678 454 678 49 m 408 346 l 39 346 l 39 506 l 408 506 l 408 346 z "},"Ē":{"ha":926,"x_min":0,"x_max":842,"o":"m 842 289 l 786 0 l 0 0 l 0 35 q 97 61 68 35 q 126 156 126 88 l 126 746 q 103 850 126 818 q 7 886 76 888 l 7 919 l 778 919 l 778 646 l 747 646 q 653 825 731 774 q 451 869 586 869 q 368 860 385 869 q 342 783 342 844 l 342 494 q 556 696 556 494 l 588 696 l 588 238 l 553 238 q 342 449 553 449 l 342 149 q 411 56 342 56 q 650 104 560 56 q 804 289 753 160 l 842 289 m 558 983 l 231 983 l 231 1107 l 558 1107 l 558 983 z "},"ē":{"ha":638,"x_min":0,"x_max":535,"o":"m 535 147 q 275 -19 433 -19 q 69 88 147 -19 q 0 317 0 183 q 75 542 0 449 q 282 643 154 643 q 472 546 404 643 q 532 333 532 461 l 196 333 q 231 174 196 244 q 354 83 274 83 q 506 172 429 83 l 535 147 m 368 388 l 368 458 q 353 549 368 510 q 288 601 332 601 q 217 550 243 601 q 196 460 196 510 l 196 388 l 368 388 m 438 713 l 110 713 l 110 835 l 438 835 l 438 713 z "},"Ĕ":{"ha":926,"x_min":0,"x_max":842,"o":"m 842 289 l 786 0 l 0 0 l 0 35 q 97 61 68 35 q 126 156 126 88 l 126 746 q 103 850 126 818 q 7 886 76 888 l 7 919 l 778 919 l 778 646 l 747 646 q 653 825 731 774 q 451 869 586 869 q 368 860 385 869 q 342 783 342 844 l 342 494 q 556 696 556 494 l 588 696 l 588 238 l 553 238 q 342 449 553 449 l 342 149 q 411 56 342 56 q 650 104 560 56 q 804 289 753 160 l 842 289 m 158 1179 l 210 1179 q 368 1096 232 1096 q 525 1179 504 1096 l 576 1179 q 368 983 549 983 q 158 1179 189 983 z "},"ĕ":{"ha":638,"x_min":0,"x_max":535,"o":"m 535 147 q 275 -19 433 -19 q 69 88 147 -19 q 0 317 0 183 q 75 542 0 449 q 282 643 154 643 q 472 546 404 643 q 532 333 532 461 l 196 333 q 231 174 196 244 q 354 83 274 83 q 506 172 429 83 l 535 147 m 368 388 l 368 458 q 353 549 368 510 q 288 601 332 601 q 217 550 243 601 q 196 460 196 510 l 196 388 l 368 388 m 63 906 l 114 906 q 272 822 136 822 q 429 906 408 822 l 481 906 q 272 710 453 710 q 63 906 93 710 z "},"Ė":{"ha":926,"x_min":0,"x_max":842,"o":"m 842 289 l 786 0 l 0 0 l 0 35 q 97 61 68 35 q 126 156 126 88 l 126 746 q 103 850 126 818 q 7 886 76 888 l 7 919 l 778 919 l 778 646 l 747 646 q 653 825 731 774 q 451 869 586 869 q 368 860 385 869 q 342 783 342 844 l 342 494 q 556 696 556 494 l 588 696 l 588 238 l 553 238 q 342 449 553 449 l 342 149 q 411 56 342 56 q 650 104 560 56 q 804 289 753 160 l 842 289 m 360 983 q 292 1012 318 983 q 267 1085 267 1040 q 292 1158 267 1129 q 360 1188 318 1188 q 426 1158 400 1188 q 453 1083 453 1128 q 427 1011 453 1039 q 360 983 401 983 z "},"ė":{"ha":638,"x_min":0,"x_max":535,"o":"m 535 147 q 275 -19 433 -19 q 69 88 147 -19 q 0 317 0 183 q 75 542 0 449 q 282 643 154 643 q 472 546 404 643 q 532 333 532 461 l 196 333 q 231 174 196 244 q 354 83 274 83 q 506 172 429 83 l 535 147 m 368 388 l 368 458 q 353 549 368 510 q 288 601 332 601 q 217 550 243 601 q 196 460 196 510 l 196 388 l 368 388 m 283 711 q 216 740 242 711 q 190 813 190 768 q 216 886 190 857 q 283 915 242 915 q 350 885 324 915 q 376 811 376 856 q 350 739 376 767 q 283 711 324 711 z "},"Ę":{"ha":926,"x_min":0,"x_max":842,"o":"m 842 289 l 786 0 l 0 0 l 0 35 q 97 61 68 35 q 126 156 126 88 l 126 746 q 103 850 126 818 q 7 886 76 888 l 7 919 l 778 919 l 778 646 l 747 646 q 653 825 731 774 q 451 869 586 869 q 368 860 385 869 q 342 783 342 844 l 342 494 q 556 696 556 494 l 588 696 l 588 238 l 553 238 q 342 449 553 449 l 342 149 q 411 56 342 56 q 650 104 560 56 q 804 289 753 160 l 842 289 m 544 -231 l 517 -171 q 475 -197 496 -185 q 406 -211 447 -211 q 347 -156 347 -211 q 365 -122 347 -129 q 418 -117 376 -117 q 457 -121 436 -117 l 457 0 l 410 0 l 410 -62 q 360 -58 376 -58 q 239 -154 239 -58 q 394 -276 239 -276 q 544 -231 461 -276 z "},"ę":{"ha":638,"x_min":0,"x_max":535,"o":"m 535 147 q 275 -19 433 -19 q 69 88 147 -19 q 0 317 0 183 q 75 542 0 449 q 282 643 154 643 q 472 546 404 643 q 532 333 532 461 l 196 333 q 231 174 196 244 q 354 83 274 83 q 506 172 429 83 l 535 147 m 368 388 l 368 458 q 353 549 368 510 q 288 601 332 601 q 217 550 243 601 q 196 460 196 510 l 196 388 l 368 388 m 396 -225 l 368 -165 q 326 -192 347 -179 q 257 -206 297 -206 q 199 -150 199 -206 q 215 -117 199 -124 q 269 -111 228 -111 q 308 -115 288 -111 l 308 6 l 261 6 l 261 -57 q 211 -53 228 -53 q 90 -149 90 -53 q 246 -271 90 -271 q 396 -225 313 -271 z "},"Ě":{"ha":926,"x_min":0,"x_max":842,"o":"m 842 289 l 786 0 l 0 0 l 0 35 q 97 61 68 35 q 126 156 126 88 l 126 746 q 103 850 126 818 q 7 886 76 888 l 7 919 l 778 919 l 778 646 l 747 646 q 653 825 731 774 q 451 869 586 869 q 368 860 385 869 q 342 783 342 844 l 342 494 q 556 696 556 494 l 588 696 l 588 238 l 553 238 q 342 449 553 449 l 342 149 q 411 56 342 56 q 650 104 560 56 q 804 289 753 160 l 842 289 m 146 1182 l 299 986 l 399 986 l 551 1182 l 494 1182 l 349 1074 l 203 1182 l 146 1182 z "},"ě":{"ha":638,"x_min":0,"x_max":535,"o":"m 535 147 q 275 -19 433 -19 q 69 88 147 -19 q 0 317 0 183 q 75 542 0 449 q 282 643 154 643 q 472 546 404 643 q 532 333 532 461 l 196 333 q 231 174 196 244 q 354 83 274 83 q 506 172 429 83 l 535 147 m 368 388 l 368 458 q 353 549 368 510 q 288 601 332 601 q 217 550 243 601 q 196 460 196 510 l 196 388 l 368 388 m 86 907 l 239 711 l 339 711 l 492 907 l 435 907 l 289 799 l 143 907 l 86 907 z "},"Ĝ":{"ha":935,"x_min":0,"x_max":953,"o":"m 953 368 q 867 345 889 369 q 844 258 844 321 l 844 56 q 492 -21 674 -21 q 138 110 275 -21 q 0 456 0 240 q 129 801 0 661 q 464 942 258 942 q 606 913 519 942 q 719 885 692 885 q 789 942 767 885 l 828 942 l 828 621 l 792 621 q 678 807 757 731 q 485 894 590 894 q 283 742 353 894 q 232 475 232 626 q 289 189 232 317 q 501 24 363 24 q 636 143 636 24 l 636 258 q 599 349 636 326 q 500 368 575 363 l 500 400 l 953 400 l 953 368 m 240 1178 l 393 982 l 493 982 l 646 1178 l 589 1178 l 443 1069 l 297 1178 l 240 1178 z "},"ĝ":{"ha":719,"x_min":0,"x_max":611,"o":"m 611 542 l 511 542 q 561 414 561 482 q 483 264 561 324 q 319 208 413 208 q 297 208 313 208 q 275 210 282 210 q 175 143 175 210 q 242 103 175 103 q 287 106 258 103 q 322 108 315 108 q 608 -56 608 108 q 489 -229 608 -169 q 268 -278 394 -278 q 106 -250 183 -278 q 0 -144 0 -214 q 110 -40 0 -71 q 19 72 19 7 q 175 222 19 168 q 13 424 13 283 q 103 589 13 526 q 290 643 183 643 q 397 629 342 643 q 442 615 418 622 q 611 615 442 615 l 611 542 m 288 251 q 361 313 338 251 q 378 417 378 358 q 360 528 378 475 q 288 601 335 601 q 214 538 239 601 q 196 432 196 490 q 214 322 196 372 q 288 251 239 251 m 503 -122 q 385 -58 503 -58 l 167 -58 q 118 -136 118 -92 q 190 -210 118 -185 q 303 -228 243 -228 q 426 -207 369 -228 q 503 -122 503 -178 m 85 907 l 238 711 l 338 711 l 490 907 l 433 907 l 288 799 l 142 907 l 85 907 z "},"Ġ":{"ha":935,"x_min":0,"x_max":953,"o":"m 953 368 q 867 345 889 369 q 844 258 844 321 l 844 56 q 492 -21 674 -21 q 138 110 275 -21 q 0 456 0 240 q 129 801 0 661 q 464 942 258 942 q 606 913 519 942 q 719 885 692 885 q 789 942 767 885 l 828 942 l 828 621 l 792 621 q 678 807 757 731 q 485 894 590 894 q 283 742 353 894 q 232 475 232 626 q 289 189 232 317 q 501 24 363 24 q 636 143 636 24 l 636 258 q 599 349 636 326 q 500 368 575 363 l 500 400 l 953 400 l 953 368 m 454 983 q 388 1011 414 983 q 363 1083 363 1039 q 388 1158 363 1128 q 454 1188 414 1188 q 522 1158 496 1188 q 547 1083 547 1128 q 522 1011 547 1039 q 454 983 496 983 z "},"ġ":{"ha":719,"x_min":0,"x_max":611,"o":"m 611 542 l 511 542 q 561 414 561 482 q 483 264 561 324 q 319 208 413 208 q 297 208 313 208 q 275 210 282 210 q 175 143 175 210 q 242 103 175 103 q 287 106 258 103 q 322 108 315 108 q 608 -56 608 108 q 489 -229 608 -169 q 268 -278 394 -278 q 106 -250 183 -278 q 0 -144 0 -214 q 110 -40 0 -71 q 19 72 19 7 q 175 222 19 168 q 13 424 13 283 q 103 589 13 526 q 290 643 183 643 q 397 629 342 643 q 442 615 418 622 q 611 615 442 615 l 611 542 m 288 251 q 361 313 338 251 q 378 417 378 358 q 360 528 378 475 q 288 601 335 601 q 214 538 239 601 q 196 432 196 490 q 214 322 196 372 q 288 251 239 251 m 503 -122 q 385 -58 503 -58 l 167 -58 q 118 -136 118 -92 q 190 -210 118 -185 q 303 -228 243 -228 q 426 -207 369 -228 q 503 -122 503 -178 m 288 710 q 222 738 247 710 q 196 810 196 767 q 222 884 196 854 q 288 914 247 914 q 356 884 329 914 q 382 810 382 854 q 356 738 382 765 q 288 710 329 710 z "},"Ģ":{"ha":935,"x_min":0,"x_max":953,"o":"m 953 368 q 867 345 889 369 q 844 258 844 321 l 844 56 q 492 -21 674 -21 q 138 110 275 -21 q 0 456 0 240 q 129 801 0 661 q 464 942 258 942 q 606 913 519 942 q 719 885 692 885 q 789 942 767 885 l 828 942 l 828 621 l 792 621 q 678 807 757 731 q 485 894 590 894 q 283 742 353 894 q 232 475 232 626 q 289 189 232 317 q 501 24 363 24 q 636 143 636 24 l 636 258 q 599 349 636 326 q 500 368 575 363 l 500 400 l 953 400 l 953 368 m 392 -231 l 419 -171 q 461 -197 440 -185 q 531 -211 489 -211 q 589 -156 589 -211 q 571 -122 589 -129 q 518 -117 560 -117 q 479 -121 500 -117 l 479 0 l 526 0 l 526 -62 q 576 -58 560 -58 q 697 -154 697 -58 q 542 -276 697 -276 q 392 -231 475 -276 z "},"ģ":{"ha":719,"x_min":0,"x_max":611,"o":"m 611 542 l 511 542 q 561 414 561 482 q 483 264 561 324 q 319 208 413 208 q 297 208 313 208 q 275 210 282 210 q 175 143 175 210 q 242 103 175 103 q 287 106 258 103 q 322 108 315 108 q 608 -56 608 108 q 489 -229 608 -169 q 268 -278 394 -278 q 106 -250 183 -278 q 0 -144 0 -214 q 110 -40 0 -71 q 19 72 19 7 q 175 222 19 168 q 13 424 13 283 q 103 589 13 526 q 290 643 183 643 q 397 629 342 643 q 442 615 418 622 q 611 615 442 615 l 611 542 m 288 251 q 361 313 338 251 q 378 417 378 358 q 360 528 378 475 q 288 601 335 601 q 214 538 239 601 q 196 432 196 490 q 214 322 196 372 q 288 251 239 251 m 503 -122 q 385 -58 503 -58 l 167 -58 q 118 -136 118 -92 q 190 -210 118 -185 q 303 -228 243 -228 q 426 -207 369 -228 q 503 -122 503 -178 m 149 -146 l 176 -86 q 219 -112 199 -100 q 289 -126 247 -126 q 347 -71 347 -126 q 329 -37 347 -44 q 276 -32 318 -32 q 238 -36 258 -32 l 238 85 l 285 85 l 285 22 q 335 26 318 26 q 456 -69 456 26 q 300 -192 456 -192 q 149 -146 232 -192 z "},"Ĥ":{"ha":1110,"x_min":0,"x_max":993,"o":"m 993 0 l 536 0 l 536 35 q 634 60 611 35 q 657 161 657 86 l 657 446 l 335 446 l 335 161 q 361 63 335 90 q 457 35 388 35 l 457 0 l 0 0 l 0 35 q 93 65 67 35 q 119 161 119 94 l 119 765 q 95 861 119 836 q 1 886 71 886 l 1 919 l 457 919 l 457 886 q 361 861 388 886 q 335 765 335 836 l 335 506 l 657 506 l 657 765 q 632 861 657 836 q 536 886 607 886 l 536 919 l 993 919 l 993 886 q 901 859 928 886 q 874 765 874 832 l 874 161 q 901 65 874 94 q 993 35 928 35 l 993 0 m 297 983 l 450 1179 l 550 1179 l 703 983 l 646 983 l 500 1092 l 354 983 l 297 983 z "},"ĥ":{"ha":811,"x_min":-54,"x_max":697,"o":"m 697 0 l 372 0 l 372 33 q 438 113 438 33 l 438 439 q 368 551 438 551 q 261 476 310 551 l 261 113 q 328 33 261 33 l 328 0 l 0 0 l 0 33 q 68 113 68 33 l 68 804 q 3 888 68 888 l 3 919 l 261 919 l 261 540 q 449 646 331 646 q 586 581 536 646 q 631 429 631 521 l 631 113 q 697 33 631 33 l 697 0 m -54 983 l 99 1179 l 199 1179 l 351 983 l 294 983 l 149 1092 l 3 983 l -54 983 z "},"Ħ":{"ha":1110,"x_min":0,"x_max":994,"o":"m 993 0 l 536 0 l 536 35 q 634 60 611 35 q 657 161 657 86 l 657 446 l 335 446 l 335 161 q 361 63 335 90 q 457 35 388 35 l 457 0 l 0 0 l 0 35 q 93 65 67 35 q 119 161 119 94 l 119 765 q 95 861 119 836 q 1 886 71 886 l 1 919 l 457 919 l 457 886 q 361 861 388 886 q 335 765 335 836 l 335 506 l 657 506 l 657 765 q 632 860 657 835 q 536 886 607 886 l 536 919 l 993 919 l 993 886 q 901 858 928 886 q 874 765 874 831 l 874 161 q 901 65 874 94 q 993 35 928 35 l 993 0 m 994 638 l 0 638 l 0 757 l 994 757 l 994 638 z "},"ħ":{"ha":811,"x_min":8,"x_max":707,"o":"m 707 0 l 382 0 l 382 33 q 447 113 447 33 l 447 439 q 378 550 447 550 q 271 476 319 550 l 271 113 q 338 33 271 33 l 338 0 l 10 0 l 10 33 q 78 113 78 33 l 78 804 q 13 888 78 888 l 13 919 l 271 919 l 271 540 q 458 646 340 646 q 596 579 547 646 q 640 429 640 521 l 640 113 q 707 33 640 33 l 707 0 m 336 693 l 8 693 l 8 817 l 336 817 l 336 693 z "},"Ĩ":{"ha":586,"x_min":0,"x_max":471,"o":"m 471 0 l 0 0 l 0 35 q 98 60 68 35 q 128 153 128 86 l 128 781 q 96 868 128 844 q 0 886 69 886 l 0 919 l 468 919 l 468 886 q 376 871 399 886 q 344 781 344 850 l 344 156 q 374 62 344 89 q 471 35 403 35 l 471 0 m 442 1150 q 297 983 419 983 q 211 1015 272 983 q 126 1046 150 1046 q 65 986 85 1046 l 21 986 q 164 1153 43 1153 q 250 1122 189 1153 q 335 1092 311 1092 q 397 1150 378 1092 l 442 1150 z "},"ĩ":{"ha":439,"x_min":-60,"x_max":361,"o":"m 326 0 l 0 0 l 0 33 q 68 113 68 33 l 68 508 q 4 593 68 593 l 4 625 l 260 625 l 260 113 q 326 33 260 33 l 326 0 m 361 879 q 217 713 338 713 q 131 744 192 713 q 46 775 69 775 q -15 715 4 775 l -60 715 q 83 882 -37 882 q 169 851 108 882 q 254 821 231 821 q 317 879 297 821 l 361 879 z "},"Ī":{"ha":586,"x_min":0,"x_max":471,"o":"m 471 0 l 0 0 l 0 35 q 98 60 68 35 q 128 153 128 86 l 128 781 q 96 868 128 844 q 0 886 69 886 l 0 919 l 468 919 l 468 886 q 376 871 399 886 q 344 781 344 850 l 344 156 q 374 62 344 89 q 471 35 403 35 l 471 0 m 392 985 l 64 985 l 64 1107 l 392 1107 l 392 985 z "},"ī":{"ha":439,"x_min":-18,"x_max":328,"o":"m 328 0 l 1 0 l 1 33 q 69 113 69 33 l 69 508 q 6 593 69 593 l 6 625 l 261 625 l 261 113 q 328 33 261 33 l 328 0 m 310 710 l -18 710 l -18 833 l 310 833 l 310 710 z "},"Ĭ":{"ha":586,"x_min":0,"x_max":471,"o":"m 471 0 l 0 0 l 0 35 q 98 60 68 35 q 128 153 128 86 l 128 781 q 96 868 128 844 q 0 886 69 886 l 0 919 l 468 919 l 468 886 q 376 871 399 886 q 344 781 344 850 l 344 156 q 374 62 344 89 q 471 35 403 35 l 471 0 m 22 1178 l 74 1178 q 232 1094 96 1094 q 389 1178 368 1094 l 440 1178 q 232 982 413 982 q 22 1178 51 982 z "},"ĭ":{"ha":439,"x_min":-54,"x_max":364,"o":"m 328 0 l 1 0 l 1 33 q 69 113 69 33 l 69 508 q 6 593 69 593 l 6 625 l 261 625 l 261 113 q 328 33 261 33 l 328 0 m -54 908 l -3 908 q 156 825 19 825 q 313 908 292 825 l 364 908 q 156 713 336 713 q -54 908 -25 713 z "},"Į":{"ha":586,"x_min":0,"x_max":471,"o":"m 471 0 l 0 0 l 0 35 q 98 60 68 35 q 128 153 128 86 l 128 781 q 96 868 128 844 q 0 886 69 886 l 0 919 l 468 919 l 468 886 q 376 871 399 886 q 344 781 344 850 l 344 156 q 374 62 344 89 q 471 35 403 35 l 471 0 m 347 -231 l 319 -171 q 278 -197 299 -185 q 207 -211 249 -211 q 149 -156 149 -211 q 167 -122 149 -129 q 219 -117 179 -117 q 258 -121 238 -117 l 258 0 l 211 0 l 211 -62 q 161 -58 178 -58 q 40 -154 40 -58 q 196 -276 40 -276 q 347 -231 264 -276 z "},"į":{"ha":439,"x_min":-21,"x_max":326,"o":"m 168 731 q 94 759 122 731 q 65 832 65 788 q 94 907 65 878 q 168 936 124 936 q 241 907 213 936 q 269 832 269 878 q 241 759 269 788 q 168 731 213 731 m 326 0 l 0 0 l 0 33 q 68 113 68 33 l 68 508 q 4 593 68 593 l 4 625 l 260 625 l 260 113 q 326 33 260 33 l 326 0 m 285 -231 l 257 -171 q 215 -197 236 -185 q 146 -211 186 -211 q 88 -156 88 -211 q 104 -122 88 -129 q 158 -117 117 -117 q 197 -121 176 -117 l 197 0 l 150 0 l 150 -62 q 100 -58 117 -58 q -21 -154 -21 -58 q 135 -276 -21 -276 q 285 -231 201 -276 z "},"Ĳ":{"ha":1171,"x_min":0,"x_max":1103,"o":"m 471 0 l 0 0 l 0 35 q 98 60 68 35 q 128 153 128 86 l 128 781 q 96 868 128 844 q 0 886 69 886 l 0 919 l 468 919 l 468 886 q 376 871 399 886 q 344 781 344 850 l 344 156 q 374 62 344 89 q 471 35 403 35 l 471 0 m 1103 886 q 1000 850 1022 886 q 983 739 983 825 l 983 179 q 910 -43 983 43 q 697 -133 832 -133 q 542 -89 610 -133 q 463 44 463 -39 q 489 121 463 90 q 560 151 515 151 q 627 123 601 151 q 653 53 653 94 q 638 5 653 35 q 622 -42 622 -25 q 644 -69 622 -58 q 682 -79 663 -79 q 765 42 765 -79 l 765 739 q 737 853 765 821 q 628 886 708 886 l 628 919 l 1103 919 l 1103 886 z "},"ĳ":{"ha":701,"x_min":0,"x_max":600,"o":"m 168 731 q 94 759 122 731 q 65 832 65 788 q 94 907 65 878 q 168 936 124 936 q 241 907 213 936 q 269 832 269 878 q 241 759 269 788 q 168 731 213 731 m 326 0 l 0 0 l 0 33 q 68 113 68 33 l 68 508 q 4 593 68 593 l 4 625 l 260 625 l 260 113 q 326 33 260 33 l 326 0 m 492 733 q 419 762 447 733 q 390 836 390 790 q 419 910 390 881 q 492 939 447 939 q 565 910 536 939 q 593 836 593 881 q 565 762 593 790 q 492 733 536 733 m 600 -39 q 536 -212 600 -147 q 365 -278 472 -278 q 236 -244 293 -278 q 167 -139 167 -206 q 190 -78 167 -101 q 251 -54 214 -54 q 306 -74 282 -54 q 329 -124 329 -93 q 315 -164 329 -135 q 300 -211 300 -193 q 340 -232 300 -232 q 406 -121 406 -232 l 406 503 q 321 594 406 594 l 321 625 l 600 625 l 600 -39 z "},"Ĵ":{"ha":749,"x_min":0,"x_max":640,"o":"m 640 886 q 538 850 560 886 q 521 739 521 825 l 521 179 q 447 -43 521 43 q 235 -133 369 -133 q 79 -89 147 -133 q 0 44 0 -39 q 26 121 0 90 q 97 151 53 151 q 165 123 139 151 q 190 53 190 94 q 175 5 190 35 q 160 -42 160 -25 q 182 -69 160 -58 q 219 -79 200 -79 q 303 42 303 -79 l 303 739 q 274 853 303 821 q 165 886 246 886 l 165 919 l 640 919 l 640 886 m 199 985 l 351 1181 l 451 1181 l 604 985 l 547 985 l 401 1093 l 256 985 l 199 985 z "},"ĵ":{"ha":565,"x_min":-67,"x_max":450,"o":"m 44 713 l 197 908 l 297 908 l 450 713 l 393 713 l 247 821 l 101 713 l 44 713 m 367 -39 q 303 -212 367 -147 q 132 -278 239 -278 q 3 -244 60 -278 q -67 -139 -67 -206 q -43 -78 -67 -101 q 18 -54 -19 -54 q 72 -74 49 -54 q 96 -124 96 -93 q 81 -163 96 -135 q 67 -210 67 -192 q 107 -232 67 -232 q 172 -121 172 -232 l 172 503 q 88 594 172 594 l 88 625 l 367 625 l 367 -39 z "},"Ķ":{"ha":1100,"x_min":0,"x_max":1017,"o":"m 1017 0 l 535 0 l 535 35 q 640 68 640 35 q 607 132 640 90 l 371 432 l 336 399 l 336 161 q 362 63 336 92 q 457 35 388 35 l 457 0 l 0 0 l 0 35 q 94 64 68 35 q 121 161 121 93 l 121 765 q 95 860 121 833 q 3 886 69 886 l 3 919 l 457 919 l 457 886 q 360 862 385 886 q 336 765 336 838 l 336 471 l 615 754 q 674 844 674 814 q 554 886 674 886 l 554 919 l 947 919 l 947 886 q 665 728 821 886 l 515 575 l 904 93 q 1017 35 951 35 l 1017 0 m 88 -231 l 115 -171 q 157 -197 136 -185 q 228 -211 186 -211 q 286 -156 286 -211 q 268 -122 286 -129 q 215 -117 256 -117 q 176 -121 197 -117 l 176 0 l 224 0 l 224 -62 q 274 -58 257 -58 q 394 -154 394 -58 q 239 -276 394 -276 q 88 -231 171 -276 z "},"ķ":{"ha":819,"x_min":0,"x_max":722,"o":"m 722 0 l 389 0 l 389 33 q 446 61 446 33 q 376 179 446 81 q 292 296 335 238 l 260 271 l 260 113 q 326 33 260 33 l 326 0 l 0 0 l 0 33 q 68 113 68 33 l 68 803 q 4 888 68 888 l 6 919 l 260 919 l 260 339 l 422 499 q 457 556 457 532 q 379 593 457 593 l 379 625 l 660 625 l 660 593 q 522 532 593 593 q 413 421 467 476 l 661 69 q 722 33 688 33 l 722 0 m 39 -233 l 67 -174 q 108 -200 88 -187 q 178 -214 138 -214 q 236 -158 236 -214 q 222 -126 236 -132 q 165 -119 207 -119 q 126 -124 147 -119 l 126 -3 l 174 -3 l 174 -65 q 224 -61 207 -61 q 344 -157 344 -61 q 189 -279 344 -279 q 39 -233 122 -279 z "},"Ĺ":{"ha":878,"x_min":0,"x_max":831,"o":"m 831 313 l 779 0 l 0 0 l 0 35 q 93 67 67 40 q 119 161 119 94 l 119 765 q 95 862 119 836 q 1 886 71 888 l 1 919 l 472 919 l 472 886 q 365 865 392 888 q 335 765 335 842 l 335 167 q 342 93 335 111 q 401 56 354 61 q 447 54 418 54 q 667 121 583 54 q 794 313 743 181 l 831 313 m 199 982 l 260 982 l 393 1049 q 460 1124 460 1082 q 400 1183 460 1183 q 360 1174 375 1183 q 293 1101 338 1158 l 199 982 z "},"ĺ":{"ha":440,"x_min":0,"x_max":388,"o":"m 326 0 l 0 0 l 0 33 q 68 113 68 33 l 68 803 q 4 888 68 888 l 4 919 l 260 919 l 260 113 q 326 33 260 33 l 326 0 m 126 983 l 188 983 l 321 1050 q 388 1125 388 1083 q 328 1185 388 1185 q 288 1174 303 1185 q 221 1103 265 1158 l 126 983 z "},"Ļ":{"ha":878,"x_min":0,"x_max":831,"o":"m 831 313 l 779 0 l 0 0 l 0 35 q 93 67 67 40 q 119 161 119 94 l 119 765 q 95 862 119 836 q 1 886 71 888 l 1 919 l 472 919 l 472 886 q 365 865 392 888 q 335 765 335 842 l 335 167 q 342 93 335 111 q 401 56 354 61 q 447 54 418 54 q 667 121 583 54 q 794 313 743 181 l 831 313 m 97 -231 l 125 -171 q 167 -197 146 -185 q 238 -211 196 -211 q 296 -156 296 -211 q 278 -122 296 -129 q 225 -117 267 -117 q 186 -121 207 -117 l 186 0 l 233 0 l 233 -62 q 283 -58 267 -58 q 404 -154 404 -58 q 249 -276 404 -276 q 97 -231 181 -276 z "},"ļ":{"ha":440,"x_min":0,"x_max":357,"o":"m 326 0 l 0 0 l 0 33 q 68 113 68 33 l 68 803 q 4 888 68 888 l 4 919 l 260 919 l 260 113 q 326 33 260 33 l 326 0 m 51 -228 l 79 -168 q 121 -194 100 -181 q 190 -208 149 -208 q 249 -153 249 -208 q 231 -118 249 -126 q 178 -114 219 -114 q 139 -118 160 -114 l 139 3 l 186 3 l 186 -60 q 236 -56 219 -56 q 357 -151 357 -56 q 201 -274 357 -274 q 51 -228 135 -274 z "},"Ľ":{"ha":878,"x_min":0,"x_max":831,"o":"m 831 313 l 779 0 l 0 0 l 0 35 q 93 67 67 40 q 119 161 119 94 l 119 765 q 95 860 119 835 q 1 886 71 886 l 1 919 l 472 919 l 472 886 q 365 865 392 886 q 335 765 335 842 l 335 167 q 342 93 335 111 q 400 56 354 61 q 447 54 418 54 q 667 121 582 54 q 794 313 742 181 l 831 313 m 25 1179 l 178 983 l 278 983 l 431 1179 l 374 1179 l 228 1071 l 82 1179 l 25 1179 z "},"ľ":{"ha":440,"x_min":-47,"x_max":358,"o":"m 326 0 l 0 0 l 0 33 q 68 113 68 33 l 68 803 q 4 888 68 888 l 4 919 l 260 919 l 260 113 q 326 33 260 33 l 326 0 m -47 1181 l 106 985 l 206 985 l 358 1181 l 301 1181 l 156 1072 l 10 1181 l -47 1181 z "},"Ŀ":{"ha":878,"x_min":0,"x_max":831,"o":"m 831 313 l 779 0 l 0 0 l 0 35 q 93 67 67 40 q 119 161 119 94 l 119 765 q 95 862 119 836 q 1 886 71 888 l 1 919 l 472 919 l 472 886 q 365 865 392 888 q 335 765 335 842 l 335 167 q 342 93 335 111 q 401 56 354 61 q 447 54 418 54 q 667 121 583 54 q 794 313 743 181 l 831 313 m 585 392 q 504 423 535 392 q 474 504 474 454 q 504 587 474 554 q 585 619 535 619 q 666 586 635 619 q 697 503 697 553 q 666 422 697 453 q 585 392 635 392 z "},"ŀ":{"ha":440,"x_min":0,"x_max":539,"o":"m 326 0 l 0 0 l 0 33 q 68 113 68 33 l 68 803 q 4 888 68 888 l 4 919 l 260 919 l 260 113 q 326 33 260 33 l 326 0 m 426 389 q 345 420 376 389 q 314 500 314 451 q 345 583 314 550 q 426 617 376 617 q 507 583 475 617 q 539 500 539 549 q 508 419 539 450 q 426 389 476 389 z "},"Ń":{"ha":1043,"x_min":0,"x_max":933,"o":"m 933 885 q 838 859 863 885 q 814 761 814 833 l 814 -21 l 778 -21 l 178 707 l 178 157 q 203 60 178 85 q 300 35 228 35 l 300 0 l 0 0 l 0 35 q 92 63 67 35 q 118 158 118 92 l 118 782 q 69 850 75 844 q 0 886 36 886 l 0 919 l 279 919 l 753 340 l 753 761 q 728 858 753 832 q 632 885 703 885 l 632 919 l 933 919 l 933 885 m 399 985 l 460 985 l 593 1051 q 660 1126 660 1085 q 600 1186 660 1186 q 560 1176 575 1186 q 493 1104 538 1161 l 399 985 z "},"ń":{"ha":811,"x_min":0,"x_max":697,"o":"m 697 0 l 372 0 l 372 33 q 438 113 438 33 l 438 438 q 368 550 438 550 q 261 475 310 550 l 261 113 q 328 33 261 33 l 328 0 l 0 0 l 0 33 q 68 113 68 33 l 68 511 q 3 594 68 581 l 3 625 l 261 625 l 261 540 q 450 644 335 644 q 586 578 538 644 q 631 428 631 519 l 631 113 q 697 33 631 33 l 697 0 m 250 714 l 311 714 l 444 781 q 511 856 511 814 q 451 915 511 915 q 410 904 426 915 q 344 833 388 889 l 250 714 z "},"Ņ":{"ha":1043,"x_min":0,"x_max":933,"o":"m 933 885 q 838 859 863 885 q 814 761 814 833 l 814 -21 l 778 -21 l 178 707 l 178 157 q 203 60 178 85 q 300 35 228 35 l 300 0 l 0 0 l 0 35 q 92 63 67 35 q 118 158 118 92 l 118 782 q 69 850 75 844 q 0 886 36 886 l 0 919 l 279 919 l 753 340 l 753 761 q 728 858 753 832 q 632 885 703 885 l 632 919 l 933 919 l 933 885 m 32 -231 l 60 -171 q 101 -197 81 -185 q 172 -211 131 -211 q 231 -156 231 -211 q 213 -122 231 -129 q 160 -117 201 -117 q 121 -121 142 -117 l 121 0 l 168 0 l 168 -62 q 218 -58 201 -58 q 339 -154 339 -58 q 183 -276 339 -276 q 32 -231 115 -276 z "},"ņ":{"ha":811,"x_min":0,"x_max":697,"o":"m 697 0 l 372 0 l 372 33 q 438 113 438 33 l 438 438 q 368 550 438 550 q 261 475 310 550 l 261 113 q 328 33 261 33 l 328 0 l 0 0 l 0 33 q 68 113 68 33 l 68 511 q 3 594 68 581 l 3 625 l 261 625 l 261 540 q 450 644 335 644 q 586 578 538 644 q 631 428 631 519 l 631 113 q 697 33 631 33 l 697 0 m 35 -231 l 63 -171 q 104 -197 83 -185 q 175 -211 133 -211 q 233 -156 233 -211 q 215 -122 233 -129 q 163 -117 204 -117 q 124 -121 144 -117 l 124 0 l 171 0 l 171 -62 q 221 -58 204 -58 q 342 -154 342 -58 q 186 -276 342 -276 q 35 -231 118 -276 z "},"Ň":{"ha":1043,"x_min":0,"x_max":933,"o":"m 933 885 q 838 859 863 885 q 814 761 814 833 l 814 -21 l 778 -21 l 178 707 l 178 157 q 203 60 178 85 q 300 35 228 35 l 300 0 l 0 0 l 0 35 q 92 63 67 35 q 118 158 118 92 l 118 782 q 69 850 75 844 q 0 886 36 886 l 0 919 l 279 919 l 753 340 l 753 761 q 728 858 753 832 q 632 885 703 885 l 632 919 l 933 919 l 933 885 m 243 1182 l 396 986 l 496 986 l 649 1182 l 592 1182 l 446 1074 l 300 1182 l 243 1182 z "},"ň":{"ha":811,"x_min":-53,"x_max":697,"o":"m 697 0 l 372 0 l 372 33 q 438 113 438 33 l 438 438 q 368 550 438 550 q 261 475 310 550 l 261 113 q 328 33 261 33 l 328 0 l 0 0 l 0 33 q 68 113 68 33 l 68 511 q 3 594 68 581 l 3 625 l 261 625 l 261 540 q 450 644 335 644 q 586 578 538 644 q 631 428 631 519 l 631 113 q 697 33 631 33 l 697 0 m -53 908 l 100 713 l 200 713 l 353 908 l 296 908 l 150 800 l 4 908 l -53 908 z "},"ŉ":{"ha":811,"x_min":13,"x_max":710,"o":"m 710 0 l 385 0 l 385 33 q 450 113 450 33 l 450 438 q 381 550 450 550 q 274 475 322 550 l 274 113 q 340 33 274 33 l 340 0 l 13 0 l 13 33 q 81 113 81 33 l 81 511 q 15 594 81 581 l 15 625 l 274 625 l 274 540 q 463 644 349 644 q 599 578 550 644 q 643 428 643 519 l 643 113 q 710 33 643 33 l 710 0 m 294 982 q 75 682 294 825 l 54 717 q 201 901 201 813 q 163 925 201 918 q 92 946 111 933 q 53 1026 53 969 q 83 1109 53 1074 q 160 1144 114 1144 q 260 1093 221 1144 q 294 982 294 1046 z "},"Ŋ":{"ha":1043,"x_min":0,"x_max":933,"o":"m 933 885 q 838 859 863 885 q 814 761 814 833 l 814 -21 l 778 -21 l 178 707 l 178 157 q 203 60 178 85 q 300 35 228 35 l 300 0 l 0 0 l 0 35 q 92 63 67 35 q 118 158 118 92 l 118 782 q 69 849 75 843 q 0 886 36 886 l 0 919 l 279 919 l 753 340 l 753 761 q 728 858 753 832 q 632 885 703 885 l 632 919 l 933 919 l 933 885 m 815 42 q 767 -176 817 -114 q 461 -271 690 -271 q 371 -265 396 -271 q 313 -203 313 -250 q 343 -136 313 -160 q 396 -117 367 -117 q 456 -165 425 -117 q 507 -214 488 -214 q 757 -22 757 -214 q 755 15 757 -7 q 753 42 753 36 l 815 42 z "},"ŋ":{"ha":811,"x_min":13,"x_max":644,"o":"m 450 438 q 381 550 450 550 q 274 475 322 550 l 274 113 q 340 33 274 33 l 340 0 l 13 0 l 13 33 q 81 113 81 33 l 81 511 q 15 594 81 581 l 15 625 l 274 625 l 274 540 q 463 644 349 644 q 599 578 550 644 q 643 428 643 519 l 643 113 q 581 -140 644 -60 q 179 -271 476 -271 q 89 -265 114 -271 q 31 -203 31 -250 q 60 -136 31 -160 q 114 -117 85 -117 q 174 -165 142 -117 q 225 -214 206 -214 q 435 -71 388 -214 q 450 113 450 -21 l 450 438 z "},"Ō":{"ha":1067,"x_min":0,"x_max":942,"o":"m 471 942 q 810 806 679 942 q 942 461 942 669 q 809 115 942 250 q 465 -21 676 -21 q 129 114 258 -21 q 0 457 0 249 q 131 804 0 667 q 471 942 263 942 m 478 22 q 667 179 604 22 q 714 444 714 296 q 663 725 714 599 q 461 894 593 894 q 274 738 336 894 q 226 474 226 621 q 278 192 226 318 q 478 22 346 22 m 619 983 l 290 983 l 290 1107 l 619 1107 l 619 983 z "},"ō":{"ha":707,"x_min":0,"x_max":596,"o":"m 297 -15 q 78 82 161 -15 q 0 314 0 175 q 78 544 0 451 q 297 643 161 643 q 517 544 433 643 q 596 314 596 451 q 517 82 596 175 q 297 -15 433 -15 m 299 25 q 390 140 360 25 q 410 313 410 219 q 390 483 410 403 q 297 603 361 603 q 207 488 236 603 q 188 317 188 408 q 207 142 188 222 q 299 25 238 25 m 454 714 l 126 714 l 126 838 l 454 838 l 454 714 z "},"Ŏ":{"ha":1067,"x_min":0,"x_max":942,"o":"m 471 942 q 810 806 679 942 q 942 461 942 669 q 809 115 942 250 q 465 -21 676 -21 q 129 114 258 -21 q 0 457 0 249 q 131 804 0 667 q 471 942 263 942 m 478 22 q 667 179 604 22 q 714 444 714 296 q 663 725 714 599 q 461 894 593 894 q 274 738 336 894 q 226 474 226 621 q 278 192 226 318 q 478 22 346 22 m 249 1181 l 300 1181 q 458 1097 322 1097 q 615 1181 594 1097 l 667 1181 q 458 985 639 985 q 249 1181 279 985 z "},"ŏ":{"ha":707,"x_min":0,"x_max":596,"o":"m 297 -15 q 78 82 161 -15 q 0 314 0 175 q 78 544 0 451 q 297 643 161 643 q 517 544 433 643 q 596 314 596 451 q 517 82 596 175 q 297 -15 433 -15 m 299 25 q 390 140 360 25 q 410 313 410 219 q 390 483 410 403 q 297 603 361 603 q 207 488 236 603 q 188 317 188 408 q 207 142 188 222 q 299 25 238 25 m 101 908 l 153 908 q 311 825 175 825 q 468 908 447 825 l 519 908 q 311 713 492 713 q 101 908 132 713 z "},"Ő":{"ha":1067,"x_min":0,"x_max":942,"o":"m 471 942 q 810 806 679 942 q 942 461 942 669 q 809 115 942 250 q 465 -21 676 -21 q 129 114 258 -21 q 0 457 0 249 q 131 804 0 667 q 471 942 263 942 m 478 22 q 667 179 604 22 q 714 444 714 296 q 663 725 714 599 q 461 894 593 894 q 274 738 336 894 q 226 474 226 621 q 278 192 226 318 q 478 22 346 22 m 285 983 l 346 983 l 481 1050 q 547 1125 547 1083 q 488 1185 547 1185 q 446 1175 463 1185 q 381 1103 424 1160 l 285 983 m 524 983 l 585 983 l 718 1050 q 785 1125 785 1083 q 725 1185 785 1185 q 685 1175 700 1185 q 618 1103 663 1160 l 524 983 z "},"ő":{"ha":707,"x_min":0,"x_max":621,"o":"m 297 -15 q 78 82 161 -15 q 0 314 0 175 q 78 544 0 451 q 297 643 161 643 q 517 544 433 643 q 596 314 596 451 q 517 82 596 175 q 297 -15 433 -15 m 299 25 q 390 140 360 25 q 410 313 410 219 q 390 483 410 403 q 297 603 361 603 q 207 488 236 603 q 188 317 188 408 q 207 142 188 222 q 299 25 238 25 m 122 711 l 183 711 l 317 778 q 383 853 383 811 q 324 913 383 913 q 283 903 299 913 q 217 831 261 888 l 122 711 m 360 711 l 421 711 l 554 778 q 621 853 621 811 q 561 913 621 913 q 521 903 536 913 q 454 831 499 888 l 360 711 z "},"Ŕ":{"ha":1039,"x_min":0,"x_max":939,"o":"m 939 0 l 650 0 l 375 428 l 335 428 l 335 161 q 361 63 335 90 q 457 35 388 35 l 457 0 l 0 0 l 0 35 q 119 161 119 33 l 119 765 q 93 857 119 832 q 1 886 69 878 l 1 919 l 406 919 q 669 875 568 919 q 810 672 810 814 q 746 531 810 588 q 604 450 700 489 l 839 101 q 939 35 881 40 l 939 0 m 582 739 q 532 840 582 804 q 419 871 489 871 q 349 853 364 871 q 335 778 335 836 l 335 472 q 540 525 494 472 q 582 739 582 574 m 288 983 l 349 983 l 482 1050 q 549 1125 549 1083 q 489 1185 549 1185 q 449 1174 464 1185 q 382 1103 426 1158 l 288 983 z "},"ŕ":{"ha":635,"x_min":0,"x_max":546,"o":"m 460 447 q 392 485 422 447 q 346 522 361 522 q 281 474 304 522 q 261 388 261 435 l 261 113 q 360 33 261 33 l 360 0 l 0 0 l 0 33 q 68 113 68 33 l 68 508 q 4 593 68 594 l 4 625 l 257 625 l 257 507 q 442 642 329 642 q 517 612 488 642 q 546 536 546 582 q 522 472 546 497 q 460 447 499 447 m 115 710 l 176 710 l 310 776 q 376 851 376 810 q 317 911 376 911 q 276 901 292 911 q 210 829 254 886 l 115 710 z "},"Ŗ":{"ha":1039,"x_min":0,"x_max":939,"o":"m 939 0 l 650 0 l 375 428 l 335 428 l 335 161 q 361 63 335 90 q 457 35 388 35 l 457 0 l 0 0 l 0 35 q 119 161 119 33 l 119 765 q 93 857 119 832 q 1 886 69 878 l 1 919 l 406 919 q 669 875 568 919 q 810 672 810 814 q 746 531 810 588 q 604 450 700 489 l 839 101 q 939 35 881 40 l 939 0 m 582 739 q 532 840 582 804 q 419 871 489 871 q 349 853 364 871 q 335 778 335 836 l 335 472 q 540 525 494 472 q 582 739 582 574 m 88 -231 l 115 -171 q 157 -197 136 -185 q 228 -211 186 -211 q 286 -156 286 -211 q 268 -122 286 -129 q 215 -117 256 -117 q 176 -121 197 -117 l 176 0 l 224 0 l 224 -62 q 274 -58 257 -58 q 394 -154 394 -58 q 239 -276 394 -276 q 88 -231 171 -276 z "},"ŗ":{"ha":635,"x_min":0,"x_max":546,"o":"m 460 447 q 392 485 422 447 q 346 522 361 522 q 281 474 304 522 q 261 388 261 435 l 261 113 q 360 33 261 33 l 360 0 l 0 0 l 0 33 q 68 113 68 33 l 68 508 q 4 593 68 594 l 4 625 l 257 625 l 257 507 q 442 642 329 642 q 517 612 488 642 q 546 536 546 582 q 522 472 546 497 q 460 447 499 447 m 46 -231 l 74 -171 q 115 -197 94 -185 q 185 -211 144 -211 q 243 -156 243 -211 q 228 -123 243 -129 q 172 -117 214 -117 q 133 -121 154 -117 l 133 0 l 181 0 l 181 -62 q 231 -58 214 -58 q 351 -154 351 -58 q 196 -276 351 -276 q 46 -231 129 -276 z "},"Ř":{"ha":1039,"x_min":0,"x_max":939,"o":"m 939 0 l 650 0 l 375 428 l 335 428 l 335 161 q 361 63 335 90 q 457 35 388 35 l 457 0 l 0 0 l 0 35 q 119 161 119 33 l 119 765 q 93 857 119 832 q 1 886 69 878 l 1 919 l 406 919 q 669 875 568 919 q 810 672 810 814 q 746 531 810 588 q 604 450 700 489 l 839 101 q 939 35 881 40 l 939 0 m 582 739 q 532 840 582 804 q 419 871 489 871 q 349 853 364 871 q 335 778 335 836 l 335 472 q 540 525 494 472 q 582 739 582 574 m 19 1182 l 172 986 l 272 986 l 425 1182 l 368 1182 l 222 1074 l 76 1182 l 19 1182 z "},"ř":{"ha":635,"x_min":-46,"x_max":546,"o":"m 460 447 q 392 485 422 447 q 346 522 361 522 q 281 474 304 522 q 261 388 261 435 l 261 113 q 360 33 261 33 l 360 0 l 0 0 l 0 33 q 68 113 68 33 l 68 508 q 4 593 68 594 l 4 625 l 257 625 l 257 507 q 442 642 329 642 q 517 612 488 642 q 546 536 546 582 q 522 472 546 497 q 460 447 499 447 m -46 904 l 107 708 l 207 708 l 360 904 l 303 904 l 157 796 l 11 904 l -46 904 z "},"Ś":{"ha":733,"x_min":0,"x_max":636,"o":"m 636 275 q 531 60 636 139 q 294 -11 436 -11 q 194 9 260 -11 q 96 29 129 29 q 36 -14 51 29 l 0 -14 l 0 326 l 39 326 q 124 131 61 208 q 306 36 197 36 q 425 78 375 36 q 475 186 475 119 q 356 338 475 274 q 132 454 244 396 q 13 679 13 539 q 94 874 13 797 q 294 950 176 950 q 401 927 332 950 q 506 904 469 904 q 558 949 551 904 l 597 949 l 597 651 l 563 651 q 472 826 543 756 q 296 903 397 903 q 194 869 235 903 q 153 775 153 835 q 278 625 153 692 q 511 504 394 565 q 636 275 636 415 m 256 982 l 317 982 l 450 1049 q 517 1124 517 1082 q 457 1183 517 1183 q 417 1174 432 1183 q 350 1101 394 1158 l 256 982 z "},"ś":{"ha":572,"x_min":0,"x_max":449,"o":"m 449 188 q 387 40 449 97 q 233 -17 325 -17 q 158 1 207 -17 q 83 18 110 18 q 31 -15 46 18 l 0 -15 l 0 211 l 36 211 q 96 88 51 138 q 217 32 146 32 q 286 53 256 32 q 317 113 317 75 q 236 222 317 176 q 85 303 160 263 q 3 447 3 360 q 65 588 3 532 q 213 643 128 643 q 283 628 238 643 q 351 614 329 614 q 393 643 379 614 l 421 643 l 421 446 l 389 446 q 331 549 371 507 q 225 596 285 596 q 165 576 190 596 q 140 519 140 556 q 221 422 140 468 q 369 338 368 339 q 449 188 449 276 m 182 710 l 243 710 l 376 776 q 443 851 443 810 q 383 911 443 911 q 343 900 358 911 q 276 829 321 886 l 182 710 z "},"Ŝ":{"ha":733,"x_min":0,"x_max":636,"o":"m 636 275 q 531 60 636 139 q 294 -11 436 -11 q 194 9 260 -11 q 96 29 129 29 q 36 -14 51 29 l 0 -14 l 0 326 l 39 326 q 124 131 61 208 q 306 36 197 36 q 425 78 375 36 q 475 186 475 119 q 356 338 475 274 q 132 454 244 396 q 13 679 13 539 q 94 874 13 797 q 294 950 176 950 q 401 927 332 950 q 506 904 469 904 q 558 949 551 904 l 597 949 l 597 651 l 563 651 q 472 826 543 756 q 296 903 397 903 q 194 869 235 903 q 153 775 153 835 q 278 625 153 692 q 511 504 394 565 q 636 275 636 415 m 117 983 l 269 1179 l 369 1179 l 522 983 l 465 983 l 319 1092 l 174 983 l 117 983 z "},"ŝ":{"ha":572,"x_min":0,"x_max":449,"o":"m 449 188 q 387 40 449 97 q 233 -17 325 -17 q 158 1 207 -17 q 83 18 110 18 q 31 -15 46 18 l 0 -15 l 0 211 l 36 211 q 96 88 51 138 q 217 32 146 32 q 286 53 256 32 q 317 113 317 75 q 236 222 317 176 q 85 303 160 263 q 3 447 3 360 q 65 588 3 532 q 213 643 128 643 q 283 628 238 643 q 351 614 329 614 q 393 643 379 614 l 421 643 l 421 446 l 389 446 q 331 549 371 507 q 225 596 285 596 q 165 576 190 596 q 140 519 140 556 q 221 422 140 468 q 369 338 368 339 q 449 188 449 276 m 35 710 l 188 906 l 288 906 l 440 710 l 383 710 l 238 818 l 92 710 l 35 710 z "},"Ţ":{"ha":893,"x_min":0,"x_max":808,"o":"m 808 640 l 774 640 q 510 875 754 875 l 510 161 q 539 63 510 90 q 640 35 568 35 l 640 0 l 163 0 l 163 35 q 263 63 233 35 q 293 161 293 90 l 293 875 q 111 815 179 875 q 36 642 39 754 l 0 642 l 0 919 l 808 919 l 808 640 m 299 -231 l 326 -171 q 368 -197 347 -185 q 438 -211 397 -211 q 496 -156 496 -211 q 478 -122 496 -129 q 425 -117 467 -117 q 386 -121 407 -117 l 386 0 l 433 0 l 433 -62 q 483 -58 467 -58 q 604 -154 604 -58 q 449 -276 604 -276 q 299 -231 382 -276 z "},"ţ":{"ha":514,"x_min":0,"x_max":407,"o":"m 407 132 q 326 26 381 68 q 201 -18 268 -18 q 94 28 132 -18 q 57 144 57 74 l 57 563 l 0 563 l 0 606 q 218 857 160 754 l 249 857 l 249 625 l 378 625 l 378 563 l 249 563 l 249 165 q 294 79 249 79 q 375 151 340 79 l 407 132 m 88 -231 l 115 -171 q 157 -197 136 -185 q 226 -211 185 -211 q 285 -156 285 -211 q 267 -122 285 -129 q 214 -117 256 -117 q 175 -121 196 -117 l 175 0 l 222 0 l 222 -62 q 272 -58 256 -58 q 393 -154 393 -58 q 238 -276 393 -276 q 88 -231 171 -276 z "},"Ť":{"ha":893,"x_min":0,"x_max":808,"o":"m 808 640 l 774 640 q 510 875 754 875 l 510 161 q 540 63 510 90 q 640 35 569 35 l 640 0 l 163 0 l 163 35 q 263 63 233 35 q 293 161 293 90 l 293 875 q 111 817 179 875 q 36 642 39 754 l 0 642 l 0 919 l 808 919 l 808 640 m 196 1183 l 349 988 l 449 988 l 601 1183 l 544 1183 l 399 1075 l 253 1183 l 196 1183 z "},"ť":{"ha":514,"x_min":0,"x_max":421,"o":"m 407 132 q 326 26 381 68 q 201 -18 268 -18 q 94 28 132 -18 q 57 144 57 74 l 57 563 l 0 563 l 0 606 q 218 857 160 754 l 249 857 l 249 625 l 378 625 l 378 563 l 249 563 l 249 165 q 294 79 249 79 q 375 151 340 79 l 407 132 m 15 1114 l 168 918 l 268 918 l 421 1114 l 364 1114 l 218 1006 l 72 1114 l 15 1114 z "},"Ŧ":{"ha":893,"x_min":0,"x_max":808,"o":"m 808 640 l 774 640 q 510 875 754 875 l 510 161 q 539 63 510 90 q 640 35 568 35 l 640 0 l 163 0 l 163 35 q 263 63 233 35 q 293 161 293 90 l 293 875 q 111 815 179 875 q 36 642 39 754 l 0 642 l 0 919 l 808 919 l 808 640 m 631 361 l 157 361 l 157 514 l 631 514 l 631 361 z "},"ŧ":{"ha":514,"x_min":0,"x_max":407,"o":"m 407 132 q 326 26 381 68 q 201 -18 268 -18 q 94 28 132 -18 q 57 144 57 74 l 57 563 l 0 563 l 0 606 q 218 857 160 754 l 249 857 l 249 625 l 378 625 l 378 563 l 249 563 l 249 165 q 294 79 249 79 q 375 151 340 79 l 407 132 m 301 257 l 3 257 l 3 392 l 301 392 l 301 257 z "},"Ũ":{"ha":1033,"x_min":0,"x_max":925,"o":"m 925 886 q 842 854 865 888 q 821 763 821 826 l 821 365 q 746 79 821 171 q 472 -24 663 -24 q 118 313 118 -24 l 118 765 q 93 861 118 835 q 0 886 68 888 l 0 919 l 456 919 l 456 886 q 360 861 386 888 q 333 765 333 835 l 333 331 q 365 135 333 200 q 528 43 411 43 q 761 322 761 43 l 761 763 q 734 863 761 838 q 631 886 707 888 l 631 919 l 925 919 l 925 886 m 713 1150 q 568 983 689 983 q 482 1015 543 983 q 397 1046 421 1046 q 336 986 356 1046 l 292 986 q 435 1153 314 1153 q 520 1122 458 1153 q 606 1092 582 1092 q 668 1150 647 1092 l 713 1150 z "},"ũ":{"ha":818,"x_min":0,"x_max":704,"o":"m 704 24 q 440 -18 599 24 l 440 79 q 249 -21 367 -21 q 114 46 161 -21 q 72 196 72 104 l 72 499 q 0 593 72 594 l 0 625 l 264 625 l 264 185 q 335 69 264 69 q 439 132 388 69 l 439 499 q 426 569 439 551 q 361 593 411 593 l 361 625 l 633 625 l 633 142 q 644 81 633 97 q 704 58 660 58 l 704 24 m 556 876 q 411 710 533 710 q 325 741 386 710 q 240 772 264 772 q 179 713 199 772 l 135 713 q 278 879 157 879 q 364 849 303 879 q 449 818 425 818 q 511 876 492 818 l 556 876 z "},"Ū":{"ha":1033,"x_min":0,"x_max":926,"o":"m 926 886 q 842 854 867 888 q 822 763 822 826 l 822 365 q 747 79 822 171 q 474 -24 664 -24 q 119 313 119 -24 l 119 765 q 94 861 119 835 q 0 886 69 888 l 0 919 l 457 919 l 457 886 q 361 861 388 888 q 335 765 335 835 l 335 331 q 367 135 335 200 q 529 43 411 43 q 763 322 763 43 l 763 763 q 735 863 763 838 q 632 886 708 888 l 632 919 l 926 919 l 926 886 m 653 985 l 324 985 l 324 1107 l 653 1107 l 653 985 z "},"ū":{"ha":818,"x_min":0,"x_max":704,"o":"m 704 24 q 440 -18 599 24 l 440 79 q 249 -21 367 -21 q 114 46 161 -21 q 72 196 72 104 l 72 499 q 0 593 72 594 l 0 625 l 264 625 l 264 185 q 335 69 264 69 q 439 132 388 69 l 439 499 q 426 569 439 551 q 361 593 411 593 l 361 625 l 633 625 l 633 142 q 644 81 633 97 q 704 58 660 58 l 704 24 m 493 713 l 164 713 l 164 836 l 493 836 l 493 713 z "},"Ŭ":{"ha":1033,"x_min":0,"x_max":926,"o":"m 926 886 q 842 854 867 888 q 822 763 822 826 l 822 365 q 747 79 822 171 q 474 -24 664 -24 q 119 313 119 -24 l 119 765 q 94 861 119 835 q 0 886 69 888 l 0 919 l 457 919 l 457 886 q 361 861 388 888 q 335 765 335 835 l 335 331 q 367 135 335 200 q 529 43 411 43 q 763 322 763 43 l 763 763 q 735 863 763 838 q 632 886 708 888 l 632 919 l 926 919 l 926 886 m 281 1179 l 332 1179 q 490 1096 354 1096 q 647 1179 626 1096 l 699 1179 q 490 983 672 983 q 281 1179 311 983 z "},"ŭ":{"ha":818,"x_min":0,"x_max":704,"o":"m 704 24 q 440 -18 599 24 l 440 79 q 249 -21 367 -21 q 114 46 161 -21 q 72 196 72 104 l 72 499 q 0 593 72 594 l 0 625 l 264 625 l 264 185 q 335 69 264 69 q 439 132 388 69 l 439 499 q 426 569 439 551 q 361 593 411 593 l 361 625 l 633 625 l 633 142 q 644 81 633 97 q 704 58 660 58 l 704 24 m 121 908 l 172 908 q 331 825 194 825 q 488 908 467 825 l 539 908 q 331 713 511 713 q 121 908 150 713 z "},"Ů":{"ha":1033,"x_min":0,"x_max":925,"o":"m 925 886 q 842 854 865 888 q 821 763 821 826 l 821 365 q 746 79 821 171 q 472 -24 663 -24 q 118 313 118 -24 l 118 765 q 93 861 118 835 q 0 886 68 888 l 0 919 l 456 919 l 456 886 q 360 861 386 888 q 333 765 333 835 l 333 331 q 365 135 333 200 q 528 43 411 43 q 761 322 761 43 l 761 763 q 734 863 761 838 q 631 886 707 888 l 631 919 l 925 919 l 925 886 m 386 1085 q 415 1156 386 1126 q 486 1186 444 1186 q 558 1156 529 1186 q 588 1085 588 1126 q 558 1013 588 1043 q 486 983 529 983 q 415 1013 444 983 q 386 1085 386 1043 m 440 1086 q 486 1039 440 1039 q 519 1053 506 1039 q 533 1086 533 1067 q 519 1117 533 1104 q 486 1131 506 1131 q 454 1117 468 1131 q 440 1086 440 1104 z "},"ů":{"ha":818,"x_min":0,"x_max":703,"o":"m 703 24 q 439 -18 599 24 l 439 79 q 249 -21 365 -21 q 113 46 160 -21 q 71 196 71 104 l 71 499 q 0 593 71 594 l 0 625 l 263 625 l 263 185 q 335 69 263 69 q 438 132 386 69 l 438 499 q 426 569 438 551 q 360 593 410 593 l 360 625 l 632 625 l 632 142 q 644 81 632 97 q 703 58 658 58 l 703 24 m 225 815 q 254 887 225 857 q 325 917 283 917 q 397 887 367 917 q 426 815 426 857 q 397 744 426 774 q 325 714 367 714 q 254 744 283 714 q 225 815 225 774 m 279 817 q 325 769 279 769 q 358 783 344 769 q 372 817 372 797 q 358 848 372 835 q 325 861 344 861 q 292 848 306 861 q 279 817 279 835 z "},"Ű":{"ha":1033,"x_min":0,"x_max":925,"o":"m 925 886 q 842 854 865 888 q 821 763 821 826 l 821 365 q 746 79 821 171 q 472 -24 663 -24 q 118 313 118 -24 l 118 765 q 93 861 118 835 q 0 886 68 888 l 0 919 l 456 919 l 456 886 q 360 861 386 888 q 333 765 333 835 l 333 331 q 365 135 333 200 q 528 43 411 43 q 761 322 761 43 l 761 763 q 734 863 761 838 q 631 886 707 888 l 631 919 l 925 919 l 925 886 m 300 986 l 361 986 l 494 1053 q 561 1128 561 1086 q 501 1188 561 1188 q 461 1178 476 1188 q 394 1106 439 1163 l 300 986 m 539 986 l 600 986 l 733 1053 q 800 1128 800 1086 q 740 1188 800 1188 q 700 1178 715 1188 q 633 1106 678 1163 l 539 986 z "},"ű":{"ha":818,"x_min":0,"x_max":703,"o":"m 703 24 q 439 -18 599 24 l 439 79 q 249 -21 365 -21 q 113 46 160 -21 q 71 196 71 104 l 71 499 q 0 593 71 594 l 0 625 l 263 625 l 263 185 q 335 69 263 69 q 438 132 386 69 l 438 499 q 426 569 438 551 q 360 593 410 593 l 360 625 l 632 625 l 632 142 q 644 81 632 97 q 703 58 658 58 l 703 24 m 147 714 l 208 714 l 342 781 q 408 856 408 814 q 349 915 408 915 q 308 904 324 915 q 242 833 286 889 l 147 714 m 386 714 l 447 714 l 581 781 q 647 856 647 814 q 588 915 647 915 q 547 904 563 915 q 481 833 525 889 l 386 714 z "},"Ų":{"ha":1033,"x_min":0,"x_max":925,"o":"m 925 886 q 842 854 865 888 q 821 763 821 826 l 821 365 q 746 79 821 171 q 472 -24 663 -24 q 118 313 118 -24 l 118 765 q 93 861 118 835 q 0 886 68 888 l 0 919 l 456 919 l 456 886 q 360 861 386 888 q 333 765 333 835 l 333 331 q 365 135 333 200 q 528 43 411 43 q 761 322 761 43 l 761 763 q 734 863 761 838 q 631 886 707 888 l 631 919 l 925 919 l 925 886 m 626 -231 l 599 -171 q 557 -197 578 -185 q 488 -211 528 -211 q 429 -156 429 -211 q 446 -122 429 -129 q 500 -117 458 -117 q 539 -121 518 -117 l 539 0 l 492 0 l 492 -62 q 442 -58 458 -58 q 321 -154 321 -58 q 476 -276 321 -276 q 626 -231 543 -276 z "},"ų":{"ha":818,"x_min":0,"x_max":703,"o":"m 703 24 q 439 -18 599 24 l 439 79 q 249 -21 365 -21 q 113 46 160 -21 q 71 196 71 104 l 71 499 q 0 593 71 594 l 0 625 l 263 625 l 263 185 q 335 69 263 69 q 438 132 386 69 l 438 499 q 426 569 438 551 q 360 593 410 593 l 360 625 l 632 625 l 632 142 q 644 81 632 97 q 703 58 658 58 l 703 24 m 369 -231 l 342 -171 q 300 -197 321 -185 q 229 -211 271 -211 q 171 -156 171 -211 q 189 -122 171 -129 q 242 -117 200 -117 q 281 -121 260 -117 l 281 0 l 233 0 l 233 -62 q 183 -58 200 -58 q 63 -154 63 -58 q 218 -276 63 -276 q 369 -231 286 -276 z "},"Ŵ":{"ha":1383,"x_min":0,"x_max":1292,"o":"m 1292 885 q 1192 765 1231 878 l 929 -21 l 893 -21 l 668 622 l 413 -21 l 375 -21 l 96 793 q 0 885 64 885 l 0 919 l 394 919 l 394 885 q 313 824 313 885 q 328 751 313 797 l 479 308 l 638 713 q 597 831 604 819 q 492 885 565 885 l 492 919 l 917 919 l 917 885 q 824 831 824 885 q 835 778 824 810 l 988 335 l 1122 746 q 1139 821 1139 794 q 1046 885 1139 885 l 1046 919 l 1292 919 l 1292 885 m 496 983 l 649 1179 l 749 1179 l 901 983 l 844 983 l 699 1092 l 553 983 l 496 983 z "},"ŵ":{"ha":1015,"x_min":0,"x_max":917,"o":"m 917 594 q 850 519 881 594 l 633 -17 l 603 -17 l 468 397 l 301 -17 l 265 -17 l 54 533 q 0 593 32 593 l 0 625 l 299 625 l 299 593 q 247 558 247 593 q 260 508 247 542 l 356 256 l 446 475 q 421 553 433 514 q 358 594 400 594 l 358 625 l 671 625 l 671 593 q 613 563 613 593 q 621 519 613 549 l 697 285 q 756 422 726 353 q 803 560 803 535 q 738 594 803 594 l 738 625 l 917 625 l 917 594 m 289 713 l 442 908 l 542 908 l 694 713 l 638 713 l 492 821 l 346 713 l 289 713 z "},"Ŷ":{"ha":999,"x_min":0,"x_max":914,"o":"m 914 885 q 799 789 857 885 l 568 408 l 568 161 q 594 63 568 92 q 688 35 619 35 l 688 0 l 231 0 l 231 35 q 324 64 297 35 q 350 161 350 93 l 350 361 l 119 779 q 0 885 67 876 l 0 919 l 444 919 l 444 885 q 339 842 339 885 q 356 789 339 821 l 528 454 l 699 738 q 728 819 728 786 q 622 885 728 885 l 622 919 l 914 919 l 914 885 m 267 983 l 419 1179 l 519 1179 l 672 983 l 615 983 l 469 1092 l 324 983 l 267 983 z "},"ŷ":{"ha":718,"x_min":0,"x_max":619,"o":"m 619 593 q 536 490 574 593 l 339 -49 q 264 -201 300 -154 q 119 -276 207 -276 q 35 -246 71 -276 q 0 -167 0 -215 q 22 -101 0 -126 q 83 -75 44 -75 q 140 -94 115 -75 q 165 -143 165 -112 q 165 -154 165 -147 q 164 -165 164 -162 q 188 -194 164 -194 q 263 -119 228 -194 q 296 -8 292 -60 l 85 506 q 58 564 65 553 q 6 592 39 592 l 6 625 l 340 625 l 340 593 q 274 554 274 593 q 324 400 274 531 q 388 239 356 319 l 478 488 q 492 547 492 526 q 422 593 492 593 l 422 625 l 619 625 l 619 593 m 126 713 l 279 908 l 379 908 l 532 713 l 475 713 l 329 821 l 183 713 l 126 713 z "},"Ź":{"ha":907,"x_min":0,"x_max":815,"o":"m 815 331 l 781 0 l 0 0 l 0 21 l 515 867 l 390 867 q 192 814 264 867 q 82 639 121 761 l 47 639 l 74 919 l 778 919 l 778 894 l 267 58 l 442 58 q 663 129 581 58 q 781 331 738 193 l 815 331 m 378 983 l 439 983 l 572 1050 q 639 1125 639 1085 q 579 1185 639 1185 q 539 1175 554 1185 q 472 1103 517 1160 l 378 983 z "},"ź":{"ha":664,"x_min":0,"x_max":532,"o":"m 532 217 l 515 0 l 0 0 l 0 29 l 314 581 l 235 581 q 64 436 85 581 l 26 436 l 38 625 l 529 625 l 529 588 l 229 49 q 401 78 346 49 q 497 217 471 114 l 532 217 m 260 714 l 321 714 l 454 781 q 521 856 521 814 q 461 915 521 915 q 421 906 436 915 q 354 833 399 890 l 260 714 z "},"Ż":{"ha":907,"x_min":0,"x_max":815,"o":"m 815 331 l 781 0 l 0 0 l 0 21 l 515 867 l 390 867 q 192 814 264 867 q 82 639 121 761 l 47 639 l 74 919 l 778 919 l 778 894 l 267 58 l 442 58 q 663 129 581 58 q 781 331 738 193 l 815 331 m 442 988 q 375 1016 400 988 q 350 1089 350 1044 q 376 1163 350 1133 q 442 1192 401 1192 q 508 1162 482 1192 q 535 1088 535 1132 q 509 1015 535 1043 q 442 988 483 988 z "},"ż":{"ha":664,"x_min":0,"x_max":532,"o":"m 532 217 l 515 0 l 0 0 l 0 29 l 314 581 l 235 581 q 64 436 85 581 l 26 436 l 38 625 l 529 625 l 529 588 l 229 49 q 401 78 346 49 q 497 217 471 114 l 532 217 m 300 710 q 234 738 260 710 q 208 810 208 767 q 234 884 208 854 q 300 914 260 914 q 368 884 342 914 q 394 810 394 854 q 368 738 394 765 q 300 710 342 710 z "},"ſ":{"ha":506,"x_min":0,"x_max":501,"o":"m 265 147 q 281 60 265 79 q 371 33 301 33 l 371 0 l 0 0 l 0 33 q 63 61 47 33 q 74 132 74 81 l 74 558 l 1 558 l 1 625 l 74 625 l 74 713 q 141 877 74 815 q 313 939 208 939 q 438 907 383 939 q 501 803 501 869 q 476 742 501 767 q 415 718 451 718 q 343 794 343 718 q 356 839 343 814 q 368 874 368 864 q 355 888 368 882 q 333 894 342 894 q 265 788 265 894 l 265 147 z "},"Ǻ":{"ha":999,"x_min":0,"x_max":910,"o":"m 910 0 l 476 0 l 476 38 q 593 81 593 38 q 525 268 593 90 l 225 268 q 190 175 214 243 q 164 83 164 96 q 272 38 164 38 l 272 0 l 0 0 l 0 38 q 113 147 68 38 l 432 942 l 467 942 l 789 175 q 832 88 817 108 q 910 38 863 44 l 910 0 m 504 324 l 369 644 l 244 324 l 504 324 m 72 814 q 101 885 72 856 q 172 915 131 915 q 244 885 214 915 q 274 814 274 856 q 244 742 274 772 q 172 713 214 713 q 101 742 131 713 q 72 814 72 772 m 126 814 q 172 768 126 768 q 206 781 192 768 q 219 814 219 794 q 206 847 219 833 q 172 860 192 860 q 140 847 154 860 q 126 814 126 833 m 136 982 l 197 982 l 331 1050 q 397 1125 397 1083 q 338 1185 397 1185 q 297 1174 313 1185 q 231 1103 275 1158 l 136 982 z "},"ǻ":{"ha":729,"x_min":0,"x_max":624,"o":"m 624 54 q 471 -19 571 -19 q 363 71 374 -19 q 156 -17 281 -17 q 43 20 86 -17 q 0 126 0 57 q 131 307 0 238 q 360 383 204 344 l 360 486 q 254 596 360 596 q 204 586 231 596 q 169 554 169 574 q 188 511 169 540 q 206 465 206 482 q 178 408 206 429 q 115 386 151 386 q 49 413 74 386 q 24 481 24 439 q 122 608 24 561 q 292 647 201 647 q 474 593 403 647 q 551 425 551 533 l 551 126 q 572 69 551 69 q 606 85 586 69 l 624 54 m 381 126 l 381 340 q 265 283 310 326 q 215 167 215 235 q 232 101 215 129 q 288 68 251 68 q 381 126 332 68 m 199 782 q 228 853 199 824 q 299 883 257 883 q 370 853 340 883 q 400 782 400 824 q 371 710 400 740 q 299 681 342 681 q 228 710 257 681 q 199 782 199 740 m 253 782 q 299 736 253 736 q 332 749 318 736 q 346 782 346 763 q 332 815 346 801 q 299 828 318 828 q 267 815 281 828 q 253 782 253 801 m 253 918 l 314 918 l 447 985 q 514 1060 514 1018 q 454 1119 514 1119 q 414 1110 429 1119 q 347 1038 392 1094 l 253 918 z "},"Ǽ":{"ha":1408,"x_min":0,"x_max":1322,"o":"m 900 985 l 961 985 l 1094 1051 q 1161 1126 1161 1085 q 1101 1186 1161 1186 q 1061 1175 1076 1186 q 994 1104 1039 1160 l 900 985 m 476 0 l 476 38 q 551 46 513 38 q 606 82 606 58 l 607 268 l 332 268 q 267 177 328 260 q 206 83 206 94 q 272 38 206 38 l 272 0 l 0 0 l 0 38 q 75 69 40 38 q 126 133 89 83 l 710 919 l 1258 919 l 1258 646 l 1228 646 q 1133 825 1211 774 q 932 869 1067 869 q 849 860 867 869 q 822 783 822 844 l 822 494 q 1036 696 1036 494 l 1068 696 l 1068 238 l 1033 238 q 822 449 1033 449 l 822 149 q 892 56 822 56 q 1131 104 1040 56 q 1285 289 1233 160 l 1322 289 l 1267 0 l 476 0 m 607 638 l 375 324 l 607 324 l 607 638 z "},"ǽ":{"ha":1006,"x_min":0,"x_max":915,"o":"m 447 711 l 508 711 l 642 778 q 708 853 708 811 q 649 913 708 913 q 608 903 624 913 q 542 831 586 888 l 447 711 m 426 126 q 156 -17 315 -17 q 43 20 86 -17 q 0 126 0 57 q 131 307 0 238 q 360 383 204 344 l 360 486 q 254 596 360 596 q 204 586 231 596 q 169 554 169 574 q 188 511 169 540 q 206 465 206 482 q 178 408 206 429 q 115 386 151 386 q 49 413 74 386 q 24 481 24 439 q 122 608 24 561 q 292 647 201 647 q 490 579 418 647 q 663 643 563 643 q 853 546 785 643 q 913 333 913 461 l 576 333 q 610 174 576 244 q 733 83 654 83 q 886 172 810 83 l 915 147 q 654 -19 813 -19 q 426 126 503 -19 m 749 388 l 749 458 q 733 549 749 510 q 668 600 711 600 q 597 550 624 600 q 576 460 576 510 l 576 388 l 749 388 m 381 126 l 381 340 q 265 283 310 326 q 215 167 215 235 q 232 101 215 129 q 288 68 251 68 q 381 126 332 68 m 381 335 z "},"Ǿ":{"ha":1067,"x_min":0,"x_max":940,"o":"m 461 985 l 522 985 l 656 1051 q 722 1126 722 1085 q 663 1186 722 1186 q 622 1175 638 1186 q 556 1104 600 1160 l 461 985 m 471 942 q 810 806 679 942 q 940 461 940 669 q 808 115 940 250 q 465 -21 675 -21 q 129 114 258 -21 q 0 457 0 249 q 131 804 0 667 q 471 942 261 942 m 478 22 q 667 179 603 22 q 714 443 714 296 q 663 725 714 599 q 461 894 593 894 q 274 736 336 894 q 226 472 226 619 q 278 192 226 318 q 478 22 346 22 m 647 972 l 354 -47 l 283 -47 l 576 972 l 647 972 z "},"ǿ":{"ha":707,"x_min":0,"x_max":596,"o":"m 269 714 l 331 714 l 464 781 q 531 856 531 814 q 471 915 531 915 q 431 906 446 915 q 364 833 408 890 l 269 714 m 440 653 l 228 -40 l 176 -40 l 389 653 l 440 653 m 297 -15 q 78 82 161 -15 q 0 314 0 175 q 78 544 0 451 q 297 643 161 643 q 517 544 433 643 q 596 314 596 451 q 517 82 596 175 q 297 -15 433 -15 m 299 25 q 390 140 360 25 q 410 313 410 219 q 390 483 410 403 q 297 603 361 603 q 207 488 236 603 q 188 317 188 408 q 207 142 188 222 q 299 25 238 25 z "},"ʹ":{"ha":310,"x_min":0,"x_max":207,"o":"m 0 558 l 42 543 l 181 793 q 207 861 207 840 q 189 901 207 883 q 149 919 171 919 q 115 911 132 919 q 64 817 82 892 l 0 558 z "},"͵":{"ha":310,"x_min":6,"x_max":213,"o":"m 213 365 l 171 381 l 32 131 q 6 63 6 82 q 24 21 6 39 q 64 3 42 3 q 97 13 81 3 q 149 106 129 32 l 213 365 z "},"ͺ":{"ha":199,"x_min":3,"x_max":139,"o":"m 47 -69 q 21 -151 35 -111 q 3 -229 3 -211 q 24 -261 3 -247 q 71 -275 44 -275 q 118 -261 97 -275 q 139 -229 139 -247 q 121 -151 139 -211 q 94 -69 107 -111 l 47 -69 z "},";":{"ha":360,"x_min":0,"x_max":242,"o":"m 122 414 q 35 444 69 414 q 0 526 0 474 q 32 609 0 575 q 114 643 64 643 q 195 610 164 643 q 226 528 226 578 q 198 447 226 481 q 122 414 169 414 m 242 44 q 24 -256 242 -115 l 3 -222 q 150 -36 150 -126 q 129 -15 150 -18 q 97 -15 129 -15 q 27 14 53 -15 q 1 88 1 43 q 31 172 1 136 q 110 207 61 207 q 208 154 171 207 q 242 44 242 108 z "},"΄":{"ha":396,"x_min":6,"x_max":343,"o":"m 6 681 l 67 681 l 279 793 q 343 867 343 826 q 282 928 343 928 q 190 872 243 928 l 6 681 z "},"΅":{"ha":594,"x_min":0,"x_max":540,"o":"m 92 708 q 26 737 51 708 q 0 810 0 765 q 26 883 0 854 q 92 913 51 913 q 160 883 133 913 q 186 808 186 853 q 160 736 186 764 q 92 708 133 708 m 439 708 q 373 737 399 708 q 347 810 347 765 q 373 883 347 854 q 439 913 399 913 q 506 883 481 913 q 532 808 532 853 q 506 736 532 764 q 439 708 481 708 m 203 888 l 264 888 l 476 1000 q 540 1074 540 1033 q 479 1135 540 1135 q 388 1079 442 1135 l 203 888 z "},"Ά":{"ha":999,"x_min":-1,"x_max":910,"o":"m 910 0 l 476 0 l 476 38 q 593 81 593 38 q 525 268 593 90 l 225 268 q 190 175 214 243 q 164 83 164 96 q 272 38 164 38 l 272 0 l 0 0 l 0 38 q 113 147 68 38 l 432 942 l 467 942 l 789 175 q 832 88 817 108 q 910 38 863 44 l 910 0 m 504 324 l 369 644 l 244 324 l 504 324 m -1 714 l 60 714 l 272 826 q 336 900 336 861 q 275 961 336 961 q 183 906 238 961 l -1 714 z "},"·":{"ha":294,"x_min":0,"x_max":225,"o":"m 111 415 q 31 447 63 415 q 0 528 0 478 q 31 610 0 578 q 111 643 63 643 q 193 610 161 643 q 225 526 225 576 q 193 446 225 476 q 111 415 161 415 z "},"Έ":{"ha":1165,"x_min":-161,"x_max":1072,"o":"m 1072 289 l 1017 0 l 231 0 l 231 35 q 328 61 299 35 q 357 156 357 88 l 357 746 q 333 850 357 818 q 238 886 307 888 l 238 919 l 1008 919 l 1008 646 l 978 646 q 883 825 961 774 q 682 869 817 869 q 599 860 615 869 q 572 783 572 844 l 572 494 q 786 696 786 494 l 818 696 l 818 238 l 783 238 q 572 449 783 449 l 572 149 q 642 56 572 56 q 881 104 790 56 q 1035 289 982 160 l 1072 289 m -161 714 l -100 714 l 113 826 q 176 900 176 861 q 115 961 176 961 q 24 906 78 961 l -161 714 z "},"Ή":{"ha":1401,"x_min":-119,"x_max":1279,"o":"m 1279 0 l 822 0 l 822 35 q 920 60 897 35 q 943 161 943 86 l 943 446 l 621 446 l 621 161 q 647 63 621 90 q 743 35 674 35 l 743 0 l 286 0 l 286 35 q 379 65 353 35 q 406 161 406 94 l 406 765 q 381 861 406 836 q 288 886 357 886 l 288 919 l 743 919 l 743 886 q 647 861 674 886 q 621 765 621 836 l 621 506 l 943 506 l 943 765 q 918 861 943 836 q 822 886 893 886 l 822 919 l 1279 919 l 1279 886 q 1187 859 1214 886 q 1160 765 1160 832 l 1160 161 q 1187 65 1160 94 q 1279 35 1214 35 l 1279 0 m -119 714 l -58 714 l 154 826 q 218 900 218 861 q 157 961 218 961 q 65 906 119 961 l -119 714 z "},"Ί":{"ha":878,"x_min":-119,"x_max":758,"o":"m 758 0 l 288 0 l 288 35 q 385 60 356 35 q 415 153 415 86 l 415 781 q 383 868 415 844 q 288 886 357 886 l 288 919 l 756 919 l 756 886 q 663 871 686 886 q 632 781 632 850 l 632 156 q 661 62 632 89 q 758 35 690 35 l 758 0 m -119 714 l -58 714 l 154 826 q 218 900 218 861 q 157 961 218 961 q 65 906 119 961 l -119 714 z "},"Ό":{"ha":1181,"x_min":-119,"x_max":1068,"o":"m 597 942 q 937 806 806 942 q 1068 461 1068 669 q 935 115 1068 250 q 592 -21 803 -21 q 256 114 385 -21 q 126 457 126 249 q 258 804 126 667 q 597 942 389 942 m 604 22 q 793 179 731 22 q 840 444 840 296 q 789 725 840 599 q 588 894 721 894 q 400 738 463 894 q 354 474 354 621 q 404 192 354 318 q 604 22 472 22 m -119 714 l -58 714 l 154 826 q 218 900 218 861 q 157 961 218 961 q 65 906 119 961 l -119 714 z "},"Ύ":{"ha":1238,"x_min":-175,"x_max":1164,"o":"m 1164 885 q 1049 789 1106 885 l 817 408 l 817 161 q 842 63 817 92 q 938 35 868 35 l 938 0 l 479 0 l 479 35 q 573 64 547 35 q 599 161 599 93 l 599 361 l 368 779 q 249 885 315 876 l 249 919 l 693 919 l 693 885 q 588 842 588 885 q 604 789 588 821 l 776 454 l 949 738 q 976 819 976 786 q 871 885 976 885 l 871 919 l 1164 919 l 1164 885 m -175 714 l -114 714 l 99 826 q 163 900 163 861 q 101 961 163 961 q 10 906 64 961 l -175 714 z "},"Ώ":{"ha":1157,"x_min":-119,"x_max":1043,"o":"m 1022 -7 l 654 -7 l 654 244 q 779 376 736 276 q 815 560 815 458 q 764 776 815 685 q 585 889 700 889 q 407 776 469 889 q 354 560 354 685 q 390 376 354 460 q 515 244 433 276 l 515 -7 l 146 -7 l 146 256 l 183 256 q 207 181 182 199 q 285 167 228 167 l 468 167 l 468 201 q 229 318 322 229 q 126 558 126 417 q 271 839 126 733 q 582 935 400 935 q 897 839 765 935 q 1043 557 1043 733 q 940 318 1043 415 q 700 201 846 229 l 700 167 l 863 167 q 957 175 940 167 q 986 256 988 189 l 1022 256 l 1022 -7 m -119 714 l -58 714 l 154 826 q 218 900 218 861 q 157 961 218 961 q 65 906 119 961 l -119 714 z "},"ΐ":{"ha":457,"x_min":-165,"x_max":375,"o":"m 335 196 q 286 50 331 108 q 151 -17 236 -17 q 24 54 58 -17 q -1 207 -1 103 l -1 625 l 190 625 l 190 147 q 226 76 190 76 q 286 196 278 76 l 335 196 m -74 711 q -140 739 -114 711 q -165 811 -165 767 q -140 885 -165 856 q -74 915 -114 915 q -6 885 -32 915 q 21 810 21 856 q -6 738 21 765 q -74 711 -32 711 m 274 711 q 208 739 233 711 q 182 811 182 767 q 208 885 182 856 q 274 915 233 915 q 341 885 315 915 q 367 810 367 856 q 341 738 367 765 q 274 711 315 711 m 38 889 l 99 889 l 311 1001 q 375 1075 375 1035 q 314 1136 375 1136 q 222 1081 276 1136 l 38 889 z "},"Α":{"ha":999,"x_min":0,"x_max":910,"o":"m 910 0 l 476 0 l 476 38 q 593 81 593 38 q 525 268 593 90 l 225 268 q 190 175 214 243 q 164 83 164 96 q 272 38 164 38 l 272 0 l 0 0 l 0 38 q 113 147 68 38 l 432 942 l 467 942 l 789 175 q 832 88 817 108 q 910 38 863 44 l 910 0 m 504 324 l 369 644 l 244 324 l 504 324 z "},"Β":{"ha":893,"x_min":0,"x_max":813,"o":"m 813 263 q 693 57 813 128 q 449 0 594 0 l 1 0 l 1 35 q 119 165 119 44 l 119 746 q 97 850 119 819 q 0 886 71 888 l 0 919 l 413 919 q 769 704 769 919 q 547 497 769 549 q 728 428 656 481 q 813 263 813 363 m 543 706 q 511 822 543 776 q 407 875 475 875 q 344 854 358 875 q 335 788 335 839 l 335 508 q 496 551 449 508 q 543 706 543 594 m 575 254 q 526 415 575 364 q 367 465 476 465 q 351 465 361 465 q 335 464 340 464 l 335 157 q 417 49 335 49 q 575 254 575 49 z "},"Γ":{"ha":858,"x_min":0,"x_max":803,"o":"m 803 674 l 772 674 q 711 813 744 772 q 575 869 664 869 l 433 869 q 357 857 374 869 q 335 783 335 840 l 335 154 q 368 56 335 81 q 472 35 396 35 l 472 0 l 1 0 l 1 35 q 94 61 68 35 q 119 154 119 88 l 119 757 q 0 885 119 885 l 0 919 l 794 919 l 803 674 z "},"Ε":{"ha":926,"x_min":0,"x_max":842,"o":"m 842 289 l 786 0 l 0 0 l 0 35 q 97 61 68 35 q 126 156 126 88 l 126 746 q 103 850 126 818 q 7 886 76 888 l 7 919 l 778 919 l 778 646 l 747 646 q 653 825 731 774 q 451 869 586 869 q 368 860 385 869 q 342 783 342 844 l 342 494 q 556 696 556 494 l 588 696 l 588 238 l 553 238 q 342 449 553 449 l 342 149 q 411 56 342 56 q 650 104 560 56 q 804 289 753 160 l 842 289 z "},"Ζ":{"ha":907,"x_min":0,"x_max":815,"o":"m 815 331 l 781 0 l 0 0 l 0 21 l 515 867 l 390 867 q 192 814 264 867 q 82 639 121 761 l 47 639 l 74 919 l 778 919 l 778 894 l 267 58 l 442 58 q 663 129 581 58 q 781 331 738 193 l 815 331 z "},"Η":{"ha":1110,"x_min":0,"x_max":993,"o":"m 993 0 l 536 0 l 536 35 q 634 60 611 35 q 657 161 657 86 l 657 446 l 335 446 l 335 161 q 361 63 335 90 q 457 35 388 35 l 457 0 l 0 0 l 0 35 q 93 65 67 35 q 119 161 119 94 l 119 765 q 95 861 119 836 q 1 886 71 886 l 1 919 l 457 919 l 457 886 q 361 861 388 886 q 335 765 335 836 l 335 506 l 657 506 l 657 765 q 632 861 657 836 q 536 886 607 886 l 536 919 l 993 919 l 993 886 q 901 859 928 886 q 874 765 874 832 l 874 161 q 901 65 874 94 q 993 35 928 35 l 993 0 z "},"Θ":{"ha":1044,"x_min":0,"x_max":940,"o":"m 471 942 q 810 806 679 942 q 940 461 940 671 q 808 115 940 251 q 467 -21 676 -21 q 129 117 260 -21 q 0 458 0 250 q 131 805 0 668 q 471 942 263 942 m 476 22 q 667 188 603 22 q 714 457 714 308 q 664 732 714 611 q 465 893 597 893 q 274 738 338 893 q 226 472 226 621 q 276 192 226 318 q 476 22 346 22 m 622 290 l 588 290 q 557 365 588 347 q 475 379 535 379 q 385 368 408 379 q 349 290 349 350 l 315 290 l 315 636 l 349 636 q 375 565 351 582 q 451 549 399 549 q 544 561 518 549 q 588 636 588 579 l 622 636 l 622 290 z "},"Ι":{"ha":586,"x_min":0,"x_max":471,"o":"m 471 0 l 0 0 l 0 35 q 98 60 68 35 q 128 153 128 86 l 128 781 q 96 868 128 844 q 0 886 69 886 l 0 919 l 468 919 l 468 886 q 376 871 399 886 q 344 781 344 850 l 344 156 q 374 62 344 89 q 471 35 403 35 l 471 0 z "},"Κ":{"ha":1100,"x_min":0,"x_max":1017,"o":"m 1017 0 l 535 0 l 535 35 q 640 68 640 35 q 607 132 640 90 l 371 432 l 336 399 l 336 161 q 362 63 336 92 q 457 35 388 35 l 457 0 l 0 0 l 0 35 q 94 64 68 35 q 121 161 121 93 l 121 765 q 95 860 121 833 q 3 886 69 886 l 3 919 l 457 919 l 457 886 q 360 862 385 886 q 336 765 336 838 l 336 471 l 615 754 q 674 844 674 814 q 554 886 674 886 l 554 919 l 947 919 l 947 886 q 665 728 821 886 l 515 575 l 904 93 q 1017 35 951 35 l 1017 0 z "},"Λ":{"ha":1003,"x_min":0,"x_max":924,"o":"m 924 0 l 469 0 l 469 35 q 586 90 586 35 q 569 156 586 115 l 374 631 l 192 156 q 178 97 178 121 q 292 35 178 35 l 292 0 l 0 0 l 0 35 q 122 147 78 35 l 432 943 l 465 943 l 806 151 q 847 72 831 94 q 924 35 878 35 l 924 0 z "},"Μ":{"ha":1333,"x_min":0,"x_max":1218,"o":"m 1218 886 q 1128 858 1154 886 q 1103 763 1103 829 l 1103 172 q 1118 67 1103 90 q 1215 35 1139 35 l 1215 0 l 768 0 l 768 35 q 865 63 843 35 q 888 167 888 90 l 888 806 l 551 0 l 515 0 l 182 785 l 182 160 q 211 62 182 89 q 313 35 240 35 l 313 0 l 0 0 l 0 35 q 122 160 122 35 l 122 771 q 94 860 122 835 q 1 886 65 886 l 1 919 l 344 919 l 610 288 l 876 919 l 1218 919 l 1218 886 z "},"Ν":{"ha":1043,"x_min":0,"x_max":933,"o":"m 933 885 q 838 859 863 885 q 814 761 814 833 l 814 -21 l 778 -21 l 178 707 l 178 157 q 203 60 178 85 q 300 35 228 35 l 300 0 l 0 0 l 0 35 q 92 63 67 35 q 118 158 118 92 l 118 782 q 69 850 75 844 q 0 886 36 886 l 0 919 l 279 919 l 753 340 l 753 761 q 728 858 753 832 q 632 885 703 885 l 632 919 l 933 919 l 933 885 z "},"Ξ":{"ha":918,"x_min":0,"x_max":799,"o":"m 785 664 l 750 664 q 649 738 750 738 l 151 738 q 50 664 50 738 l 14 664 l 14 919 l 785 919 l 785 664 m 649 304 l 614 304 q 586 376 614 357 q 511 392 564 392 l 288 392 q 213 376 235 392 q 186 304 186 358 l 151 304 l 151 650 l 186 650 q 288 561 186 561 l 511 561 q 614 650 614 561 l 649 650 l 649 304 m 799 0 l 0 0 l 0 322 l 36 322 q 136 197 36 197 l 663 197 q 764 322 764 197 l 799 322 l 799 0 z "},"Ο":{"ha":1067,"x_min":0,"x_max":942,"o":"m 471 942 q 810 806 679 942 q 942 461 942 669 q 809 115 942 250 q 465 -21 676 -21 q 129 114 258 -21 q 0 457 0 249 q 131 804 0 667 q 471 942 263 942 m 478 22 q 667 179 604 22 q 714 444 714 296 q 663 725 714 599 q 461 894 593 894 q 274 738 336 894 q 226 474 226 621 q 278 192 226 318 q 478 22 346 22 z "},"Π":{"ha":1110,"x_min":0,"x_max":993,"o":"m 993 0 l 536 0 l 536 35 q 634 60 611 35 q 657 161 657 86 l 657 765 q 643 858 657 839 q 556 885 625 883 q 447 886 471 886 q 351 860 374 886 q 335 765 335 838 l 335 161 q 361 63 335 90 q 457 35 388 35 l 457 0 l 0 0 l 0 35 q 93 65 67 35 q 119 161 119 94 l 119 765 q 94 860 119 833 q 1 886 68 886 l 1 919 l 993 919 l 993 886 q 900 859 926 886 q 874 765 874 832 l 874 161 q 901 65 874 94 q 993 35 928 35 l 993 0 z "},"Ρ":{"ha":908,"x_min":0,"x_max":794,"o":"m 794 672 q 686 474 794 543 q 457 415 594 415 l 335 415 l 335 161 q 361 63 335 92 q 457 35 388 35 l 457 0 l 0 0 l 0 35 q 93 65 67 35 q 119 161 119 94 l 119 765 q 95 862 119 836 q 1 886 71 888 l 1 919 l 400 919 q 664 882 575 919 q 794 672 794 825 m 557 625 q 538 789 557 738 q 411 871 504 871 q 354 860 369 871 q 335 804 335 846 l 335 464 l 367 464 q 508 492 469 464 q 557 625 557 526 z "},"Σ":{"ha":926,"x_min":0,"x_max":832,"o":"m 832 333 l 804 0 l 14 0 l 14 24 l 306 442 l 0 878 l 0 919 l 750 919 l 781 671 l 750 671 q 660 822 718 775 q 494 869 601 869 l 254 869 l 460 567 l 200 197 l 642 197 q 749 231 715 197 q 797 333 774 256 l 832 333 z "},"Τ":{"ha":893,"x_min":0,"x_max":808,"o":"m 808 640 l 774 640 q 510 875 754 875 l 510 161 q 540 63 510 90 q 640 35 569 35 l 640 0 l 163 0 l 163 35 q 263 63 233 35 q 293 161 293 90 l 293 875 q 111 817 179 875 q 36 642 39 754 l 0 642 l 0 919 l 808 919 l 808 640 z "},"Υ":{"ha":999,"x_min":0,"x_max":914,"o":"m 914 885 q 799 789 857 885 l 568 408 l 568 161 q 594 63 568 92 q 688 35 619 35 l 688 0 l 231 0 l 231 35 q 324 64 297 35 q 350 161 350 93 l 350 361 l 119 779 q 0 885 67 876 l 0 919 l 444 919 l 444 885 q 339 842 339 885 q 356 789 339 821 l 528 454 l 699 738 q 728 819 728 786 q 622 885 728 885 l 622 919 l 914 919 l 914 885 z "},"Φ":{"ha":1094,"x_min":0,"x_max":960,"o":"m 711 0 l 247 0 l 247 35 q 342 64 311 35 q 374 157 374 93 q 126 251 228 179 q 0 469 0 339 q 126 683 0 601 q 374 765 229 751 q 346 862 374 836 q 247 886 318 888 l 247 919 l 711 919 l 711 886 q 610 864 635 888 q 586 765 585 840 q 833 683 731 751 q 960 469 960 601 q 833 250 960 339 q 586 157 731 179 q 617 65 585 94 q 711 35 649 35 l 711 0 m 586 194 q 707 300 664 218 q 744 460 744 371 q 707 621 744 549 q 586 726 664 703 l 586 194 m 374 194 l 374 726 q 251 621 294 706 q 215 460 215 550 q 251 299 215 369 q 374 194 294 215 z "},"Χ":{"ha":1008,"x_min":0,"x_max":915,"o":"m 915 0 l 461 0 l 461 35 q 565 79 565 35 q 532 160 565 107 l 403 368 l 257 163 q 229 94 229 124 q 331 35 229 35 l 331 0 l 0 0 l 0 35 q 161 133 90 35 l 369 421 l 135 779 q 82 850 101 831 q 6 885 47 885 l 6 919 l 471 919 l 471 885 q 361 842 361 885 q 429 710 361 814 q 514 585 471 647 l 629 754 q 664 835 664 804 q 571 885 664 885 l 571 919 l 903 919 l 903 885 q 699 754 789 885 l 546 533 l 813 115 q 915 35 864 35 l 915 0 z "},"Ψ":{"ha":1261,"x_min":0,"x_max":1172,"o":"m 1172 888 l 1156 889 q 1072 775 1072 892 q 1076 694 1072 749 q 1079 613 1079 639 q 969 361 1079 439 q 692 289 879 297 l 692 153 q 818 35 692 35 l 818 0 l 357 0 l 357 35 q 482 153 482 35 l 482 289 q 194 368 283 293 q 97 638 97 449 q 99 688 97 654 q 99 739 99 722 q 85 842 99 810 q 0 888 63 889 l 0 921 q 101 931 57 931 q 264 864 221 931 q 296 707 296 815 q 296 651 296 689 q 294 594 294 614 q 331 425 294 481 q 482 347 374 358 l 482 781 q 450 868 482 844 q 357 886 424 886 l 357 919 l 818 919 l 818 886 q 725 869 751 886 q 692 781 692 847 l 692 347 q 857 461 822 360 q 875 676 875 513 q 910 860 875 806 q 1075 929 953 929 q 1172 921 1118 929 l 1172 888 z "},"Ϊ":{"ha":586,"x_min":-22,"x_max":476,"o":"m 469 0 l -1 0 l -1 35 q 97 60 67 35 q 126 153 126 86 l 126 781 q 94 868 126 844 q -1 886 68 886 l -1 919 l 467 919 l 467 886 q 375 871 397 886 q 343 781 343 850 l 343 156 q 372 62 343 89 q 469 35 401 35 l 469 0 m 71 985 q 3 1013 29 985 q -22 1086 -22 1042 q 3 1160 -22 1131 q 71 1189 29 1189 q 138 1159 111 1189 q 164 1085 164 1129 q 138 1013 164 1040 q 71 985 111 985 m 383 985 q 316 1013 342 985 q 290 1086 290 1042 q 316 1160 290 1131 q 383 1189 342 1189 q 450 1159 424 1189 q 476 1085 476 1129 q 450 1013 476 1040 q 383 985 424 985 z "},"Ϋ":{"ha":999,"x_min":0,"x_max":914,"o":"m 914 885 q 799 789 857 885 l 568 408 l 568 161 q 594 63 568 92 q 688 35 619 35 l 688 0 l 231 0 l 231 35 q 324 64 297 35 q 350 161 350 93 l 350 361 l 119 779 q 0 885 67 876 l 0 919 l 444 919 l 444 885 q 339 842 339 885 q 356 789 339 821 l 528 454 l 699 738 q 728 819 728 786 q 622 885 728 885 l 622 919 l 914 919 l 914 885 m 301 981 q 234 1009 260 981 q 208 1082 208 1038 q 234 1156 208 1126 q 301 1185 260 1185 q 368 1155 342 1185 q 394 1081 394 1125 q 368 1008 394 1036 q 301 981 342 981 m 614 981 q 547 1009 572 981 q 521 1082 521 1038 q 547 1156 521 1126 q 614 1185 572 1185 q 681 1155 654 1185 q 707 1081 707 1125 q 681 1008 707 1036 q 614 981 654 981 z "},"ά":{"ha":803,"x_min":0,"x_max":676,"o":"m 672 183 q 676 133 676 158 q 657 39 676 83 q 589 -18 632 -18 q 497 97 529 -18 q 275 -15 394 -15 q 69 79 144 -15 q 0 300 0 165 q 64 528 0 429 q 260 643 138 643 q 431 518 368 643 l 460 626 l 631 626 l 529 167 q 544 118 524 144 q 586 92 564 92 q 647 183 643 92 l 672 183 m 410 438 q 360 529 385 483 q 279 583 324 583 q 199 471 225 583 q 182 310 182 397 q 197 151 182 226 q 269 40 221 40 q 357 174 331 40 l 410 438 m 256 714 l 317 714 l 529 826 q 593 900 593 861 q 532 961 593 961 q 440 906 493 961 l 256 714 z "},"έ":{"ha":629,"x_min":0,"x_max":579,"o":"m 517 125 q 242 -21 394 -21 q 79 32 151 -21 q 0 176 0 90 q 107 336 0 269 q 26 464 26 390 q 110 599 26 546 q 271 643 183 643 q 410 617 349 643 q 493 513 493 582 q 474 464 493 483 q 425 444 454 444 q 358 482 379 444 q 332 551 346 515 q 285 588 318 588 q 228 553 247 588 q 213 486 213 525 q 225 421 213 451 q 272 381 242 381 q 310 385 285 381 q 349 389 335 389 q 400 332 400 389 q 342 279 400 279 q 299 284 328 279 q 256 289 269 289 q 194 201 194 289 q 224 110 194 149 q 303 71 253 71 q 481 165 379 71 l 517 125 m 242 714 l 303 714 l 515 826 q 579 900 579 861 q 518 961 579 961 q 426 906 479 961 l 242 714 z "},"ή":{"ha":838,"x_min":0,"x_max":696,"o":"m 696 -276 l 503 -276 l 503 438 q 436 551 503 551 q 326 475 375 551 l 326 0 l 135 0 l 135 450 q 103 535 135 535 q 60 493 78 535 q 44 429 44 458 l 0 429 q 50 576 3 514 q 185 646 103 646 q 326 540 285 646 q 515 644 400 644 q 651 578 603 644 q 696 428 696 519 l 696 -276 m 297 714 l 358 714 l 571 826 q 635 900 635 861 q 574 961 635 961 q 482 906 535 961 l 297 714 z "},"ί":{"ha":457,"x_min":0,"x_max":399,"o":"m 336 196 q 288 50 332 108 q 153 -17 236 -17 q 24 54 58 -17 q 0 207 0 103 l 0 625 l 192 625 l 192 147 q 228 76 192 76 q 288 196 279 76 l 336 196 m 61 714 l 122 714 l 335 826 q 399 900 399 861 q 338 961 399 961 q 246 906 299 961 l 61 714 z "},"ΰ":{"ha":786,"x_min":0,"x_max":646,"o":"m 646 403 q 571 124 646 246 q 335 -21 482 -21 q 165 69 225 -21 q 114 263 114 147 l 114 464 q 88 543 114 543 q 56 504 68 543 q 47 450 47 475 l 0 450 q 36 582 0 526 q 151 646 79 646 q 272 571 229 646 q 307 426 307 510 q 305 353 307 401 q 303 281 303 306 q 410 69 303 69 q 514 133 476 69 q 546 257 546 186 q 500 406 546 311 q 454 556 454 501 q 478 619 454 590 q 536 647 501 647 q 626 551 599 647 q 646 403 646 489 m 161 707 q 94 735 119 707 q 68 807 68 763 q 94 881 68 851 q 161 911 119 911 q 228 881 201 911 q 254 806 254 851 q 228 734 254 761 q 161 707 201 707 m 507 707 q 441 735 467 707 q 415 807 415 763 q 441 881 415 851 q 507 911 467 911 q 574 881 549 911 q 600 806 600 851 q 574 734 600 761 q 507 707 549 707 m 271 885 l 332 885 l 544 997 q 608 1071 608 1031 q 547 1132 608 1132 q 456 1076 510 1132 l 271 885 z "},"α":{"ha":803,"x_min":0,"x_max":676,"o":"m 672 183 q 676 133 676 158 q 657 39 676 83 q 589 -18 632 -18 q 497 97 529 -18 q 275 -15 394 -15 q 69 79 144 -15 q 0 300 0 165 q 64 528 0 429 q 260 643 138 643 q 431 518 368 643 l 460 626 l 631 626 l 529 167 q 544 118 524 144 q 586 92 564 92 q 647 183 643 92 l 672 183 m 410 438 q 360 529 385 483 q 279 583 324 583 q 199 471 225 583 q 182 310 182 397 q 197 151 182 226 q 269 40 221 40 q 357 174 331 40 l 410 438 z "},"β":{"ha":676,"x_min":1,"x_max":557,"o":"m 388 550 q 557 263 557 451 q 500 75 557 158 q 333 -19 435 -19 q 190 33 263 -19 l 190 -276 l 3 -276 l 1 476 q 4 692 1 660 q 65 865 15 808 q 265 938 129 938 q 438 885 367 938 q 515 728 515 826 q 481 618 515 667 q 388 550 446 569 m 325 518 q 275 507 304 507 q 222 546 222 507 q 268 590 222 590 q 321 585 263 590 q 338 736 338 650 q 264 892 338 892 q 201 858 218 892 q 190 783 190 835 l 190 93 q 272 53 236 53 q 354 147 328 53 q 371 290 371 208 q 325 518 371 453 z "},"γ":{"ha":697,"x_min":0,"x_max":618,"o":"m 533 643 q 618 567 618 643 q 561 408 618 496 q 454 257 546 383 q 357 100 392 171 q 393 -96 393 15 q 288 -276 393 -276 q 228 -238 246 -276 q 211 -104 211 -200 q 286 113 211 -35 l 236 296 q 200 425 206 410 q 126 503 169 503 q 28 386 54 503 l 0 386 q 136 643 0 643 q 283 407 228 643 q 343 185 301 331 q 392 278 386 265 q 424 376 414 324 q 426 421 426 392 q 426 451 426 431 q 426 482 426 471 q 443 592 426 556 q 533 643 468 643 z "},"δ":{"ha":733,"x_min":0,"x_max":600,"o":"m 600 296 q 515 74 600 164 q 299 -15 429 -15 q 83 72 165 -15 q 0 292 0 158 q 78 508 0 421 q 283 594 156 594 q 78 835 78 717 q 126 939 78 901 q 238 974 169 974 q 382 933 322 974 q 461 804 451 888 l 388 803 q 342 876 383 847 q 242 904 301 904 q 201 892 219 904 q 183 860 183 879 q 292 738 183 813 q 492 576 440 635 q 600 296 600 454 m 299 22 q 386 149 356 22 q 407 319 407 238 q 388 467 407 404 q 296 558 358 558 q 206 460 235 558 q 186 304 186 390 q 207 139 186 219 q 299 22 238 22 z "},"ε":{"ha":629,"x_min":0,"x_max":517,"o":"m 517 125 q 242 -21 394 -21 q 79 32 151 -21 q 0 176 0 90 q 107 336 0 269 q 26 464 26 390 q 110 599 26 546 q 271 643 183 643 q 410 617 349 643 q 493 513 493 582 q 474 464 493 483 q 425 444 454 444 q 358 482 379 444 q 332 551 346 515 q 285 588 318 588 q 228 553 247 588 q 213 486 213 525 q 225 421 213 451 q 272 381 242 381 q 310 385 285 381 q 349 389 335 389 q 400 332 400 389 q 342 279 400 279 q 299 284 328 279 q 256 289 269 289 q 194 201 194 289 q 224 110 194 149 q 303 71 253 71 q 481 165 379 71 l 517 125 z "},"ζ":{"ha":606,"x_min":0,"x_max":538,"o":"m 538 3 q 467 -176 538 -100 q 296 -253 397 -253 q 214 -235 249 -253 q 171 -171 171 -214 q 200 -113 171 -135 q 267 -92 229 -92 q 331 -103 288 -92 q 397 -114 375 -114 q 456 -58 456 -114 q 339 3 456 3 q 294 1 324 3 q 250 0 264 0 q 13 235 13 0 q 60 466 13 338 q 174 678 107 594 q 60 722 108 689 q 0 822 0 764 q 74 915 0 885 q 200 938 126 938 q 242 936 219 938 l 242 888 q 117 807 117 876 q 151 749 117 771 q 221 729 182 729 q 304 782 249 760 q 403 804 360 804 q 485 732 485 804 q 360 642 485 642 q 274 647 297 642 q 174 505 226 622 q 121 314 121 388 q 228 181 121 200 q 429 164 329 172 q 538 3 538 138 z "},"η":{"ha":838,"x_min":0,"x_max":696,"o":"m 696 -276 l 503 -276 l 503 438 q 436 551 503 551 q 326 475 375 551 l 326 0 l 135 0 l 135 450 q 103 535 135 535 q 60 493 78 535 q 44 429 44 458 l 0 429 q 50 576 3 514 q 185 646 103 646 q 326 540 285 646 q 515 644 400 644 q 651 578 603 644 q 696 428 696 519 l 696 -276 z "},"θ":{"ha":746,"x_min":0,"x_max":608,"o":"m 303 -18 q 65 151 147 -18 q 0 458 0 285 q 64 764 0 629 q 297 935 144 935 q 542 767 456 935 q 608 457 608 633 q 543 150 608 283 q 303 -18 458 -18 m 401 504 q 403 554 401 518 q 403 604 403 588 q 301 889 403 889 q 204 646 204 889 q 206 575 204 622 q 208 504 208 528 l 401 504 m 403 435 l 208 435 q 207 376 208 415 q 206 315 206 336 q 307 25 206 25 q 404 314 404 25 q 404 375 404 332 q 403 435 403 413 z "},"ι":{"ha":457,"x_min":0,"x_max":336,"o":"m 336 196 q 288 50 332 108 q 153 -17 236 -17 q 24 54 58 -17 q 0 207 0 103 l 0 625 l 192 625 l 192 147 q 228 76 192 76 q 288 196 279 76 l 336 196 z "},"κ":{"ha":765,"x_min":-1,"x_max":651,"o":"m 650 238 q 651 193 651 215 q 624 61 651 122 q 526 -18 589 -18 q 422 97 453 -18 q 406 268 403 174 l 242 146 q 125 -18 225 -18 q 57 18 82 -18 q 36 94 36 50 q 183 308 36 204 q 185 346 185 328 q 169 446 185 400 q 107 508 149 508 q 54 461 71 508 q 44 385 42 426 l 1 385 l 0 415 q 22 556 -1 490 q 118 643 54 643 q 226 528 193 643 q 244 354 250 446 l 408 479 q 522 643 425 643 q 592 608 567 643 q 617 525 617 572 q 468 315 617 419 q 467 278 467 296 q 481 178 467 224 q 544 115 503 115 q 596 161 579 115 q 606 238 607 196 l 650 238 z "},"λ":{"ha":757,"x_min":0,"x_max":649,"o":"m 646 238 q 649 186 649 211 q 622 58 649 118 q 528 -18 588 -18 q 388 168 433 -18 l 343 350 l 199 0 l 0 0 l 269 653 q 247 747 258 721 q 179 803 225 803 q 104 693 113 803 l 58 693 q 193 938 67 938 q 285 874 254 938 q 318 758 296 850 l 438 263 q 540 113 474 113 q 601 238 597 113 l 646 238 z "},"ν":{"ha":722,"x_min":-1,"x_max":618,"o":"m 335 0 l 283 0 l 136 429 q 88 497 114 497 q 44 418 58 497 l 0 418 l 0 435 q 36 574 -1 513 q 154 646 81 646 q 303 510 257 646 l 393 244 q 465 494 465 386 q 464 527 465 506 q 463 560 463 549 q 536 644 463 644 q 618 579 618 644 q 581 464 618 533 l 335 0 z "},"ξ":{"ha":622,"x_min":0,"x_max":536,"o":"m 536 -8 q 451 -184 536 -114 q 257 -254 365 -254 q 176 -235 211 -254 q 138 -167 138 -210 q 156 -119 138 -137 q 204 -101 175 -101 q 283 -113 231 -101 q 364 -125 336 -125 q 449 -56 449 -125 q 333 8 449 4 q 118 26 153 17 q 3 196 3 63 q 119 436 3 338 q 68 550 68 488 q 133 699 68 624 q 0 833 0 744 q 58 917 0 888 q 165 939 104 939 q 238 932 199 939 l 238 888 l 219 889 q 153 875 182 890 q 117 821 117 856 q 146 768 117 790 q 204 746 171 750 q 388 785 286 785 q 499 710 499 785 q 344 629 499 629 q 182 658 236 629 q 143 554 143 604 q 189 474 143 503 q 390 511 304 511 q 499 439 499 511 q 363 363 499 363 q 179 389 268 363 q 122 344 146 376 q 99 276 99 313 q 213 188 99 203 q 422 160 418 161 q 536 -8 536 122 z "},"ο":{"ha":731,"x_min":0,"x_max":594,"o":"m 297 -15 q 78 82 161 -15 q 0 313 0 175 q 78 544 0 451 q 297 643 161 643 q 517 544 433 643 q 594 313 594 451 q 517 82 594 175 q 297 -15 433 -15 m 299 25 q 392 150 361 25 q 413 324 413 233 q 392 492 413 417 q 297 603 361 603 q 207 488 236 603 q 188 315 188 408 q 207 142 188 222 q 299 25 238 25 z "},"ρ":{"ha":725,"x_min":0,"x_max":607,"o":"m 513 -276 l 468 -276 q 396 -233 456 -233 q 347 -237 379 -233 q 301 -242 314 -242 q 0 233 0 -242 q 63 514 0 410 q 304 643 139 643 q 526 544 442 643 q 607 313 607 453 q 529 83 607 175 q 313 -15 447 -15 q 82 85 169 -15 q 136 -49 86 0 q 272 -87 176 -87 q 300 -87 281 -87 q 329 -87 319 -87 q 451 -117 413 -87 q 513 -276 506 -158 m 308 25 q 400 140 369 25 q 419 311 419 218 q 400 481 419 400 q 308 603 371 603 q 217 490 246 603 q 197 321 197 414 q 217 149 197 232 q 308 25 246 25 z "},"ς":{"ha":597,"x_min":0,"x_max":540,"o":"m 540 669 q 490 515 535 563 q 342 467 446 467 q 261 470 315 467 q 179 474 207 474 q 69 313 69 474 q 149 197 69 219 q 304 190 175 190 q 444 140 388 190 q 500 6 500 89 q 409 -178 500 -104 q 206 -253 318 -253 q 125 -237 158 -253 q 82 -175 82 -217 q 108 -120 82 -142 q 169 -99 135 -99 q 252 -110 197 -99 q 335 -121 307 -121 q 422 -57 422 -121 q 292 3 422 3 q 247 1 274 3 q 213 0 219 0 q 0 285 0 0 q 294 629 0 629 q 343 627 311 629 q 390 625 375 625 q 497 669 471 625 l 540 669 z "},"σ":{"ha":797,"x_min":0,"x_max":678,"o":"m 678 504 l 551 504 q 597 313 597 415 q 518 82 597 174 q 299 -15 435 -15 q 78 83 161 -15 q 0 314 0 175 q 76 544 0 451 q 293 643 158 643 q 384 634 324 643 q 476 625 444 625 l 678 625 l 678 504 m 299 25 q 389 157 358 25 q 410 336 410 247 q 390 497 410 428 q 299 603 361 603 q 206 492 235 603 q 186 325 186 417 q 206 151 186 235 q 299 25 236 25 z "},"τ":{"ha":657,"x_min":0,"x_max":538,"o":"m 535 674 q 538 622 538 646 q 492 494 538 528 q 360 469 454 467 l 360 169 q 396 74 360 74 q 442 124 424 74 q 458 196 456 160 l 506 196 q 456 49 501 107 q 321 -17 406 -17 q 190 60 224 -17 q 169 219 169 107 l 169 469 l 118 469 q 50 439 57 469 q 46 394 46 425 l 0 394 q 74 589 0 536 q 256 628 128 628 q 333 626 279 628 q 417 624 388 624 q 492 669 478 624 l 533 669 l 535 674 z "},"υ":{"ha":786,"x_min":0,"x_max":646,"o":"m 646 403 q 571 124 646 246 q 335 -21 482 -21 q 165 69 225 -21 q 114 263 114 147 l 114 464 q 88 543 114 543 q 56 504 68 543 q 47 450 47 475 l 0 450 q 36 582 0 526 q 151 646 79 646 q 272 571 229 646 q 307 426 307 510 q 305 353 307 401 q 303 281 303 306 q 410 69 303 69 q 514 133 476 69 q 546 257 546 186 q 500 406 546 311 q 454 556 454 501 q 478 619 454 590 q 536 647 501 647 q 626 551 599 647 q 646 403 646 489 z "},"φ":{"ha":906,"x_min":0,"x_max":785,"o":"m 572 642 q 733 547 675 642 q 785 357 785 467 q 719 135 785 232 q 536 -4 653 32 l 536 -276 l 350 -276 l 350 -12 q 272 -1 307 -8 q 76 111 151 21 q 0 324 0 201 q 64 535 0 433 q 240 650 136 650 q 376 575 317 650 l 350 539 q 276 574 307 574 q 196 338 196 574 q 215 146 196 207 q 350 33 250 38 l 350 294 q 572 642 350 642 m 611 569 q 536 425 536 569 l 536 42 q 682 167 631 81 q 731 353 731 249 q 706 486 731 422 q 611 569 671 569 z "},"χ":{"ha":735,"x_min":0,"x_max":654,"o":"m 654 -19 q 519 -276 654 -276 q 428 -214 463 -276 q 386 -101 411 -185 l 349 24 l 200 -276 l 0 -276 l 264 263 q 214 408 239 335 q 124 510 172 510 q 47 386 47 510 l 0 386 q 133 643 0 643 q 251 526 204 643 q 306 350 278 439 l 442 624 l 642 624 l 393 111 l 429 -10 q 531 -142 468 -142 q 606 -19 600 -142 l 654 -19 z "},"ψ":{"ha":972,"x_min":0,"x_max":853,"o":"m 853 414 q 779 149 853 264 q 558 -6 699 22 l 568 -276 l 435 -276 l 443 -8 q 193 67 265 0 q 115 314 115 139 q 117 439 115 508 q 90 544 114 544 q 60 504 71 544 q 50 450 50 475 l 0 450 q 35 582 0 528 q 150 644 76 644 q 275 575 233 644 q 308 431 308 519 q 306 348 308 403 q 304 265 304 293 q 324 125 304 172 q 432 57 354 54 l 444 57 l 478 803 l 522 803 l 556 57 q 688 126 635 64 q 742 268 742 189 q 702 411 742 319 q 663 554 663 503 q 686 617 663 589 q 744 644 710 644 q 833 557 806 644 q 853 414 853 496 z "},"ω":{"ha":929,"x_min":0,"x_max":790,"o":"m 560 -15 q 396 94 471 -15 q 229 -15 321 -15 q 54 104 119 -15 q 0 324 0 204 q 72 550 0 463 q 286 643 149 643 l 286 596 q 204 476 231 583 q 185 314 185 403 q 201 160 185 232 q 275 54 225 54 q 335 97 314 54 q 351 175 351 132 q 329 296 351 208 q 307 431 307 383 q 392 535 307 535 q 482 429 482 535 q 460 297 482 383 q 438 175 438 211 q 454 99 438 133 q 514 54 476 54 q 588 183 561 54 q 606 349 606 274 q 504 596 606 574 l 504 643 q 719 547 642 643 q 790 319 790 460 q 736 101 790 200 q 560 -15 671 -15 z "},"ϊ":{"ha":457,"x_min":-142,"x_max":357,"o":"m 338 196 q 288 50 332 108 q 154 -17 238 -17 q 25 54 60 -17 q 1 207 1 103 l 1 625 l 193 625 l 192 147 q 229 76 192 76 q 289 196 281 76 l 338 196 m -50 713 q -116 741 -90 713 q -142 814 -142 769 q -116 888 -142 858 q -50 917 -90 917 q 18 887 -8 917 q 44 813 44 857 q 18 740 44 768 q -50 713 -8 713 m 264 713 q 197 741 222 713 q 171 814 171 769 q 197 888 171 858 q 264 917 222 917 q 331 887 304 917 q 357 813 357 857 q 331 740 357 768 q 264 713 304 713 z "},"ϋ":{"ha":786,"x_min":0,"x_max":646,"o":"m 646 403 q 571 124 646 246 q 335 -21 482 -21 q 165 69 225 -21 q 114 263 114 147 l 114 464 q 88 543 114 543 q 56 504 68 543 q 47 450 47 475 l 0 450 q 36 582 0 526 q 151 646 79 646 q 272 571 229 646 q 307 426 307 510 q 305 353 307 401 q 303 281 303 306 q 410 69 303 69 q 514 133 476 69 q 546 257 546 186 q 500 406 546 311 q 454 556 454 501 q 478 619 454 590 q 536 647 501 647 q 626 551 599 647 q 646 403 646 489 m 182 714 q 116 742 142 714 q 90 814 90 769 q 116 888 90 858 q 182 918 142 918 q 250 888 224 918 q 276 813 276 857 q 250 741 276 768 q 182 714 224 714 m 496 714 q 428 742 454 714 q 403 814 403 769 q 428 888 403 858 q 496 918 454 918 q 563 888 536 918 q 589 813 589 857 q 563 741 589 768 q 496 714 536 714 z "},"ό":{"ha":731,"x_min":0,"x_max":607,"o":"m 297 -15 q 78 82 161 -15 q 0 313 0 175 q 78 544 0 451 q 297 643 161 643 q 517 544 433 643 q 594 313 594 451 q 517 82 594 175 q 297 -15 433 -15 m 299 25 q 392 150 361 25 q 413 324 413 233 q 392 492 413 417 q 297 603 361 603 q 207 488 236 603 q 188 315 188 408 q 207 142 188 222 q 299 25 238 25 m 269 714 l 331 714 l 543 826 q 607 900 607 861 q 546 961 607 961 q 454 906 508 961 l 269 714 z "},"ύ":{"ha":786,"x_min":0,"x_max":646,"o":"m 646 403 q 571 124 646 246 q 335 -21 482 -21 q 165 69 225 -21 q 114 263 114 147 l 114 464 q 88 543 114 543 q 56 504 68 543 q 47 450 47 475 l 0 450 q 36 582 0 526 q 151 646 79 646 q 272 571 229 646 q 307 426 307 510 q 305 353 307 401 q 303 281 303 306 q 410 69 303 69 q 514 133 476 69 q 546 257 546 186 q 500 406 546 311 q 454 556 454 501 q 478 619 454 590 q 536 647 501 647 q 626 551 599 647 q 646 403 646 489 m 296 714 l 357 714 l 569 826 q 633 900 633 861 q 572 961 633 961 q 481 906 535 961 l 296 714 z "},"ώ":{"ha":929,"x_min":0,"x_max":790,"o":"m 560 -15 q 396 94 471 -15 q 229 -15 321 -15 q 54 104 119 -15 q 0 324 0 204 q 72 550 0 463 q 286 643 149 643 l 286 596 q 204 476 231 583 q 185 314 185 403 q 201 160 185 232 q 275 54 225 54 q 335 97 314 54 q 351 175 351 132 q 329 296 351 208 q 307 431 307 383 q 392 535 307 535 q 482 429 482 535 q 460 297 482 383 q 438 175 438 211 q 454 99 438 133 q 514 54 476 54 q 588 183 561 54 q 606 349 606 274 q 504 596 606 574 l 504 643 q 719 547 642 643 q 790 319 790 460 q 736 101 790 200 q 560 -15 671 -15 m 372 714 l 433 714 l 646 826 q 710 900 710 861 q 649 961 710 961 q 557 906 611 961 l 372 714 z "},"ϐ":{"ha":676,"x_min":1,"x_max":557,"o":"m 272 53 q 354 147 328 53 q 371 290 371 208 q 325 518 371 453 q 275 507 304 507 q 222 546 222 507 q 268 590 222 590 q 321 585 263 590 q 338 736 338 650 q 264 892 338 892 q 201 858 218 892 q 190 783 190 835 l 190 0 l 1 0 l 1 476 q 4 692 1 660 q 65 865 15 808 q 265 938 129 938 q 438 885 367 938 q 515 728 515 826 q 481 618 515 667 q 388 550 446 569 q 557 263 557 451 q 500 75 557 158 q 333 -19 435 -19 q 235 7 285 -19 l 235 61 q 272 53 254 53 z "},"ϑ":{"ha":807,"x_min":0,"x_max":608,"o":"m 303 -18 q 65 151 147 -18 q 0 458 0 285 q 64 764 0 629 q 297 935 144 935 q 542 767 456 935 q 608 457 608 633 q 543 150 608 283 q 303 -18 458 -18 m 401 504 q 403 554 401 518 q 403 604 403 588 q 301 889 403 889 q 204 646 204 889 q 206 575 204 622 q 208 504 208 528 l 401 504 m 403 435 l 208 435 q 207 376 208 415 q 206 315 206 336 q 307 25 206 25 q 404 314 404 25 q 404 375 404 332 q 403 435 403 413 z "},"ϒ":{"ha":999,"x_min":0,"x_max":914,"o":"m 914 885 q 799 789 857 885 l 568 408 l 568 161 q 594 63 568 92 q 688 35 619 35 l 688 0 l 231 0 l 231 35 q 324 64 297 35 q 350 161 350 93 l 350 361 l 119 779 q 0 885 67 876 l 0 919 l 444 919 l 444 885 q 339 842 339 885 q 356 789 339 821 l 528 454 l 699 738 q 728 819 728 786 q 622 885 728 885 l 622 919 l 914 919 l 914 885 z "},"ϓ":{"ha":999,"x_min":-175,"x_max":1164,"o":"m 1164 885 q 1049 789 1106 885 l 817 408 l 817 161 q 842 63 817 92 q 938 35 868 35 l 938 0 l 479 0 l 479 35 q 573 64 547 35 q 599 161 599 93 l 599 361 l 368 779 q 249 885 315 876 l 249 919 l 693 919 l 693 885 q 588 842 588 885 q 604 789 588 821 l 776 454 l 949 738 q 976 819 976 786 q 871 885 976 885 l 871 919 l 1164 919 l 1164 885 m -175 714 l -114 714 l 99 826 q 163 900 163 861 q 101 961 163 961 q 10 906 64 961 l -175 714 z "},"ϔ":{"ha":999,"x_min":0,"x_max":914,"o":"m 914 885 q 799 789 857 885 l 568 408 l 568 161 q 594 63 568 92 q 688 35 619 35 l 688 0 l 231 0 l 231 35 q 324 64 297 35 q 350 161 350 93 l 350 361 l 119 779 q 0 885 67 876 l 0 919 l 444 919 l 444 885 q 339 842 339 885 q 356 789 339 821 l 528 454 l 699 738 q 728 819 728 786 q 622 885 728 885 l 622 919 l 914 919 l 914 885 m 301 981 q 234 1009 260 981 q 208 1082 208 1038 q 234 1156 208 1126 q 301 1185 260 1185 q 368 1155 342 1185 q 394 1081 394 1125 q 368 1008 394 1036 q 301 981 342 981 m 614 981 q 547 1009 572 981 q 521 1082 521 1038 q 547 1156 521 1126 q 614 1185 572 1185 q 681 1155 654 1185 q 707 1081 707 1125 q 681 1008 707 1036 q 614 981 654 981 z "},"ϕ":{"ha":1076,"x_min":0,"x_max":785,"o":"m 572 642 q 733 547 675 642 q 785 357 785 467 q 719 135 785 232 q 536 -4 653 32 l 536 -276 l 350 -276 l 350 -12 q 272 -1 307 -8 q 76 111 151 21 q 0 324 0 201 q 64 535 0 433 q 240 650 136 650 q 376 575 317 650 l 350 539 q 276 574 307 574 q 196 338 196 574 q 215 146 196 207 q 350 33 250 38 l 350 294 q 572 642 350 642 m 611 569 q 536 425 536 569 l 536 42 q 682 167 631 81 q 731 353 731 249 q 706 486 731 422 q 611 569 671 569 z "}}}
